<svg width="20" height="20" viewBox="0 0 20 20" fill="none" xmlns="http://www.w3.org/2000/svg">
<path d="M10 20C15.5228 20 20 15.5228 20 10C20 4.47715 15.5228 0 10 0C4.47715 0 0 4.47715 0 10C0 15.5228 4.47715 20 10 20Z" fill="#0466C8"/>
<path d="M14.2971 5.70327C13.3027 4.70886 11.9944 4.09 10.5949 3.95214C9.1954 3.81428 7.79142 4.16595 6.62217 4.94723C5.45292 5.72851 4.59075 6.89105 4.18257 8.23676C3.7744 9.58248 3.84547 11.0281 4.38369 12.3273C4.9219 13.6264 5.89395 14.6988 7.13421 15.3616C8.37446 16.0244 9.80617 16.2367 11.1854 15.9622C12.5646 15.6877 13.8059 14.9435 14.6979 13.8564C15.5899 12.7692 16.0773 11.4064 16.0771 10.0001C16.0792 9.20182 15.9229 8.41102 15.6173 7.67348C15.3118 6.93594 14.863 6.26629 14.2971 5.70327ZM14.2279 7.55248H12.865C12.7454 6.97563 12.5635 6.41347 12.3225 5.87592C12.2857 5.79545 12.2479 5.71772 12.2088 5.64155C13.0517 6.07093 13.753 6.73411 14.2287 7.5517L14.2279 7.55248ZM14.8877 10.0001C14.8879 10.4249 14.8326 10.8479 14.7232 11.2583H13.0514C13.1363 10.4217 13.1363 9.57859 13.0514 8.74194H14.7232C14.8326 9.15239 14.8879 9.57537 14.8877 10.0001ZM5.1127 10.0001C5.11252 9.57537 5.16781 9.15239 5.27715 8.74194H6.94902C6.86413 9.57859 6.86413 10.4217 6.94902 11.2583H5.27715C5.16781 10.8479 5.11252 10.4249 5.1127 10.0001ZM8.07559 10.0001C8.07527 9.57977 8.09848 9.15971 8.14512 8.74194H11.8561C11.9488 9.57818 11.9488 10.4221 11.8561 11.2583H8.14512C8.09848 10.8406 8.07527 10.4205 8.07559 10.0001ZM10.0002 5.11264C10.415 5.11264 10.8787 5.58334 11.2412 6.37202C11.4122 6.75179 11.5473 7.14674 11.6447 7.5517H8.35566C8.45305 7.14674 8.58814 6.75179 8.75918 6.37202C9.12168 5.58334 9.58535 5.11264 10.0002 5.11264ZM7.7916 5.64116C7.75254 5.71694 7.71348 5.79467 7.67793 5.87553C7.43688 6.41308 7.25495 6.97524 7.13535 7.55209H5.77168C6.24732 6.73421 6.94862 6.07075 7.7916 5.64116ZM5.77168 12.4486H7.13535C7.25501 13.0255 7.43693 13.5878 7.67793 14.1255C7.71465 14.2057 7.75254 14.2839 7.7916 14.3599C6.94857 13.9302 6.24726 13.2666 5.77168 12.4486ZM10.0002 14.8876C9.58535 14.8876 9.12168 14.4169 8.75918 13.6283C8.58814 13.2485 8.45305 12.8535 8.35566 12.4486H11.6447C11.5473 12.8535 11.4122 13.2485 11.2412 13.6283C10.8787 14.4169 10.415 14.8876 10.0002 14.8876ZM12.2088 14.3591C12.2479 14.2833 12.2869 14.2056 12.3225 14.1248C12.5635 13.5872 12.7454 13.025 12.865 12.4482H14.2287C13.7531 13.2661 13.0518 13.9295 12.2088 14.3591Z" fill="white"/>
</svg>
