<svg width="20" height="20" viewBox="0 0 20 20" fill="none" xmlns="http://www.w3.org/2000/svg">
<path d="M10 20C4.478 20 0 15.522 0 10C0 4.478 4.478 0 10 0C15.522 0 20 4.478 20 10C20 15.522 15.522 20 10 20Z" fill="url(#paint0_linear_4424_18355)"/>
<path d="M9.99987 4.40383C11.8219 4.40383 12.0379 4.40983 12.7579 4.44383C13.4239 4.47383 13.7859 4.58583 14.0259 4.67983C14.3439 4.80383 14.5719 4.95183 14.8099 5.18983C15.0479 5.42783 15.1959 5.65583 15.3199 5.97383C15.4139 6.21383 15.5239 6.57583 15.5559 7.24183C15.5879 7.96183 15.5959 8.17783 15.5959 9.99983C15.5959 11.8218 15.5899 12.0378 15.5559 12.7578C15.5259 13.4238 15.4139 13.7858 15.3199 14.0258C15.1959 14.3438 15.0479 14.5718 14.8099 14.8098C14.5719 15.0478 14.3439 15.1958 14.0259 15.3198C13.7859 15.4138 13.4239 15.5238 12.7579 15.5558C12.0379 15.5878 11.8219 15.5958 9.99987 15.5958C8.17787 15.5958 7.96187 15.5898 7.24187 15.5558C6.57587 15.5258 6.21388 15.4138 5.97388 15.3198C5.65588 15.1958 5.42787 15.0478 5.18987 14.8098C4.95187 14.5718 4.80387 14.3438 4.67987 14.0258C4.58587 13.7858 4.47587 13.4238 4.44387 12.7578C4.41187 12.0378 4.40387 11.8218 4.40387 9.99983C4.40387 8.17783 4.40987 7.96183 4.44387 7.24183C4.47387 6.57583 4.58587 6.21383 4.67987 5.97383C4.80387 5.65583 4.95187 5.42783 5.18987 5.18983C5.42787 4.95183 5.65588 4.80383 5.97388 4.67983C6.21388 4.58583 6.57587 4.47583 7.24187 4.44383C7.96187 4.40983 8.17787 4.40383 9.99987 4.40383ZM9.99987 3.17383C8.14587 3.17383 7.91387 3.18183 7.18587 3.21583C6.45987 3.24983 5.96387 3.36383 5.52787 3.53383C5.07987 3.70583 4.69787 3.93983 4.31987 4.31983C3.93987 4.69983 3.70787 5.07983 3.53187 5.52983C3.36388 5.96383 3.24787 6.45983 3.21387 7.18783C3.17987 7.91583 3.17188 8.14783 3.17188 10.0018C3.17188 11.8558 3.17987 12.0878 3.21387 12.8158C3.24787 13.5418 3.36187 14.0378 3.53187 14.4738C3.70587 14.9198 3.93987 15.3018 4.31987 15.6798C4.69987 16.0598 5.07987 16.2918 5.52987 16.4678C5.96387 16.6358 6.45987 16.7518 7.18787 16.7858C7.91587 16.8198 8.14787 16.8278 10.0019 16.8278C11.8559 16.8278 12.0879 16.8198 12.8159 16.7858C13.5419 16.7518 14.0379 16.6378 14.4739 16.4678C14.9199 16.2938 15.3019 16.0598 15.6799 15.6798C16.0599 15.2998 16.2919 14.9198 16.4679 14.4698C16.6359 14.0358 16.7519 13.5398 16.7859 12.8118C16.8199 12.0838 16.8279 11.8518 16.8279 9.99783C16.8279 8.14383 16.8199 7.91183 16.7859 7.18383C16.7519 6.45783 16.6379 5.96183 16.4679 5.52583C16.2939 5.07983 16.0599 4.69783 15.6799 4.31983C15.2999 3.93983 14.9199 3.70783 14.4699 3.53183C14.0359 3.36383 13.5399 3.24783 12.8119 3.21383C12.0859 3.18183 11.8539 3.17383 9.99987 3.17383Z" fill="white"/>
<path d="M10.0001 6.49414C8.06414 6.49414 6.49414 8.06414 6.49414 10.0001C6.49414 11.9361 8.06414 13.5061 10.0001 13.5061C11.9361 13.5061 13.5061 11.9361 13.5061 10.0001C13.5061 8.06414 11.9361 6.49414 10.0001 6.49414ZM10.0001 12.2761C8.74414 12.2761 7.72414 11.2581 7.72414 10.0001C7.72414 8.74214 8.74414 7.72414 10.0001 7.72414C11.2561 7.72414 12.2761 8.74214 12.2761 10.0001C12.2761 11.2581 11.2561 12.2761 10.0001 12.2761Z" fill="white"/>
<path d="M13.6442 7.17613C14.0971 7.17613 14.4642 6.80901 14.4642 6.35613C14.4642 5.90326 14.0971 5.53613 13.6442 5.53613C13.1913 5.53613 12.8242 5.90326 12.8242 6.35613C12.8242 6.80901 13.1913 7.17613 13.6442 7.17613Z" fill="white"/>
<defs>
<linearGradient id="paint0_linear_4424_18355" x1="2.92894" y1="17.0711" x2="17.0711" y2="2.92894" gradientUnits="userSpaceOnUse">
<stop stop-color="#FFD521"/>
<stop offset="0.055" stop-color="#FFD020"/>
<stop offset="0.124" stop-color="#FEC01E"/>
<stop offset="0.2" stop-color="#FCA71B"/>
<stop offset="0.282" stop-color="#FA8316"/>
<stop offset="0.368" stop-color="#F85510"/>
<stop offset="0.456" stop-color="#F51E09"/>
<stop offset="0.5" stop-color="#F30005"/>
<stop offset="0.503" stop-color="#F20007"/>
<stop offset="0.597" stop-color="#E1003B"/>
<stop offset="0.688" stop-color="#D30067"/>
<stop offset="0.776" stop-color="#C70088"/>
<stop offset="0.859" stop-color="#BF00A0"/>
<stop offset="0.936" stop-color="#BB00AF"/>
<stop offset="1" stop-color="#B900B4"/>
</linearGradient>
</defs>
</svg>
