<svg width="20" height="20" viewBox="0 0 20 20" fill="none" xmlns="http://www.w3.org/2000/svg">
<g clip-path="url(#clip0_4424_18341)">
<path fill-rule="evenodd" clip-rule="evenodd" d="M9.94336 0.314453C4.6025 0.314453 0.263672 4.65344 0.263672 9.99426C0.263672 15.3351 4.60254 19.6738 9.94336 19.6738C15.2842 19.6738 19.623 15.3351 19.623 9.99426C19.623 4.6534 15.2842 0.314453 9.94336 0.314453ZM15.7379 13.123C15.6718 13.2838 15.3598 13.5105 14.2633 13.6809C14.1688 13.6995 14.1404 13.813 14.0837 14.059C14.0661 14.1482 14.044 14.2366 14.0175 14.3236C13.9891 14.4085 13.9419 14.4464 13.8568 14.4464H13.8473C13.7641 14.4445 13.6815 14.4318 13.6016 14.4086C13.3832 14.3687 13.1619 14.3466 12.9399 14.3425C12.7815 14.3414 12.6234 14.354 12.4672 14.3802C12.1364 14.4371 11.8623 14.6355 11.5598 14.8435C11.1344 15.1461 10.6901 15.4579 10 15.4579H9.84883C9.15875 15.4579 8.71445 15.1461 8.2891 14.8435C7.99609 14.6355 7.7125 14.4371 7.38168 14.3802C7.22552 14.354 7.06737 14.3414 6.90902 14.3426C6.68653 14.3464 6.46494 14.3717 6.24731 14.4181C6.16663 14.4379 6.08437 14.4505 6.00148 14.4558C5.96295 14.46 5.92422 14.4498 5.89279 14.4271C5.86137 14.4044 5.83948 14.3709 5.83137 14.333C5.80301 14.2384 5.7841 14.1439 5.76516 14.059C5.71789 13.832 5.68012 13.6996 5.58559 13.6809C4.48902 13.5105 4.17711 13.2838 4.11094 13.123C4.10024 13.0992 4.09384 13.0736 4.09203 13.0475C4.0914 13.0178 4.10162 12.989 4.12077 12.9664C4.13993 12.9438 4.16669 12.9289 4.19602 12.9246C5.87863 12.6411 6.63484 10.9206 6.6632 10.845H6.6727C6.77664 10.637 6.79555 10.4479 6.72938 10.3062C6.61594 10.0319 6.23781 9.90906 5.99207 9.83352C5.93443 9.81742 5.87764 9.79842 5.82191 9.7766C5.3209 9.5782 5.28309 9.37981 5.30199 9.27566C5.3398 9.09621 5.56668 8.97313 5.76516 8.97313C5.81087 8.97249 5.85613 8.98227 5.8975 9.00172C6.12438 9.10559 6.32289 9.16219 6.49305 9.16219C6.73883 9.16219 6.84277 9.05828 6.85223 9.04899C6.85223 8.93547 6.84277 8.81266 6.83336 8.68953C6.78609 7.89567 6.71992 6.90313 6.97516 6.33594C7.73137 4.64379 9.32891 4.5116 9.80152 4.5116H10.0379C10.5105 4.5116 12.1175 4.64379 12.8737 6.33594C13.1289 6.90313 13.0628 7.8957 13.0155 8.68953V8.72746C13.0061 8.83137 12.9966 8.94484 12.9966 9.04895C13.0061 9.05832 13.1006 9.15285 13.318 9.16219C13.4882 9.15281 13.6772 9.09621 13.8852 9.00172C13.942 8.97732 14.003 8.96443 14.0648 8.96379C14.1336 8.9649 14.2013 8.98103 14.2633 9.01106H14.2727C14.4334 9.06766 14.5469 9.19074 14.5469 9.31359C14.5563 9.42707 14.4618 9.60652 14.027 9.7766C13.9797 9.79559 13.923 9.81453 13.8663 9.83352C13.611 9.90906 13.2329 10.0319 13.1195 10.3062C13.0533 10.448 13.0722 10.637 13.1762 10.845H13.1856C13.214 10.9206 13.9702 12.6411 15.6528 12.9246C15.6821 12.9289 15.7089 12.9438 15.7281 12.9664C15.7472 12.989 15.7574 13.0178 15.7568 13.0475C15.755 13.0736 15.7486 13.0992 15.7379 13.123Z" fill="#F5CE0B"/>
</g>
<defs>
<clipPath id="clip0_4424_18341">
<rect width="20" height="20" fill="white"/>
</clipPath>
</defs>
</svg>
