<svg width="20" height="20" viewBox="0 0 20 20" fill="none" xmlns="http://www.w3.org/2000/svg">
<g clip-path="url(#clip0_4424_18274)">
<path d="M10 0C4.47734 0 0 4.47734 0 10C0 15.5227 4.47734 20 10 20C15.5227 20 20 15.5227 20 10C20 4.47734 15.5227 0 10 0Z" fill="#0D0D0D"/>
<path d="M11.0937 9.09531L15.3745 4.11914H14.3601L10.643 8.43989L7.67419 4.11914H4.25L8.73944 10.6529L4.25 15.8712H5.26449L9.18984 11.3083L12.3251 15.8712H15.7493L11.0937 9.09531ZM5.63002 4.88284H7.18821L14.3606 15.1422H12.8024L5.63002 4.88284Z" fill="white"/>
</g>
<defs>
<clipPath id="clip0_4424_18274">
<rect width="20" height="20" fill="white"/>
</clipPath>
</defs>
</svg>
