<svg width="28" height="28" viewBox="0 0 28 28" fill="none" xmlns="http://www.w3.org/2000/svg">
<path d="M12.8527 3.28303C12.9027 3.0154 13.0447 2.77368 13.2542 2.59973C13.4636 2.42579 13.7273 2.33057 13.9995 2.33057C14.2718 2.33057 14.5355 2.42579 14.7449 2.59973C14.9544 2.77368 15.0964 3.0154 15.1464 3.28303L16.3725 9.76736C16.4596 10.2284 16.6837 10.6524 17.0154 10.9842C17.3472 11.3159 17.7712 11.5399 18.2322 11.627L24.7165 12.8532C24.9842 12.9032 25.2259 13.0452 25.3998 13.2546C25.5738 13.4641 25.669 13.7278 25.669 14C25.669 14.2723 25.5738 14.536 25.3998 14.7454C25.2259 14.9549 24.9842 15.0969 24.7165 15.1469L18.2322 16.373C17.7712 16.4601 17.3472 16.6841 17.0154 17.0159C16.6837 17.3476 16.4596 17.7717 16.3725 18.2327L15.1464 24.717C15.0964 24.9847 14.9544 25.2264 14.7449 25.4003C14.5355 25.5743 14.2718 25.6695 13.9995 25.6695C13.7273 25.6695 13.4636 25.5743 13.2542 25.4003C13.0447 25.2264 12.9027 24.9847 12.8527 24.717L11.6265 18.2327C11.5395 17.7717 11.3154 17.3476 10.9837 17.0159C10.6519 16.6841 10.2279 16.4601 9.76687 16.373L3.28254 15.1469C3.01491 15.0969 2.77319 14.9549 2.59924 14.7454C2.4253 14.536 2.33008 14.2723 2.33008 14C2.33008 13.7278 2.4253 13.4641 2.59924 13.2546C2.77319 13.0452 3.01491 12.9032 3.28254 12.8532L9.76687 11.627C10.2279 11.5399 10.6519 11.3159 10.9837 10.9842C11.3154 10.6524 11.5395 10.2284 11.6265 9.76736L12.8527 3.28303Z" fill="#09760A" stroke="#09760A" stroke-width="1.5" stroke-linecap="round" stroke-linejoin="round"/>
<path opacity="0.5" d="M23.6046 3.82155C23.6171 3.75466 23.6526 3.69425 23.705 3.65077C23.7573 3.6073 23.8232 3.5835 23.8913 3.5835C23.9593 3.5835 24.0252 3.6073 24.0776 3.65077C24.1299 3.69425 24.1654 3.75466 24.1779 3.82155L24.4844 5.44225C24.5062 5.55747 24.5621 5.66346 24.6451 5.74638C24.728 5.82929 24.834 5.88529 24.9492 5.90706L26.5699 6.21352C26.6368 6.22602 26.6972 6.26151 26.7407 6.31386C26.7841 6.36621 26.8079 6.43212 26.8079 6.50016C26.8079 6.56821 26.7841 6.63412 26.7407 6.68647C26.6972 6.73881 26.6368 6.77431 26.5699 6.7868L24.9492 7.09327C24.834 7.11504 24.728 7.17103 24.6451 7.25395C24.5621 7.33687 24.5062 7.44285 24.4844 7.55808L24.1779 9.17877C24.1654 9.24566 24.1299 9.30608 24.0776 9.34955C24.0252 9.39303 23.9593 9.41683 23.8913 9.41683C23.8232 9.41683 23.7573 9.39303 23.705 9.34955C23.6526 9.30608 23.6171 9.24566 23.6046 9.17877L23.2982 7.55808C23.2764 7.44285 23.2204 7.33687 23.1375 7.25395C23.0546 7.17103 22.9486 7.11504 22.8334 7.09327L21.2127 6.7868C21.1458 6.77431 21.0854 6.73881 21.0419 6.68647C20.9984 6.63412 20.9746 6.56821 20.9746 6.50016C20.9746 6.43212 20.9984 6.36621 21.0419 6.31386C21.0854 6.26151 21.1458 6.22602 21.2127 6.21352L22.8334 5.90706C22.9486 5.88529 23.0546 5.82929 23.1375 5.74638C23.2204 5.66346 23.2764 5.55747 23.2982 5.44225L23.6046 3.82155Z" stroke="#09760A" stroke-width="0.5" stroke-linecap="round" stroke-linejoin="round"/>
<path opacity="0.5" d="M23.6046 20.0716C23.6171 20.0047 23.6526 19.9442 23.705 19.9008C23.7573 19.8573 23.8232 19.8335 23.8913 19.8335C23.9593 19.8335 24.0252 19.8573 24.0776 19.9008C24.1299 19.9442 24.1654 20.0047 24.1779 20.0716L24.4844 21.6922C24.5062 21.8075 24.5621 21.9135 24.6451 21.9964C24.728 22.0793 24.834 22.1353 24.9492 22.1571L26.5699 22.4635C26.6368 22.476 26.6972 22.5115 26.7407 22.5639C26.7841 22.6162 26.8079 22.6821 26.8079 22.7502C26.8079 22.8182 26.7841 22.8841 26.7407 22.9365C26.6972 22.9888 26.6368 23.0243 26.5699 23.0368L24.9492 23.3433C24.834 23.365 24.728 23.421 24.6451 23.5039C24.5621 23.5869 24.5062 23.6929 24.4844 23.8081L24.1779 25.4288C24.1654 25.4957 24.1299 25.5561 24.0776 25.5996C24.0252 25.643 23.9593 25.6668 23.8913 25.6668C23.8232 25.6668 23.7573 25.643 23.705 25.5996C23.6526 25.5561 23.6171 25.4957 23.6046 25.4288L23.2982 23.8081C23.2764 23.6929 23.2204 23.5869 23.1375 23.5039C23.0546 23.421 22.9486 23.365 22.8334 23.3433L21.2127 23.0368C21.1458 23.0243 21.0854 22.9888 21.0419 22.9365C20.9984 22.8841 20.9746 22.8182 20.9746 22.7502C20.9746 22.6821 20.9984 22.6162 21.0419 22.5639C21.0854 22.5115 21.1458 22.476 21.2127 22.4635L22.8334 22.1571C22.9486 22.1353 23.0546 22.0793 23.1375 21.9964C23.2204 21.9135 23.2764 21.8075 23.2982 21.6922L23.6046 20.0716Z" stroke="#09760A" stroke-width="0.5" stroke-linecap="round" stroke-linejoin="round"/>
</svg>
