<svg width="24" height="25" viewBox="0 0 24 25" fill="none" xmlns="http://www.w3.org/2000/svg">
<path d="M24 12.3222C24 18.5454 19.5071 23.6901 13.6709 24.5252C13.125 24.6033 12.5666 24.6437 12 24.6437C11.3456 24.6437 10.7037 24.5898 10.0776 24.4862C4.36439 23.5418 0 18.4546 0 12.3215C0 5.51651 5.37256 0 12 0C18.6274 0 24 5.51651 24 12.3215V12.3222Z" fill="#007EBB"/>
<path d="M5.83894 8.16089C5.519 7.85579 5.35938 7.47833 5.35938 7.02921C5.35938 6.58008 5.519 6.18559 5.83894 5.88049C6.15887 5.5754 6.57071 5.42285 7.07583 5.42285C7.58096 5.42285 7.97621 5.5754 8.29546 5.88049C8.61539 6.18559 8.77502 6.56873 8.77502 7.02921C8.77502 7.48969 8.61539 7.85579 8.29546 8.16089C7.97552 8.46598 7.56921 8.61852 7.07583 8.61852C6.58245 8.61852 6.15887 8.46598 5.83894 8.16089ZM8.50553 9.91056V19.2599H5.62887V9.91056H8.50553Z" fill="#FEFFFC"/>
<path d="M18.0831 10.8334C18.7098 11.5323 19.0235 12.4922 19.0235 13.714V19.095H16.2906V14.0936C16.2906 13.4778 16.1351 12.9988 15.8242 12.6576C15.5132 12.3163 15.0952 12.146 14.57 12.146C14.0448 12.146 13.6268 12.317 13.3158 12.6576C13.0049 12.9988 12.8494 13.4778 12.8494 14.0936V19.095H10.1006V9.88476H12.8494V11.1065C13.1279 10.6993 13.5031 10.3779 13.9751 10.1409C14.4463 9.90462 14.977 9.78613 15.5664 9.78613C16.6168 9.78613 17.4556 10.1359 18.0824 10.8341L18.0831 10.8334Z" fill="#FEFFFC"/>
</svg>
