<svg width="32" height="32" viewBox="0 0 32 32" fill="none" xmlns="http://www.w3.org/2000/svg">
<path d="M23.7472 7.31984V8.3065L19.0272 5.57317C17.2406 4.5465 14.7472 4.5465 12.9739 5.57317L8.25391 8.31984V7.31984C8.25391 4.31984 9.89391 2.6665 12.8939 2.6665H19.1072C22.1072 2.6665 23.7472 4.31984 23.7472 7.31984Z" fill="#0D0D0D"/>
<path d="M23.7865 10.6265L23.5998 10.5332L21.7865 9.49316L18.0265 7.31982C16.8798 6.65316 15.1198 6.65316 13.9732 7.31982L10.2132 9.47982L8.39984 10.5465L8.15984 10.6665C5.8265 12.2398 5.6665 12.5332 5.6665 15.0532V21.0798C5.6665 23.5998 5.8265 23.8932 8.21317 25.5065L13.9732 28.8265C14.5465 29.1732 15.2665 29.3198 15.9998 29.3198C16.7198 29.3198 17.4532 29.1598 18.0265 28.8265L23.8398 25.4665C26.1865 23.8932 26.3332 23.6132 26.3332 21.0798V15.0532C26.3332 12.5332 26.1732 12.2398 23.7865 10.6265ZM19.7198 17.9998L18.9065 18.9998C18.7732 19.1465 18.6798 19.4265 18.6932 19.6265L18.7732 20.9065C18.8265 21.6932 18.2665 22.0932 17.5332 21.8132L16.3465 21.3332C16.1598 21.2665 15.8532 21.2665 15.6665 21.3332L14.4798 21.7998C13.7465 22.0932 13.1865 21.6798 13.2398 20.8932L13.3198 19.6132C13.3332 19.4132 13.2398 19.1332 13.1065 18.9865L12.2798 17.9998C11.7732 17.3998 11.9998 16.7332 12.7598 16.5332L13.9998 16.2132C14.1998 16.1598 14.4265 15.9732 14.5332 15.8132L15.2265 14.7465C15.6532 14.0798 16.3332 14.0798 16.7732 14.7465L17.4665 15.8132C17.5732 15.9865 17.8132 16.1598 17.9998 16.2132L19.2398 16.5332C19.9998 16.7332 20.2265 17.3998 19.7198 17.9998Z" fill="#0D0D0D"/>
</svg>
