<svg width="112" height="112" viewBox="0 0 112 112" fill="none" xmlns="http://www.w3.org/2000/svg">
<g clip-path="url(#clip0_1634_118176)">
<path d="M112 56C112 25.0721 86.9279 0 56 0C25.0721 0 0 25.0721 0 56C0 86.9279 25.0721 112 56 112C86.9279 112 112 86.9279 112 56Z" fill="#09760A"/>
<path d="M82.5758 71.0203C82.5433 71.0203 82.5122 71.0075 82.4891 70.9847C82.4661 70.9618 82.453 70.9308 82.4528 70.8984V13.5434H49.4388C49.4217 13.5449 49.4046 13.5429 49.3884 13.5374C49.3722 13.532 49.3573 13.5232 49.3447 13.5117C49.3321 13.5001 49.322 13.4861 49.3151 13.4705C49.3082 13.4548 49.3047 13.4379 49.3047 13.4209C49.3047 13.4038 49.3082 13.3869 49.3151 13.3712C49.322 13.3556 49.3321 13.3416 49.3447 13.33C49.3573 13.3185 49.3722 13.3097 49.3884 13.3043C49.4046 13.2988 49.4217 13.2968 49.4388 13.2984H82.5758C82.6082 13.2984 82.6394 13.3112 82.6624 13.334C82.6854 13.3569 82.6985 13.3879 82.6988 13.4204V70.8984C82.6989 70.9145 82.6958 70.9306 82.6897 70.9456C82.6835 70.9606 82.6745 70.9742 82.663 70.9856C82.6516 70.9971 82.638 71.0061 82.623 71.0123C82.608 71.0184 82.592 71.0215 82.5758 71.0214V71.0203Z" fill="black"/>
<path d="M88.975 42.0246C88.762 39.5776 87.114 37.5116 85.426 35.7246C81.766 31.8416 77.569 28.4956 73.127 25.5406C71.837 24.6806 70.484 23.8376 68.975 23.4806C67.466 23.1226 65.734 23.3176 64.572 24.3506C63.197 25.5746 62.934 27.6186 63.052 29.4506C63.387 34.7296 66.292 39.7846 70.685 42.7336C74.065 45.0016 78.235 45.9686 82.269 45.5546C85.18 45.2586 89.394 46.7116 88.975 42.0246Z" fill="black"/>
<path d="M65.1811 55.3916L58.6991 52.3526L42.9741 50.1746C36.3411 49.2526 31.5861 56.4026 35.0001 62.1616L44.7681 78.6506V68.8416H54.8711L49.4401 62.0276C49.4401 62.0276 67.1601 62.4516 65.1811 55.3916Z" fill="white"/>
<path d="M68.2601 56.6756L58.6991 52.3526L42.9741 50.1746C36.3411 49.2526 31.5861 56.4026 35.0001 62.1616L41.9181 73.8416V69.1716H55.1341L49.4401 62.0276C49.4401 62.0276 70.2381 63.7366 68.2601 56.6756Z" fill="#0A3463"/>
<path d="M66.768 57.4925L53.385 57.1575C50.2343 57.0775 47.1307 57.9346 44.4675 59.6201C41.8043 61.3056 39.7013 63.7437 38.425 66.6255C34.14 76.2945 27.458 90.4805 22.73 96.2905C22.171 96.9715 22.736 97.9825 23.607 97.8705L36.979 96.1175C38.0442 95.9776 39.0622 95.5918 39.9526 94.9906C40.843 94.3893 41.5812 93.5892 42.109 92.6535L54.403 70.8755C54.403 70.8755 79.023 72.0655 76.844 67.1945C74.664 62.3235 66.769 57.4915 66.769 57.4915L66.768 57.4925Z" fill="white"/>
<path d="M23.4718 98.0002C23.2647 98.0001 23.0619 97.9411 22.8872 97.8301C22.7124 97.719 22.5729 97.5604 22.485 97.3729C22.397 97.1854 22.3643 96.9768 22.3907 96.7714C22.4171 96.566 22.5014 96.3724 22.6338 96.2131C23.5218 95.1181 24.5338 93.6602 25.6338 91.8782C25.6422 91.8645 25.6532 91.8526 25.6662 91.8432C25.6792 91.8338 25.6939 91.827 25.7095 91.8233C25.7251 91.8196 25.7413 91.819 25.7571 91.8215C25.773 91.8241 25.7882 91.8297 25.8018 91.8381C25.8159 91.8462 25.8283 91.857 25.8382 91.8699C25.8481 91.8828 25.8554 91.8975 25.8596 91.9133C25.8638 91.929 25.8648 91.9454 25.8626 91.9615C25.8604 91.9776 25.855 91.9931 25.8468 92.0072C24.7348 93.7992 23.7168 95.2632 22.8238 96.3692C22.7166 96.5008 22.6514 96.6615 22.6363 96.8306C22.6213 96.9997 22.6573 97.1694 22.7396 97.3179C22.8219 97.4663 22.9468 97.5868 23.0981 97.6636C23.2495 97.7405 23.4204 97.7703 23.5888 97.7492L36.9608 95.9952C38.0068 95.8567 39.0065 95.4774 39.881 94.887C40.7556 94.2967 41.4812 93.5115 42.0008 92.5932L42.4038 91.8832C42.4097 91.8665 42.4193 91.8513 42.4317 91.8386C42.4441 91.826 42.4592 91.8163 42.4758 91.8101C42.5008 91.8011 42.528 91.8003 42.5534 91.808C42.5789 91.8157 42.6011 91.8314 42.6169 91.8528C42.6327 91.8742 42.6411 91.9001 42.6409 91.9266C42.6407 91.9532 42.6319 91.979 42.6158 92.0002L42.2138 92.7162C41.6745 93.6665 40.9227 94.4792 40.0171 95.0907C39.1116 95.7022 38.0768 96.096 36.9938 96.2411L23.6228 97.9942L23.4718 98.0002Z" fill="black"/>
<path d="M40.353 91.6377C39.297 91.7327 38.236 91.8157 37.173 91.8777C36.113 91.9387 35.05 91.9447 33.983 91.9387C31.849 91.9337 29.714 91.9117 27.585 91.8167C27.015 91.7907 26.445 91.7567 25.875 91.7157C30.122 84.8007 35.028 74.2877 38.425 66.6247C39.7002 63.7421 41.803 61.3033 44.4664 59.6176C47.1299 57.9319 50.234 57.0754 53.385 57.1567L66.768 57.4917C66.768 57.4917 74.664 62.3177 76.843 67.1947C79.023 72.0707 54.402 70.8747 54.402 70.8747L42.807 91.4197L40.353 91.6377Z" fill="#0A3463"/>
<path d="M38.4248 66.7476L38.3748 66.7366C38.3451 66.7233 38.322 66.6987 38.3104 66.6684C38.2988 66.638 38.2996 66.6043 38.3128 66.5746C39.5925 63.6655 41.7105 61.2039 44.396 59.5045C47.0816 57.805 50.2129 56.9447 53.3898 57.0336L65.0798 57.3236C65.1125 57.3263 65.1432 57.3409 65.1659 57.3647C65.1885 57.3885 65.2017 57.4198 65.2028 57.4526C65.2021 57.4687 65.1982 57.4845 65.1914 57.4991C65.1845 57.5137 65.1748 57.5268 65.1628 57.5376C65.1385 57.5596 65.1065 57.5711 65.0738 57.5696L53.3838 57.2796C50.2557 57.1938 47.173 58.0415 44.5287 59.7148C41.8845 61.3881 39.7985 63.811 38.5368 66.6746C38.5267 66.6959 38.5108 66.714 38.4911 66.7269C38.4713 66.7398 38.4484 66.7469 38.4248 66.7476ZM49.4388 71.0196C49.4218 71.0211 49.4046 71.0191 49.3884 71.0137C49.3722 71.0082 49.3574 70.9994 49.3447 70.9879C49.3321 70.9764 49.3221 70.9624 49.3152 70.9467C49.3083 70.9311 49.3047 70.9142 49.3047 70.8971C49.3047 70.88 49.3083 70.8631 49.3152 70.8475C49.3221 70.8318 49.3321 70.8178 49.3447 70.8063C49.3574 70.7948 49.3722 70.786 49.3884 70.7805C49.4046 70.7751 49.4218 70.7731 49.4388 70.7746L53.7298 70.7576C53.7624 70.7576 53.7937 70.7706 53.8168 70.7936C53.8398 70.8167 53.8528 70.848 53.8528 70.8806C53.8528 70.9132 53.8398 70.9445 53.8168 70.9676C53.7937 70.9906 53.7624 71.0036 53.7298 71.0036L49.4388 71.0206V71.0196Z" fill="black"/>
<path d="M58.6992 52.3525L65.5832 57.3745C65.5832 57.3745 72.4842 63.5855 73.0042 70.1265C73.0042 70.1265 86.4042 68.7025 82.6822 53.9055L65.7062 53.4195L58.6992 52.3525Z" fill="#0A3463"/>
<path d="M81.0561 55.5702L76.0501 35.4122C76.0501 35.4122 66.8011 35.2282 63.5551 35.9602C63.5551 35.9602 63.1921 52.3322 63.0241 55.5712L81.0561 55.5702ZM57.5591 52.1302C57.5591 52.1302 60.2741 35.8022 63.5541 35.9592L63.0241 52.1292L57.5591 52.1302Z" fill="white"/>
<path d="M63.0239 52.2532H57.5589C57.5406 52.2535 57.5226 52.2496 57.5061 52.2418C57.4896 52.234 57.4751 52.2225 57.4639 52.2082C57.4525 52.1943 57.4442 52.1783 57.4393 52.1611C57.4345 52.1439 57.4333 52.1259 57.4359 52.1082C57.4409 52.0682 58.1289 47.9742 59.2069 43.9522C60.6709 38.5002 62.1299 35.7692 63.5599 35.8362C63.5921 35.8389 63.6222 35.8537 63.644 35.8776C63.6659 35.9015 63.678 35.9328 63.6779 35.9652L63.1469 52.1352C63.1468 52.159 63.1395 52.1823 63.1259 52.202C63.1124 52.2216 63.0932 52.2367 63.0709 52.2452C63.0559 52.251 63.0399 52.2537 63.0239 52.2532ZM57.7039 52.0072H62.9069L63.4269 36.0872C62.1799 36.1992 60.8109 38.9302 59.4469 44.0142C58.4809 47.6052 57.8329 51.2472 57.7039 52.0072Z" fill="black"/>
<path d="M44.1419 52.7001H69.2089V51.9451C69.2089 51.7874 69.1778 51.6313 69.1174 51.4857C69.0571 51.34 68.9686 51.2077 68.8571 51.0962C68.7455 50.9848 68.6131 50.8964 68.4674 50.8362C68.3217 50.7759 68.1656 50.745 68.0079 50.7451H42.3799L42.5819 51.5051C42.6743 51.8479 42.8771 52.1506 43.1589 52.3665C43.4407 52.5823 43.7859 52.6993 44.1409 52.6991L44.1419 52.7001Z" fill="black"/>
<path d="M43.4269 51.8108H58.5539C58.7043 51.8111 58.8528 51.777 58.988 51.7112C59.1233 51.6454 59.2417 51.5496 59.3343 51.431C59.4269 51.3125 59.4912 51.1744 59.5223 51.0272C59.5534 50.88 59.5505 50.7277 59.5139 50.5818L56.6599 39.0528C56.6054 38.8377 56.481 38.6468 56.306 38.5103C56.1311 38.3738 55.9157 38.2994 55.6939 38.2988H40.5659C40.4151 38.2993 40.2664 38.3341 40.1311 38.4006C39.9957 38.467 39.8773 38.5634 39.7847 38.6824C39.6921 38.8014 39.6278 38.9399 39.5967 39.0874C39.5655 39.2349 39.5683 39.3876 39.6049 39.5338L42.4599 51.0568C42.5137 51.2724 42.6381 51.4638 42.8134 51.6005C42.9887 51.7371 43.2046 51.8112 43.4269 51.8108Z" fill="black"/>
<path d="M48.0601 42.7461C48.0565 42.8139 48.0666 42.8817 48.0899 42.9455C48.1132 43.0093 48.1491 43.0676 48.1956 43.1172C48.2421 43.1667 48.2981 43.2062 48.3602 43.2335C48.4224 43.2608 48.4895 43.2752 48.5574 43.2759C48.6253 43.2766 48.6926 43.2635 48.7553 43.2375C48.818 43.2114 48.8748 43.173 48.9222 43.1244C48.9696 43.0758 49.0068 43.0181 49.0313 42.9548C49.0559 42.8915 49.0674 42.8239 49.0651 42.7561C49.0657 42.69 49.0534 42.6245 49.0287 42.5632C49.004 42.5019 48.9675 42.4461 48.9213 42.3989C48.8751 42.3518 48.82 42.3142 48.7592 42.2883C48.6984 42.2624 48.6331 42.2487 48.5671 42.2481C48.501 42.2474 48.4355 42.2598 48.3742 42.2844C48.3129 42.3091 48.2571 42.3456 48.2099 42.3919C48.1628 42.4381 48.1252 42.4932 48.0993 42.554C48.0734 42.6147 48.0597 42.68 48.0591 42.7461H48.0601Z" fill="#FF00CF"/>
<path d="M64.1069 50.7442C64.1069 50.7442 66.8669 46.0142 70.6399 47.4152C74.4119 48.8172 79.7819 52.1692 79.7819 52.1692C79.7819 52.1692 74.8199 38.7022 76.0489 35.4102C76.0489 35.4102 82.5479 37.3662 85.5539 47.0742C88.5609 56.7822 84.0789 60.0832 80.8939 60.1442C77.7089 60.2062 69.7399 51.8102 68.4829 51.8102L64.1069 50.7442Z" fill="white"/>
<path d="M80.8671 60.2676C78.8491 60.2676 75.1501 57.1626 72.1721 54.6596C70.5011 53.2576 68.9201 51.9336 68.4841 51.9336H68.4561L64.0801 50.8616C64.0613 50.8568 64.0439 50.8478 64.0293 50.8351C64.0147 50.8224 64.0033 50.8065 63.9961 50.7886C63.9884 50.7707 63.985 50.7513 63.986 50.7319C63.9871 50.7124 63.9925 50.6935 64.0021 50.6766C64.0301 50.6326 66.8631 45.8786 70.6851 47.2976C73.9101 48.4976 78.3581 51.1576 79.5481 51.8836C78.7771 49.7386 74.7981 38.4106 75.9381 35.3716C75.9483 35.3429 75.9688 35.3191 75.9956 35.3047C76.0224 35.2903 76.0535 35.2863 76.0831 35.2936C76.1561 35.3166 77.7601 35.8076 79.7551 37.5056C81.5931 39.0696 84.1131 41.9916 85.6721 47.0406C87.5161 53.0006 86.4601 56.2456 85.2531 57.9216C84.2081 59.3576 82.5831 60.2346 80.9001 60.2676H80.8671ZM68.5001 51.6876C69.0141 51.7106 70.2331 52.7156 72.3281 54.4756C75.1391 56.8266 78.9841 60.0556 80.8951 60.0216C82.5041 59.9886 84.0571 59.1506 85.0521 57.7766C86.2321 56.1456 87.2541 52.9786 85.4381 47.1136C82.6991 38.2706 77.0001 35.8856 76.1281 35.5676C75.0781 38.9636 79.8501 51.9956 79.9001 52.1296C79.9084 52.1542 79.909 52.1808 79.9019 52.2058C79.8948 52.2308 79.8802 52.253 79.8601 52.2696C79.8398 52.2837 79.816 52.2917 79.7913 52.2926C79.7666 52.2935 79.7422 52.2872 79.7211 52.2746C79.6651 52.2406 74.3111 48.9066 70.5961 47.5266C67.3321 46.3206 64.8011 49.8946 64.3041 50.6606L68.5001 51.6876Z" fill="black"/>
<path d="M67.5001 51.2577H67.4601C67.4369 51.2501 67.4165 51.2358 67.4015 51.2166C67.3865 51.1973 67.3777 51.174 67.3761 51.1497C67.3749 51.1335 67.377 51.1171 67.3821 51.1017C67.5174 50.7214 67.7282 50.3724 68.002 50.0757C68.2758 49.7791 68.6068 49.541 68.9751 49.3757C68.9901 49.3693 69.0062 49.366 69.0226 49.3659C69.0389 49.3659 69.055 49.369 69.0701 49.3753C69.0852 49.3815 69.0989 49.3907 69.1104 49.4023C69.1219 49.4138 69.131 49.4276 69.1371 49.4427C69.1503 49.4723 69.1513 49.5059 69.1399 49.5362C69.1285 49.5666 69.1055 49.5912 69.0761 49.6047C68.7382 49.7537 68.4345 49.9703 68.1836 50.2412C67.9326 50.5121 67.7399 50.8315 67.6171 51.1797C67.6074 51.2028 67.5912 51.2225 67.5704 51.2364C67.5496 51.2502 67.5251 51.2577 67.5001 51.2577ZM66.1251 50.9787H66.0921C66.0759 50.9745 66.0608 50.967 66.0478 50.9567C66.0347 50.9464 66.0239 50.9334 66.0161 50.9187C66.0084 50.904 66.0038 50.888 66.0024 50.8715C66.001 50.855 66.0029 50.8384 66.0081 50.8227C66.1488 50.3652 66.3828 49.9418 66.6953 49.5793C67.0079 49.2169 67.3922 48.9231 67.8241 48.7167C67.8531 48.7031 67.8862 48.7014 67.9164 48.7118C67.9467 48.7223 67.9717 48.7441 67.9861 48.7727C67.9993 48.803 68.0003 48.8373 67.9889 48.8684C67.9776 48.8995 67.9547 48.925 67.9251 48.9397C67.5243 49.1308 67.1677 49.4034 66.8781 49.74C66.5885 50.0766 66.3723 50.4699 66.2431 50.8947C66.235 50.9195 66.2191 50.941 66.1979 50.9561C66.1767 50.9712 66.1511 50.9791 66.1251 50.9787Z" fill="black"/>
<path d="M69.2099 52.7001V51.9451C69.2099 51.7874 69.1788 51.6312 69.1184 51.4854C69.058 51.3397 68.9694 51.2073 68.8577 51.0959C68.7461 50.9844 68.6136 50.8961 68.4678 50.8359C68.3219 50.7757 68.1657 50.7449 68.0079 50.7451H63.0239L69.2099 52.7001Z" fill="black"/>
<path d="M70.2599 29.9375L72.4339 35.4445C72.4339 35.4445 71.2159 37.0535 68.4829 37.4165C65.7499 37.7795 68.0749 35.5005 68.0749 35.5005L66.7559 31.7245L70.2599 29.9375Z" fill="white"/>
<path d="M67.9579 37.579C67.4829 37.579 67.1979 37.462 67.0809 37.227C66.8119 36.674 67.6789 35.724 67.9359 35.467L66.6389 31.764C66.6293 31.7357 66.6302 31.7049 66.6417 31.6773C66.6531 31.6497 66.6741 31.6272 66.7009 31.614L70.2039 29.831C70.2194 29.823 70.2364 29.8184 70.2539 29.8175C70.2713 29.8167 70.2887 29.8196 70.3049 29.826C70.3207 29.8307 70.3352 29.8394 70.3468 29.851C70.3585 29.8627 70.3671 29.8772 70.3719 29.893L72.5459 35.4C72.5546 35.4192 72.5576 35.4406 72.5546 35.4615C72.5516 35.4824 72.5427 35.502 72.5289 35.518C72.4789 35.585 71.2489 37.171 68.4999 37.54C68.3199 37.565 68.1399 37.578 67.9579 37.579ZM66.9079 31.786L68.1929 35.456C68.2004 35.4785 68.2011 35.5026 68.1951 35.5255C68.1891 35.5485 68.1765 35.5691 68.1589 35.585C67.7399 35.998 67.1369 36.78 67.3039 37.115C67.3989 37.322 67.8129 37.383 68.4659 37.294C70.8409 36.981 72.0539 35.696 72.2939 35.423L70.1939 30.111L66.9079 31.786Z" fill="black"/>
<path d="M64.035 29.4957C64.119 30.3337 64.354 31.1717 64.835 31.8587C65.315 32.5457 66.08 33.0587 66.919 33.1387C67.645 33.1987 68.377 32.9257 68.947 32.4727C69.517 32.0207 69.937 31.3947 70.232 30.7307C70.998 30.7807 71.758 30.2557 71.982 29.5237C72.11 29.1047 72.054 28.6077 71.758 28.2837C71.462 27.9597 70.908 27.8707 70.573 28.1607C70.389 28.3287 70.288 28.5807 70.093 28.7357C69.897 28.8927 69.562 28.9317 69.299 28.8477C69.036 28.7637 68.807 28.5797 68.612 28.3787C67.9928 27.7406 67.6274 26.8988 67.584 26.0107C67.589 26.0937 67.204 26.3287 67.136 26.3737C66.9707 26.4901 66.7949 26.5909 66.611 26.6747C66.243 26.8417 65.851 26.9497 65.449 26.9937C65.2464 27.0167 65.0422 27.0201 64.839 27.0037C64.678 26.9937 64.449 26.9097 64.292 26.9537C63.962 27.0437 64.035 27.6637 64.024 27.9207C63.989 28.4457 63.992 28.9717 64.035 29.4957Z" fill="white"/>
<path d="M67.1301 33.2667H66.9071C66.0861 33.1937 65.2761 32.6967 64.7391 31.9317C64.2811 31.2947 64.0071 30.4787 63.9121 29.5117C63.8712 28.9803 63.8676 28.4467 63.9011 27.9147V27.7647C63.9011 27.4347 63.8951 26.9377 64.2591 26.8427C64.3871 26.8027 64.5441 26.8367 64.6781 26.8597C64.7324 26.8756 64.7885 26.885 64.8451 26.8877C65.0431 26.9027 65.2411 26.8997 65.4381 26.8757C65.8251 26.8357 66.2021 26.7327 66.5551 26.5687C66.7351 26.4877 66.9071 26.3907 67.0691 26.2787L67.1141 26.2507C67.3541 26.0937 67.4381 26.0207 67.4601 25.9877C67.4679 25.9618 67.4833 25.9389 67.5044 25.922C67.5254 25.905 67.5511 25.8948 67.5781 25.8927C67.5943 25.8919 67.6104 25.8944 67.6257 25.8999C67.6409 25.9054 67.6549 25.9139 67.6668 25.9249C67.6787 25.9359 67.6883 25.9491 67.6951 25.9639C67.7018 25.9786 67.7056 25.9945 67.7061 26.0107C67.7504 26.8692 68.1038 27.6826 68.7011 28.3007C68.9251 28.5297 69.1261 28.6697 69.3381 28.7367C69.4505 28.7783 69.5714 28.7919 69.6902 28.7762C69.8091 28.7605 69.9223 28.7161 70.0201 28.6467C70.1061 28.5657 70.1801 28.4737 70.2431 28.3727C70.3161 28.2637 70.4001 28.1627 70.4951 28.0717C70.8641 27.7527 71.4951 27.8147 71.8531 28.2057C72.2101 28.5957 72.2501 29.0657 72.0991 29.5687C71.9754 29.9457 71.7359 30.2739 71.4146 30.5066C71.0933 30.7394 70.7068 30.8647 70.3101 30.8647C69.9801 31.5847 69.5451 32.1607 69.0251 32.5737C68.5051 32.9867 67.7781 33.2667 67.1301 33.2667ZM64.1581 29.4847C64.2481 30.4067 64.5101 31.1827 64.9351 31.7857C65.4321 32.4897 66.1811 32.9477 66.9301 33.0157C67.5831 33.0707 68.2931 32.8417 68.8741 32.3777C69.4561 31.9147 69.8021 31.4007 70.1201 30.6797C70.1323 30.6578 70.1501 30.6396 70.1717 30.6269C70.1934 30.6142 70.218 30.6076 70.2431 30.6077C70.9421 30.6517 71.6571 30.1607 71.8631 29.4907C71.9871 29.0767 71.9141 28.6357 71.6681 28.3677C71.4221 28.0997 70.9191 28.0217 70.6571 28.2557C70.5752 28.3315 70.5039 28.4179 70.4451 28.5127C70.3711 28.6327 70.2781 28.7397 70.1711 28.8307C69.9361 29.0207 69.5901 29.0707 69.2601 28.9647C68.9301 28.8587 68.7801 28.7247 68.5221 28.4627C67.9511 27.8689 67.5864 27.1069 67.4821 26.2897L67.2481 26.4517L67.2091 26.4737C67.0361 26.5937 66.8531 26.6987 66.6621 26.7867C66.2836 26.96 65.8798 27.0714 65.4661 27.1167C65.2561 27.1397 65.0451 27.1437 64.8341 27.1267L64.6271 27.0997C64.5211 27.0767 64.3981 27.0547 64.3261 27.0717C64.1461 27.1217 64.1461 27.5187 64.1461 27.7587V27.9267C64.1131 28.4457 64.1171 28.9667 64.1581 29.4847Z" fill="black"/>
<path d="M70.26 30.0603H70.238C70.2063 30.0546 70.1781 30.0368 70.1594 30.0107C70.1407 29.9845 70.1331 29.952 70.138 29.9203C70.1773 29.6978 70.2807 29.4916 70.4354 29.327C70.5901 29.1624 70.7894 29.0464 71.009 28.9933C71.0245 28.9891 71.0407 28.9882 71.0566 28.9905C71.0725 28.9928 71.0877 28.9984 71.1014 29.0068C71.115 29.0152 71.1269 29.0264 71.1361 29.0395C71.1453 29.0527 71.1517 29.0675 71.155 29.0833C71.1632 29.1151 71.1585 29.1489 71.142 29.1773C71.1336 29.1914 71.1224 29.2037 71.1092 29.2135C71.096 29.2233 71.081 29.2303 71.065 29.2343C70.893 29.2756 70.7369 29.3663 70.6159 29.4954C70.4948 29.6244 70.4142 29.786 70.384 29.9603C70.3786 29.9888 70.3633 30.0144 70.3408 30.0327C70.3182 30.051 70.289 30.0608 70.26 30.0603ZM82.576 71.0203H69.596C69.579 71.0218 69.5618 71.0198 69.5456 71.0143C69.5294 71.0089 69.5146 71.0001 69.5019 70.9886C69.4893 70.977 69.4793 70.963 69.4724 70.9474C69.4655 70.9317 69.4619 70.9148 69.4619 70.8978C69.4619 70.8807 69.4655 70.8638 69.4724 70.8481C69.4793 70.8325 69.4893 70.8185 69.5019 70.807C69.5146 70.7954 69.5294 70.7867 69.5456 70.7812C69.5618 70.7757 69.579 70.7737 69.596 70.7753H82.576C82.6086 70.7753 82.6399 70.7882 82.663 70.8113C82.686 70.8344 82.699 70.8656 82.699 70.8983C82.699 70.9309 82.686 70.9622 82.663 70.9852C82.6399 71.0083 82.6086 71.0213 82.576 71.0213V71.0203Z" fill="black"/>
</g>
<defs>
<clipPath id="clip0_1634_118176">
<rect width="112" height="112" fill="white"/>
</clipPath>
</defs>
</svg>
