<svg width="36" height="24" viewBox="0 0 36 24" fill="none" xmlns="http://www.w3.org/2000/svg">
<g clip-path="url(#clip0_1_7984)">
<path d="M0 0H36V24H0V0Z" fill="#006C35"/>
<path d="M23.2639 17.8403H22.7639C22.7083 17.9132 22.6215 18 22.5729 18C22.5139 18 22.3542 17.8368 22.3542 17.7778C22.3542 17.7326 22.4306 17.6458 22.5 17.5903V17.4549H13.4375C12.2431 17.4549 11.6493 17.4444 11.25 17.0451H22.5V16.9097C22.434 16.8576 22.3542 16.7674 22.3542 16.7222C22.3542 16.6632 22.5139 16.5 22.5729 16.5C22.6319 16.5 22.7917 16.6632 22.7917 16.7222C22.7917 16.7674 22.7118 16.8576 22.6458 16.9097V17.0451H24.1736C24.5833 17.0451 24.75 17.0799 24.75 17.4549C24.75 17.8542 24.6424 17.9271 24.4722 17.9271C24.4132 17.9271 24.316 17.9236 24.2431 17.8403H23.6493C23.6336 17.8658 23.6069 17.8875 23.5726 17.9029C23.5383 17.9182 23.4979 17.9264 23.4566 17.9264C23.4153 17.9264 23.3749 17.9182 23.3406 17.9029C23.3063 17.8875 23.2796 17.8658 23.2639 17.8403ZM23.6493 17.7153H24.1736C24.1458 17.6389 24.1458 17.559 24.1736 17.4549H22.6458V17.5903C22.684 17.6181 22.7361 17.6771 22.7639 17.7153H23.2639C23.2796 17.6898 23.3063 17.668 23.3406 17.6527C23.3749 17.6373 23.4153 17.6292 23.4566 17.6292C23.4979 17.6292 23.5383 17.6373 23.5726 17.6527C23.6069 17.668 23.6336 17.6898 23.6493 17.7153Z" fill="white"/>
<path d="M24.5139 11.4722C24.5486 11.5139 24.5694 11.5521 24.5104 11.6215C24.4549 11.6701 24.4167 11.6979 24.3576 11.7465C24.3333 11.7882 24.316 11.8542 24.3958 11.875C24.5486 11.9167 24.8299 11.7361 24.8299 11.7326C24.8889 11.691 24.8681 11.6146 24.8646 11.6146C24.8299 11.5799 24.7569 11.6007 24.7083 11.5938C24.684 11.5938 24.6701 11.5486 24.7049 11.4826C24.7361 11.441 24.75 11.4167 24.7708 11.3681C24.7917 11.3194 24.7708 11.2847 24.6875 11.2569C24.6007 11.2431 24.566 11.25 24.4722 11.2569C24.4201 11.2674 24.4028 11.2917 24.3924 11.3507C24.3958 11.441 24.4549 11.434 24.5139 11.4722ZM23.8542 9.32639C23.8056 9.39236 23.7708 9.44444 23.8646 9.49653C23.9618 9.54514 24.1076 9.68056 24.0451 9.83333C24.0104 9.95139 24.0451 10.0451 24.1528 9.875C24.2639 9.69792 24.1771 9.48611 24.0694 9.35069C23.9757 9.23264 23.9132 9.25694 23.8542 9.32639ZM26.7778 6.90278C26.9097 7.01736 26.9826 6.98264 26.8993 6.78819C26.8021 6.59375 26.7083 6.38889 26.6215 6.20486C26.5278 6.01042 26.5035 6.05556 26.3958 6.19444C26.2743 6.32986 26.2639 6.43403 26.309 6.51389C26.5382 8.32986 26.6458 9.27778 26.6701 9.82639C26.7187 10.625 26.5139 11.0729 25.6979 11.5868C25.434 11.7569 25.1354 11.9514 25.7708 11.8021C26.3646 11.6597 27 11.2847 27 9.85069C27 8.77083 26.75 7.61458 26.7778 6.90278ZM25.8056 6.53472C25.7326 6.64931 25.7465 6.67361 25.8299 6.79861C25.9132 6.9375 25.9861 7.1875 25.9861 7.38194C25.9861 7.57639 26.059 7.55208 26.0937 7.37153C26.1319 7.19792 26.1181 6.85764 26.0104 6.61806C25.9028 6.36458 25.8646 6.45486 25.8056 6.53472ZM26.5035 10.316C26.4792 10.1562 26.4306 9.99653 26.2153 9.69097C26 9.39236 25.8056 9.11806 25.6146 8.85417C25.5556 8.17014 25.4687 7.4375 25.4687 7.05208C25.566 7.14236 25.6389 7.05208 25.5903 6.90278C25.5417 6.75347 25.4444 6.35417 25.375 6.18403C25.3125 6.02083 25.2431 6.05556 25.1458 6.20486C25.0625 6.35417 25.0035 6.42361 25.0625 6.53472C25.0868 7.19792 25.1806 7.84028 25.2917 8.42014C25.0972 8.17014 24.9167 7.93056 24.75 7.71181C24.7396 7.46181 24.7153 7.21181 24.7014 6.95833C24.809 7.03819 24.8576 7.01736 24.7986 6.86806C24.75 6.70833 24.6181 6.375 24.559 6.22917C24.4965 6.07986 24.4618 6.07986 24.3785 6.19444C24.2465 6.38889 24.2083 6.52431 24.3194 6.70833C24.3299 6.86806 24.3542 7.03819 24.3646 7.1875C24.2569 7.05208 24.1632 6.91319 24.0764 6.78819C24.184 6.84375 24.2708 6.75347 24.1493 6.64931C24.0417 6.54861 23.8125 6.375 23.7187 6.25C23.6111 6.125 23.5139 6.125 23.5139 6.23958C23.5139 6.35417 23.5243 6.45486 23.5139 6.55903C23.4896 6.64931 23.4896 6.74306 23.6319 6.90278C23.9097 7.22222 24.1736 7.55208 24.4271 7.86111C24.5208 9.00347 24.5833 9.73611 24.559 10.191C24.5451 10.4653 24.4514 10.625 24.2951 10.6701C24.1389 10.7292 23.9826 10.625 23.8368 10.4201C23.5729 10.0556 23.4792 10.125 23.2743 10.4444C23.0799 10.7396 22.9479 10.9931 22.8403 11.2083C22.7465 11.4132 22.5764 11.5972 22.4201 11.3229C22.2778 11.0486 22.2535 10.7396 22.2639 10.5243C22.2639 10.3056 22.2292 10.1354 22.1458 10.4792C21.9306 11.3229 22.0625 11.5069 22.3021 11.6875C22.6007 11.941 22.6979 11.9618 22.8542 11.7465C23.1667 11.3333 23.25 10.9688 23.4306 10.7639C23.5729 10.6042 23.5729 10.7292 23.6458 10.809C23.8264 11.0243 23.9826 11.1042 24.2326 11.1389C24.4861 11.184 24.941 10.9792 24.9062 10.1806C24.8819 9.70139 24.8472 9.04861 24.7986 8.35417C25.0382 8.67361 25.2535 8.95833 25.4236 9.1875C25.5069 9.64236 25.5556 10.0556 25.5312 10.3854C25.5069 10.7639 25.5903 10.7639 25.6736 10.375C25.6979 10.2153 25.6979 9.88194 25.6632 9.48264C25.9861 9.89583 26.1771 10.1701 26.309 10.3646C26.4549 10.6042 26.5382 10.809 26.5035 10.316ZM23.2118 9.41667C23.2118 9.33681 23.25 9.3125 23.3924 9.19792C23.5139 9.10764 23.8507 8.87847 23.9583 8.77431C24.066 8.67361 24.1493 8.57986 24.1736 8.70833C24.184 8.83333 24.2083 8.87847 24.0764 8.94792C23.9444 9.00347 23.5972 9.20833 23.4896 9.28819C23.3681 9.38194 23.2118 9.49653 23.2118 9.41667ZM23.25 8.01042C23.2257 8.11458 23.0799 8.11458 23.0937 8C23.1042 7.88542 23.0937 7.90625 23.0937 7.81597C23.0799 7.72569 23.2014 7.66667 23.2604 7.74653C23.3333 7.82639 23.4549 8.07986 23.4896 8.17014C23.5382 8.26042 23.5625 8.23958 23.5625 8.11458C23.5486 7.96528 23.5243 7.82639 23.5382 7.72569C23.5486 7.66667 23.5868 7.59722 23.6562 7.54167C23.7431 7.48611 23.7882 7.47222 23.8264 7.57639C23.8507 7.66667 23.9201 7.67708 23.8854 7.76042C23.8368 7.87153 23.7292 7.64583 23.6562 7.80556C23.6215 7.92014 23.6562 8.23958 23.6458 8.35417C23.6458 8.45486 23.5972 8.60417 23.5139 8.43403C23.4549 8.31944 23.3681 8.125 23.25 8.01042ZM22.4201 7.08333C22.5903 7.16319 22.7708 7.21181 22.6389 7.01736C22.5035 6.83333 22.3958 6.52431 22.3264 6.29514C22.2396 6.06944 22.2187 6.07986 22.0833 6.27431C21.8819 6.56944 22.0625 6.85764 22.1076 7.19792C22.2778 8.42014 22.4444 9.66667 22.4931 9.99653C22.5417 10.3646 22.6007 10.6042 22.5035 11.0035C22.4687 11.1285 22.5174 11.1632 22.6007 11.0139C22.9375 10.4097 22.7083 9.88194 22.6736 9.54167C22.6146 9.01389 22.4201 7.62153 22.3854 7.0625M21.5937 7.02778C21.6875 7.10764 21.7986 7.10764 21.7361 6.9375C21.6771 6.76389 21.6285 6.55903 21.5694 6.36458C21.5104 6.17014 21.4722 6.125 21.3993 6.21528C21.316 6.31944 21.2569 6.35417 21.1979 6.42361C21.1354 6.47917 21.125 6.60417 21.1979 6.71875C21.4618 8.44444 21.4722 9.20833 21.5104 9.85069C21.5451 10.4896 21.6424 10.7847 21.2222 11.2188C20.7639 11.6875 20.4896 11.8021 20.2847 11.8472C20.0556 11.9097 19.9618 12 20.2083 12C21.0139 12 21.0937 11.7847 21.4236 11.4375C21.691 11.1562 21.8194 10.7986 21.7986 9.95139C21.7743 8.46528 21.5556 7.82639 21.5937 7.02778ZM18.5799 11.3924C18.7014 11.3229 18.7604 11.2674 18.8542 11.2326C18.9514 11.184 19.0243 11.1979 18.9514 11.3924C18.8785 11.6181 18.9167 11.6875 19.0729 11.6319C19.2153 11.5868 19.2986 11.5278 19.4201 11.4826C19.5278 11.4375 19.6493 11.4375 19.4792 11.5625C19.3472 11.6667 19.1562 11.8021 19.0486 11.8264C18.809 11.8819 18.6875 11.7917 18.7361 11.6076C18.7847 11.4375 18.8194 11.3681 18.6771 11.4271C18.5069 11.4931 18.5208 11.4271 18.5799 11.3924ZM20.5139 7.50694C20.559 7.64583 20.6215 7.71181 20.6562 7.54167C20.6806 7.39236 20.7292 7.34722 20.7535 7.50694C20.7882 7.66667 20.8854 7.64583 20.9097 7.49653C20.9444 7.34722 20.9931 7.26736 21.0174 7.42708C21.0417 7.59722 21.0278 7.65625 21.0035 7.71181C20.9931 7.76042 20.8958 7.81597 20.8229 7.74653C20.7396 7.67708 20.7153 7.67708 20.6562 7.73611C20.5243 7.85069 20.4757 7.77083 20.4514 7.61111C20.441 7.47222 20.4896 7.41667 20.5139 7.50694ZM21.316 10.3854C21.2083 9.87153 20.7153 9.04861 19.9826 7.97569C19.9618 7.69097 19.9479 7.42708 19.9479 7.1875C20.0556 7.30208 20.1285 7.23264 20.0937 7.08333C20.0208 6.82292 19.9132 6.60417 19.7812 6.30903C19.7326 6.18403 19.6007 6.14931 19.5417 6.32986C19.4549 6.54861 19.4444 6.59375 19.5521 6.74306C19.5417 6.90278 19.6007 7.17708 19.625 7.42708C19.4931 7.24306 19.3229 7.01736 19.191 6.82292C19.3958 6.90278 19.5174 6.84375 19.3368 6.66319C19.1562 6.46875 18.9028 6.27431 18.7465 6.13542C18.5903 6 18.5208 6.09028 18.5451 6.21528C18.5556 6.34375 18.5694 6.43403 18.5556 6.53472C18.5451 6.63889 18.5799 6.70833 18.7361 6.76389C19.0486 7.15278 19.3611 7.55208 19.6493 7.96528C19.684 8.30556 19.7569 8.68403 19.7917 8.99306C19.8889 9.72222 20.0312 10.6701 19.9132 11.0833C19.816 11.3924 19.9132 11.5278 20.0694 11.059C20.2118 10.5903 20.1979 10.1458 20.1042 9.44792C20.066 9.17708 20.0556 8.83333 20.0208 8.51389C20.5243 9.25347 20.9792 9.96181 21.184 10.4549C21.2917 10.7188 21.3889 10.7743 21.316 10.3854ZM20.4167 6.21528C20.3681 6.30903 20.3333 6.375 20.4271 6.44444C20.5243 6.51389 20.6701 6.69792 20.6076 6.90278C20.5729 7.0625 20.6076 7.1875 20.7153 6.95833C20.8229 6.71875 20.7396 6.43403 20.6319 6.25C20.5347 6.09028 20.4757 6.125 20.4167 6.21528ZM16.8646 8.70833C16.8403 8.86806 16.875 8.96875 16.934 9.04861C16.9965 9.12847 17.1146 9.11806 17.1528 9.02778C17.1875 8.92361 17.2118 8.91319 17.2847 8.99306C17.3681 9.07292 17.6424 9.00347 17.5104 8.60417C17.4514 8.44444 17.4271 8.47917 17.4271 8.65972C17.4271 8.94792 17.3299 8.94792 17.2222 8.67361C17.1875 8.56944 17.1389 8.56944 17.1285 8.70833C17.1285 8.96875 17.0069 9.00347 16.934 8.73958C16.9097 8.62847 16.8889 8.53472 16.8646 8.70833ZM18.5208 9.11806C18.7708 9.0625 18.6285 9.03819 18.4583 8.93403C18.2812 8.83333 18.2083 8.83333 18.2187 8.94792C18.2326 9.01389 18.2326 9.08333 18.2569 9.17361C18.3403 9.15278 18.4236 9.14236 18.5208 9.11806ZM18.0278 8.55903C18.2187 8.29514 18.5312 8.375 18.8924 8.61458C19.2535 8.85417 19.1076 9.23264 18.7604 9.42708C18.6771 9.47222 18.5694 9.51736 18.434 9.5625C18.4722 9.64236 18.4236 9.66667 18.316 9.59722C18.0035 9.70139 17.5937 9.85069 17.309 9.99653C17.6562 10.0208 19.0972 9.99653 19.3854 9.96181C19.6736 9.94097 19.625 9.98611 19.5417 10.2257C19.4549 10.4549 19.3611 10.4306 19.1215 10.4653C18.7361 10.5347 18.1701 10.6944 17.7639 10.8542C17.3542 11.0139 17.5 11.2986 17.9201 11.4479C18.2431 11.5278 18.2083 11.5625 18.1493 11.7465C18.1007 11.9167 18.1007 11.9618 17.7049 11.9062C16.7326 11.7569 16.3819 11.2431 16.2257 10.8438C15.6285 11.6528 15.0382 12.1007 14.4861 11.9618C14.2118 11.9062 14.0799 11.6667 14.0556 11.3681C13.6701 11.5382 13.2257 11.6875 12.6493 11.8472C12.5174 11.8924 12.4097 11.8368 12.5903 11.7569C12.9722 11.5729 13.5729 11.2674 14.066 10.934C14.1146 10.7292 14.2222 10.4444 14.3299 10.2361C14.3889 10.1111 14.4271 10.1562 14.4271 10.2604C14.4271 10.3403 14.4028 10.5451 14.4132 10.6944C14.5 10.625 14.6181 10.559 14.6771 10.5C15.0139 10.2153 15.3854 10.0312 15.1354 9.57639C15.0278 9.36806 14.941 9.22222 14.9062 9.12847C14.691 9.04861 14.75 8.93403 14.8472 8.73958C14.941 8.54861 14.9792 8.5 15.1701 8.71875C15.4479 9.02778 15.4826 9.16319 15.2917 9.14236C15.5903 9.87153 15.5174 10.25 15.0521 10.684C14.8333 10.8993 14.6076 11.0729 14.3437 11.2083C14.3194 11.4028 14.4028 11.5972 14.7847 11.5382C15.2917 11.4722 15.8542 10.8438 16.0937 10.3646C15.9861 9.96181 15.7465 9.24306 15.6042 8.87847C15.5312 8.69444 15.6042 8.61458 15.6632 8.46528C15.7361 8.31944 15.7708 8.22569 15.8542 8.43403C15.9375 8.62847 16.2014 9.11806 16.3229 9.70139C16.4549 10.2847 16.4306 10.7847 16.7431 11.059C16.8889 11.184 17.066 11.2674 17.2604 11.3125C17.1146 10.9236 17.4167 10.625 17.8125 10.4896C17.5729 10.2708 17.1979 10.3056 16.7778 10.2847C16.4687 10.2708 16.5035 10.2361 16.5868 9.97569C16.6701 9.71181 16.7674 9.67708 16.9965 9.58681C17.309 9.47222 17.6181 9.35764 17.9444 9.26736C17.7396 8.98264 17.8715 8.77431 18.0278 8.55903ZM16.5139 6.21528C16.4306 6.29514 16.4306 6.30903 16.5035 6.40972C16.5764 6.48958 16.684 6.74306 16.6458 7.00347C16.6354 7.11806 16.6597 7.23264 16.7187 7.02778C16.7674 6.82292 16.7535 6.53472 16.6944 6.36458C16.6354 6.19444 16.5625 6.14931 16.5139 6.21528ZM14.8819 6.66319C14.691 7.17708 14.7014 7.66667 15.0972 8.09028C15.3264 8.32986 15.4931 8.21528 15.5903 7.95139C15.6979 7.70139 15.7708 7.45139 15.8437 7.27778C15.9132 7.10764 15.9757 7.14236 15.9618 7.30208C15.9271 7.62153 15.9028 8.13542 16.2396 8.32986C16.5764 8.52431 17.0903 8.19444 17.2708 7.85069C17.8125 8.53472 18.2917 8.21528 18.3507 7.55208C18.3646 7.34722 18.2674 6.90278 18.2083 6.77778C18.1493 6.63889 18.184 6.63889 18.2674 6.70833C18.3507 6.78819 18.4965 6.83333 18.4236 6.60417C18.3403 6.38889 18.2431 6.26389 18.1111 6.15972C17.9931 6.05556 17.9687 6.11458 17.9201 6.19444C17.8715 6.27431 17.8819 6.29514 17.8125 6.35417C17.7396 6.42361 17.75 6.45486 17.8125 6.58333C18.0139 7.08333 18.2083 7.81597 17.8819 7.88542C17.5833 7.94097 17.3924 7.32292 17.3785 7.05208C17.3681 6.68403 17.3194 6.375 17.2465 6.18403C17.1944 6.05903 17.1632 6 17.1354 6C17.0868 6 17.0174 6.19792 16.9722 6.27431C16.9236 6.35417 16.9722 6.375 17.0069 6.53472C17.1875 7.33681 17.1632 7.70139 16.7778 7.90625C16.3958 8.125 16.191 7.92014 16.191 7.66667C16.1806 7.41667 16.1806 7.10764 16.2153 6.87847C16.2396 6.64931 16.2986 6.61806 16.2153 6.50347C16.1319 6.375 16.059 6.42361 15.9514 6.56944C15.7118 6.88889 15.4722 7.42708 15.3854 7.67708C15.3021 7.94097 15.1354 7.85069 15.0139 7.63194C14.8819 7.37153 14.8958 6.90278 14.941 6.71875C14.9896 6.53472 14.9653 6.45486 14.8819 6.66319ZM14.3889 6.46875C14.4132 6.39931 14.3542 6.32986 14.3056 6.43403C14.2708 6.51389 14.2569 6.56944 14.3299 6.61806C14.3542 6.56944 14.3785 6.51389 14.3889 6.46875ZM14.1007 6.36458C14.2465 6.01042 14.7257 6.05556 14.5937 6.51389C14.5833 6.58333 14.5451 6.67361 14.5 6.76389C14.5694 6.85764 14.5347 6.97222 14.3889 6.94792C14.2326 7.1875 13.934 7.45139 13.4167 7.66667C13.1771 7.77083 13.1424 7.69097 13.3229 7.58681C13.6701 7.37153 13.9931 7.10764 14.1979 6.83333C14.0417 6.70833 14.0417 6.52431 14.1007 6.36458ZM14.0174 7.63194C13.875 7.80556 13.7674 8.05556 13.9687 8.20486C14.0799 8.29514 14.3056 8.19444 14.3889 8.02083C14.4757 7.84028 14.4375 7.81597 14.2951 7.96528C14.0903 8.18056 13.8854 7.98611 14.1007 7.69097C14.2465 7.48611 14.1632 7.4375 14.0174 7.63194ZM13.6944 10.1458C13.7187 10.2257 13.7049 10.4097 13.6701 10.4896C13.6215 10.5903 13.6701 10.6389 13.7431 10.5104C13.8125 10.375 13.8611 10.2153 13.8264 10.0556C13.8125 9.94097 13.8125 9.90625 13.7049 9.86111C13.5868 9.81597 13.5486 9.88194 13.5139 9.97569C13.4653 10.0903 13.5243 10.2153 13.6944 10.1458ZM11.8437 9.39236C11.6285 9.44792 11.5937 9.36806 11.6042 9.24306C11.6181 9.11806 11.6285 9.08333 11.7743 9.14236C11.8333 9.16319 11.9062 9.24306 11.9792 9.34722C11.9306 9.35764 11.8819 9.38194 11.8437 9.39236ZM12.0243 8.87847C11.809 8.67361 11.6285 8.65972 11.4479 8.91319C11.2812 9.15278 11.2917 9.20833 11.3056 9.42708C11.316 9.64236 11.2708 9.72222 11.4479 9.78125C11.6181 9.83681 11.691 9.81597 11.7986 9.78125C11.8819 9.75694 12 9.72222 12.1215 9.67708C12.1458 9.79167 12.1319 9.91667 12.0625 10.0104C11.6181 10.5104 10.934 10.8785 10.6319 10.5451C10.4653 10.3646 10.3924 10.0764 10.441 9.73611C10.4896 9.44792 10.3924 9.57639 10.3576 9.67708C10.25 10.0104 10.2118 10.4896 10.3576 10.7292C10.5625 11.059 10.8854 11.2083 11.4028 10.9931C11.9167 10.7743 12.4201 10.3854 12.3993 9.85069C12.3993 9.74653 12.3854 9.65625 12.3854 9.58681C12.434 9.5625 12.5174 9.50694 12.5764 9.48264C12.5903 9.66667 12.566 9.89583 12.5764 10.0764C12.6007 10.6597 12.3611 10.8299 12.1458 10.9931C11.8437 11.2188 11.4375 11.3681 11.0903 11.4271C10.2604 11.5382 10.0694 11.0382 10.0799 10.3646C10.0799 10.2604 10.1285 10.191 10.1285 10.0417C10.1181 9.75694 10.0799 9.80208 9.98611 10.0903C9.89931 10.3646 9.79167 11.0035 10.0694 11.5278C10.3576 12.0556 11.3299 11.9062 12.0868 11.5625C12.8299 11.2188 12.9132 10.5694 12.8785 9.91667C12.8785 9.74653 12.8646 9.5625 12.8542 9.36806C12.8785 9.35764 12.8889 9.33681 12.9028 9.32292C13.0104 9.65625 13.5139 9.5625 13.6701 9.36806C13.7535 9.27778 13.7535 9.26736 13.8264 9.36806C13.934 9.51736 14.3056 9.5625 14.4028 9.35764C14.4861 9.14236 14.4757 8.93403 14.4514 8.77431C14.4271 8.61458 14.3889 8.62847 14.2812 8.70833C14.1632 8.79861 14.2569 8.80903 14.2708 8.92361C14.3194 9.35764 13.9236 9.32292 13.875 8.87847C13.8507 8.60417 13.8021 8.70833 13.7674 8.83333C13.5972 9.36806 13.1042 9.47222 13.1528 8.85417C13.1667 8.67361 13.0451 8.72917 12.9861 8.79861C12.9271 8.84375 12.8785 8.90278 12.8194 8.93403C12.7812 8.43403 12.7465 7.86111 12.684 7.17708C12.8299 7.34722 12.9618 7.15278 12.8646 6.95833C12.7951 6.80903 12.684 6.47917 12.6146 6.29514C12.5521 6.11458 12.5174 6.17014 12.3611 6.31944C12.2187 6.47917 12.2431 6.51389 12.3125 6.67361C12.2882 6.86806 12.3264 7.0625 12.375 7.46181C12.4097 7.74653 12.5069 8.34028 12.5521 9.09375C12.4826 9.12847 12.375 9.19792 12.3021 9.23264C12.2431 9.10764 12.1562 9.00347 12.0243 8.87847ZM9.44444 10.3299C9.45486 10.4444 9.45486 10.5243 9.45486 10.5694C9.45486 10.6493 9.40972 10.7292 9.38542 10.8299C9.23958 11.3229 9.45486 11.5625 9.57639 11.3785C9.68403 11.1979 9.74306 11.2188 9.73264 11.3681C9.72222 11.8611 9.22917 11.8924 9.19097 11.4826C9.13194 10.8299 9.28819 10.7292 9.33681 10.5104C9.37153 10.3646 9.42014 10.25 9.44444 10.3299ZM9.19097 9.60764C9.54167 9.20833 9.98611 9.00347 10.2118 8.93403C10.3576 8.88889 10.4306 8.83333 10.4306 8.96875C10.441 9.09375 10.4306 9.10764 10.309 9.14236C10.0312 9.20833 9.45486 9.48264 9.26389 9.62153C9.17014 9.69097 9.04861 9.77083 9.19097 9.60764ZM11.1493 6.17014C11.1146 6.26389 11.1389 6.375 11.1979 6.44444C11.2569 6.52431 11.3646 6.52431 11.4375 6.46875C11.4965 6.39931 11.4965 6.38889 11.559 6.47917C11.5937 6.54861 11.7118 6.52431 11.75 6.45486C11.7743 6.39931 11.809 6.34375 11.7743 6.26389C11.7361 6.18403 11.7361 6.20486 11.7118 6.29514C11.691 6.44444 11.5451 6.40972 11.5347 6.22917C11.5347 6.05556 11.4965 6.14931 11.4479 6.26389C11.3646 6.43403 11.2465 6.39931 11.2465 6.25C11.2465 6.125 11.2083 6.02083 11.1493 6.17014ZM10.6319 8.56944C10.6701 8.98264 10.7882 9.74653 10.7882 10.0104C10.8021 10.2847 10.8368 10.2049 10.9097 10.0556C10.9826 9.90625 10.9687 9.74653 10.9583 9.52778C10.934 9.30208 10.9201 8.92361 10.8715 8.40972C10.9687 8.34028 11.0521 8.22569 11.0903 8.15972C11.184 7.98611 11.2083 8 11.2465 8.13542C11.316 8.40972 11.6042 8.59375 11.9896 8.32986C12.3507 8.09028 12.1944 7.58681 12.0382 7.03819C12.1701 7.0625 12.2187 6.95833 12.1319 6.82292C12.0972 6.74306 12.0243 6.67361 11.9653 6.60417C11.9062 6.53472 11.8437 6.47917 11.7847 6.54861C11.7361 6.61806 11.6771 6.67361 11.6424 6.71875C11.6042 6.76389 11.6042 6.80903 11.6528 6.92361C11.7986 7.24306 11.8924 7.58681 11.9167 7.78125C11.9549 7.96528 11.8819 8.01042 11.75 8.01042C11.6181 8.01042 11.4375 7.97569 11.3646 7.70139C11.2917 7.42708 11.2569 7.30208 11.2708 7.11806C11.2812 6.9375 11.3056 6.80903 11.1736 6.62847C11.0278 6.44444 11.0174 6.47917 10.9826 6.56944C10.9583 6.67361 10.9097 6.82292 10.9583 6.99306C11.0174 7.24306 11.0521 7.46181 11.0903 7.61111C11.1146 7.71181 11.0035 7.93056 10.8507 8.04514C10.8125 7.70139 10.7535 7.24306 10.7292 6.87847C10.934 6.80903 10.8264 6.54861 10.6562 6.26389C10.5382 6.04514 10.4896 6.13542 10.4062 6.27431C10.3194 6.40972 10.3819 6.46875 10.441 6.58333C10.3924 6.67361 10.4757 6.80903 10.5139 7.0625C10.5243 7.22222 10.5625 7.67708 10.5972 8.07986C10.4306 8.07986 10.3333 7.97569 10.2743 7.84028C10.1424 7.55208 10.1771 7.29167 10.2361 7.11806C10.2986 6.94792 10.3576 6.68403 10.25 6.61806C10.1528 6.54861 10.0208 6.62847 9.9375 6.75347C9.79167 6.95833 9.65972 7.25694 9.64931 7.56597C9.63542 7.69097 9.60069 7.93056 9.54167 8.02083C9.49306 8.11458 9.40972 8.125 9.32292 7.98611C9.18056 7.77083 9.13194 7.22222 9.14583 6.9375C9.14583 6.79861 9.10764 6.77778 9.05903 6.9375C9.01736 7.08333 9 7.23264 9 7.375C9 7.77778 9.11806 8.14583 9.21528 8.32986C9.34722 8.57986 9.51736 8.52431 9.63542 8.31944C9.81597 8.01042 9.74306 7.73611 9.91319 7.27778C10.0104 6.99306 10.0451 7.21181 10.0104 7.38194C9.92361 7.84028 9.94792 8.57986 10.6319 8.56944ZM9.60069 6.77778C9.72222 6.45486 9.73264 6.17014 9.59028 6.27431C9.46875 6.36458 9.39583 6.27431 9.49306 6.17014C9.61111 6.02083 9.76736 5.97569 9.80556 6.22917C9.81597 6.42361 9.67361 6.66319 9.60069 6.77778Z" fill="white"/>
</g>
<defs>
<clipPath id="clip0_1_7984">
<rect width="36" height="24" rx="4" fill="white"/>
</clipPath>
</defs>
</svg>
