<svg width="28" height="190" viewBox="0 0 28 190" fill="none" xmlns="http://www.w3.org/2000/svg">
<g opacity="0.3">
<path d="M13.5312 2.70801C13.6924 2.27279 14.3076 2.2728 14.4688 2.70801L16.6123 8.50098C16.7642 8.91155 17.0884 9.23577 17.499 9.3877L23.292 11.5312C23.7272 11.6924 23.7272 12.3076 23.292 12.4688L17.499 14.6123C17.0884 14.7642 16.7642 15.0884 16.6123 15.499L14.4688 21.292C14.3076 21.7272 13.6924 21.7272 13.5312 21.292L11.3877 15.499C11.2358 15.0884 10.9116 14.7642 10.501 14.6123L4.70801 12.4688C4.27279 12.3076 4.2728 11.6924 4.70801 11.5312L10.501 9.3877C10.9116 9.23577 11.2358 8.91156 11.3877 8.50098L13.5312 2.70801Z" stroke="white"/>
<path d="M13.5 21L14.5 21.8429V190H13.5V21Z" fill="white"/>
</g>
</svg>
