<svg width="1000" height="28" viewBox="0 0 1000 28" fill="none" xmlns="http://www.w3.org/2000/svg">
<g opacity="0.3">
<line x1="414" y1="14.5" x2="-4.24444e-08" y2="14.5" stroke="white"/>
<line x1="485" y1="14.5" x2="425" y2="14.5" stroke="white"/>
<path d="M509.531 2.70801C509.692 2.27279 510.308 2.27279 510.469 2.70801L513.152 9.96094C513.304 10.3715 513.628 10.6957 514.039 10.8477L521.292 13.5312C521.727 13.6924 521.727 14.3076 521.292 14.4688L514.039 17.1523C513.628 17.3043 513.304 17.6285 513.152 18.0391L510.469 25.292C510.308 25.7272 509.692 25.7272 509.531 25.292L506.848 18.0391C506.696 17.6285 506.372 17.3043 505.961 17.1523L498.708 14.4688C498.273 14.3076 498.273 13.6924 498.708 13.5312L505.961 10.8477C506.372 10.6957 506.696 10.3715 506.848 9.96094L509.531 2.70801Z" stroke="white"/>
<line x1="595" y1="14.5" x2="535" y2="14.5" stroke="white"/>
<line x1="1000" y1="14.5" x2="606" y2="14.5" stroke="white"/>
</g>
</svg>
