<svg width="185" height="60" viewBox="0 0 185 60" fill="none" xmlns="http://www.w3.org/2000/svg">
<path d="M131.85 21.5584C134.639 21.1732 136.218 22.0203 138.33 23.5897C138.376 23.0436 138.393 22.4517 138.42 21.9008C140.111 21.8546 141.804 21.8504 143.496 21.8884L143.484 40.5565L138.435 40.5394C138.457 40.0542 138.539 39.266 138.392 38.8336L138.235 38.8108L137.899 39.0884C134.928 41.4458 131.407 41.6329 128.209 39.4909C123.68 36.458 122.932 29.4824 125.873 25.1194C127.348 22.9318 129.356 22.0382 131.85 21.5584ZM134.202 35.7797C136.73 35.5606 138.598 33.3273 138.366 30.8004C138.135 28.2736 135.892 26.4172 133.366 26.6615C130.858 26.9042 129.019 29.1275 129.248 31.6365C129.478 34.1455 131.692 35.9971 134.202 35.7797Z" fill="#00694B"/>
<path d="M72.2517 21.5772C77.5648 20.9807 82.3575 24.7994 82.9631 30.1116C83.5688 35.4239 79.7584 40.2233 74.4474 40.8379C69.1233 41.4541 64.31 37.6325 63.7029 32.3073C63.0959 26.9823 66.9257 22.1752 72.2517 21.5772ZM73.8356 35.786C76.3675 35.5023 78.1859 33.2134 77.8896 30.6829C77.5934 28.1523 75.2958 26.3452 72.7668 26.6539C70.2553 26.9604 68.4635 29.2388 68.7577 31.7517C69.0517 34.2647 71.3213 36.0678 73.8356 35.786Z" fill="#1C2628"/>
<path d="M93.6637 21.5785C98.9705 20.9695 103.77 24.7707 104.393 30.0769C105.017 35.383 101.23 40.1929 95.9251 40.8305C90.6003 41.4706 85.768 37.6647 85.1423 32.3383C84.5167 27.0118 88.3354 22.1898 93.6637 21.5785ZM95.1931 35.7954C97.7348 35.5571 99.5951 33.2916 99.3359 30.7511C99.0754 28.2107 96.793 26.3697 94.2549 26.652C91.7483 26.9309 89.9345 29.1786 90.1918 31.6882C90.4489 34.1978 92.681 36.031 95.1931 35.7954Z" fill="#1C2628"/>
<path d="M167.875 21.4573C168.207 21.4646 168.537 21.4755 168.87 21.4904C172.465 21.658 175.211 23.5396 176.49 26.9149C177.302 29.0604 177.149 31.0915 177.043 33.3262C172.728 33.309 168.025 33.4396 163.75 33.2906C165.281 37.1539 169.983 37.1832 172.92 34.8321L174.549 36.4586C174.986 36.9039 175.495 37.3611 175.953 37.791C174.533 39.9425 171.785 40.7456 169.332 40.9356C162.912 41.4327 157.904 36.0005 158.861 29.6083C159.601 24.6519 162.859 21.781 167.875 21.4573ZM163.643 29.5692L168.887 29.5567C169.924 29.5552 171.517 29.6004 172.509 29.5214C171.754 26.7754 170.137 25.7142 167.328 25.8672C165.416 26.3437 163.982 27.5725 163.643 29.5692Z" fill="#00694B"/>
<path d="M60.5712 15.8208L60.607 15.8373C60.8905 16.5414 60.6691 31.3499 60.4667 32.7341C59.4463 39.7098 51.5124 42.7155 45.3938 39.9273C42.9697 38.8227 41.5216 37.2821 39.9434 34.9979C41.3501 34.078 42.6262 33.1656 43.989 32.1829C44.354 32.3321 44.3139 32.4243 44.5476 32.8234C44.8136 33.1413 45.1364 33.5388 45.4255 33.8316C46.6739 35.083 48.3606 35.799 50.128 35.8279C54.0662 35.8666 55.692 33.4037 55.6315 29.7488C55.5831 26.827 55.603 23.8296 55.6199 20.906L45.1422 20.916L45.1437 15.8105L60.5712 15.8208Z" fill="#1C2628"/>
<path d="M7.5712 14L23.056 14.0136C23.0574 15.8784 23.2927 29.8462 22.9136 30.4399L15.9096 30.4409L15.9017 20.9095L7.58157 20.9365C7.49393 18.7619 7.52923 16.1882 7.5712 14Z" fill="#1C2628"/>
<path d="M114.778 21.5652C117.995 21.2905 120.763 21.9417 123.07 24.3634C122.677 24.9188 120.228 27.4506 119.685 28.004C118.255 27.1096 117.89 26.9775 116.289 26.509C115.293 26.7535 114.594 26.8547 113.699 27.4112C110.313 29.5163 111.264 35.0135 115.269 35.6798C117.08 35.9809 118.21 35.4154 119.638 34.4088L121.507 36.2731C122.007 36.7241 122.592 37.3542 123.073 37.8443C122.038 39.3272 120.361 40.2691 118.61 40.6418C105.623 43.4058 101.33 24.2494 114.778 21.5652Z" fill="#00694B"/>
<path d="M0.00646043 30.4548C2.23808 30.3529 4.82744 30.4112 7.08536 30.4103C7.41829 35.669 9.81249 38.541 15.1175 39.1516C15.4963 39.2012 15.8756 39.2478 16.255 39.2917C16.2874 39.6582 16.1141 39.7305 16.12 39.7973C16.157 40.2137 16.7973 41.1615 16.7651 41.5079C16.6219 43.043 15.9743 44.2437 17.4785 45.5053L17.4889 45.717C11.7235 47.0799 4.66079 43.3442 1.93589 38.2442C0.414442 35.3968 -0.0627917 33.6434 0.00646043 30.4548Z" fill="#00694B"/>
<path d="M156.599 21.5677C156.887 21.5289 157.513 21.515 157.828 21.4978C157.801 23.0818 157.798 24.666 157.822 26.2499C152.188 26.6199 152.495 29.6468 152.484 34.1097L152.466 40.5439C150.8 40.5101 149.07 40.527 147.4 40.5215C147.308 34.3704 147.367 28.0721 147.358 21.912C149.043 21.8775 150.728 21.8694 152.413 21.8875L152.455 23.5591C153.966 22.3023 154.69 21.9283 156.599 21.5677Z" fill="#00694B"/>
<path d="M15.1191 39.1533C17.6184 38.9562 19.5281 38.0947 21.1944 36.1486C21.8587 35.3764 22.3622 34.4794 22.6758 33.5104C22.8866 32.8625 23.1063 30.735 23.2835 30.6376C24.009 30.2385 29.5083 30.4296 30.2151 30.4363C30.2497 34.5309 28.9264 38.2386 26.0404 41.2018C24.294 42.995 20.0588 45.752 17.4905 45.7187L17.4801 45.507C15.976 44.2454 16.6236 43.0447 16.7667 41.5097C16.799 41.1633 16.1587 40.2154 16.1216 39.7991C16.1157 39.7323 16.289 39.6599 16.2567 39.2934C15.8772 39.2496 15.498 39.2029 15.1191 39.1533Z" fill="#00694B"/>
<path d="M180.743 33.8438C182.427 33.5335 184.042 34.6493 184.347 36.3332C184.653 38.0172 183.532 39.6288 181.847 39.9291C180.169 40.2281 178.566 39.1133 178.262 37.4365C177.958 35.7596 179.068 34.1528 180.743 33.8438Z" fill="#00694B"/>
<path d="M180.608 34.4106C181.768 34.0933 182.995 34.6119 183.578 35.6654C184.159 36.7189 183.945 38.0337 183.058 38.8473C182.718 39.1601 182.299 39.3765 181.847 39.4744C180.988 39.6607 180.092 39.4012 179.466 38.7844C178.801 38.1298 178.536 37.1699 178.772 36.2673C179.008 35.3645 179.708 34.6565 180.608 34.4106Z" fill="#1C2628"/>
</svg>
