<svg width="24" height="24" viewBox="0 0 24 24" fill="none" xmlns="http://www.w3.org/2000/svg">
<path d="M24 9V21.667C23.9998 22.9554 22.9554 23.9998 21.667 24H2.33301C1.0446 23.9998 0.000176415 22.9554 0 21.667V2.33301C0.000177316 1.0446 1.0446 0.00017688 2.33301 0H15L24 9Z" fill="#D0D0D0" fill-opacity="0.65"/>
<path d="M15 9L24 9L15 0L15 9Z" fill="#D0D0D0" fill-opacity="0.65"/>
<rect x="1.5" y="12" width="21" height="9.75" rx="1.28336" fill="#DC2626"/>
<path d="M5.03711 19.6875V14.0625H7.10803C7.53228 14.0625 7.88822 14.1431 8.17585 14.3042C8.46528 14.4653 8.68369 14.6869 8.8311 14.9689C8.98031 15.249 9.05491 15.5676 9.05491 15.9247C9.05491 16.2854 8.98031 16.6058 8.8311 16.886C8.6819 17.1661 8.46168 17.3868 8.17046 17.5479C7.87923 17.7072 7.5206 17.7869 7.09455 17.7869H5.72202V16.9492H6.95972C7.2078 16.9492 7.41094 16.9052 7.56913 16.8173C7.72733 16.7294 7.84418 16.6086 7.91968 16.4548C7.99698 16.301 8.03563 16.1243 8.03563 15.9247C8.03563 15.7251 7.99698 15.5493 7.91968 15.3973C7.84418 15.2454 7.72643 15.1273 7.56644 15.043C7.40824 14.957 7.20421 14.9139 6.95433 14.9139H6.03752V19.6875H5.03711Z" fill="white"/>
<path d="M11.7952 19.6875H9.92386V14.0625H11.833C12.3813 14.0625 12.8523 14.1751 13.246 14.4003C13.6415 14.6237 13.9453 14.9451 14.1574 15.3644C14.3695 15.7837 14.4756 16.2854 14.4756 16.8695C14.4756 17.4554 14.3686 17.959 14.1547 18.3801C13.9426 18.8013 13.6361 19.1245 13.2352 19.3497C12.8361 19.5749 12.3561 19.6875 11.7952 19.6875ZM10.9243 18.8058H11.7467C12.1314 18.8058 12.4523 18.7344 12.7094 18.5916C12.9664 18.447 13.1597 18.2318 13.2891 17.9462C13.4185 17.6587 13.4833 17.2998 13.4833 16.8695C13.4833 16.4392 13.4185 16.0822 13.2891 15.7983C13.1597 15.5127 12.9682 15.2994 12.7148 15.1584C12.4631 15.0156 12.1503 14.9442 11.7764 14.9442H10.9243V18.8058Z" fill="white"/>
<path d="M15.4261 19.6875V14.0625H18.9639V14.9167H16.4265V16.4438H18.7212V17.298H16.4265V19.6875H15.4261Z" fill="white"/>
<path d="M5.03711 19.6875V14.0625H7.10803C7.53228 14.0625 7.88822 14.1431 8.17585 14.3042C8.46528 14.4653 8.68369 14.6869 8.8311 14.9689C8.98031 15.249 9.05491 15.5676 9.05491 15.9247C9.05491 16.2854 8.98031 16.6058 8.8311 16.886C8.6819 17.1661 8.46168 17.3868 8.17046 17.5479C7.87923 17.7072 7.5206 17.7869 7.09455 17.7869H5.72202V16.9492H6.95972C7.2078 16.9492 7.41094 16.9052 7.56913 16.8173C7.72733 16.7294 7.84418 16.6086 7.91968 16.4548C7.99698 16.301 8.03563 16.1243 8.03563 15.9247C8.03563 15.7251 7.99698 15.5493 7.91968 15.3973C7.84418 15.2454 7.72643 15.1273 7.56644 15.043C7.40824 14.957 7.20421 14.9139 6.95433 14.9139H6.03752V19.6875H5.03711Z" stroke="white" stroke-width="0.583334"/>
<path d="M11.7952 19.6875H9.92386V14.0625H11.833C12.3813 14.0625 12.8523 14.1751 13.246 14.4003C13.6415 14.6237 13.9453 14.9451 14.1574 15.3644C14.3695 15.7837 14.4756 16.2854 14.4756 16.8695C14.4756 17.4554 14.3686 17.959 14.1547 18.3801C13.9426 18.8013 13.6361 19.1245 13.2352 19.3497C12.8361 19.5749 12.3561 19.6875 11.7952 19.6875ZM10.9243 18.8058H11.7467C12.1314 18.8058 12.4523 18.7344 12.7094 18.5916C12.9664 18.447 13.1597 18.2318 13.2891 17.9462C13.4185 17.6587 13.4833 17.2998 13.4833 16.8695C13.4833 16.4392 13.4185 16.0822 13.2891 15.7983C13.1597 15.5127 12.9682 15.2994 12.7148 15.1584C12.4631 15.0156 12.1503 14.9442 11.7764 14.9442H10.9243V18.8058Z" stroke="white" stroke-width="0.583334"/>
<path d="M15.4261 19.6875V14.0625H18.9639V14.9167H16.4265V16.4438H18.7212V17.298H16.4265V19.6875H15.4261Z" stroke="white" stroke-width="0.583334"/>
</svg>
