<svg width="453" height="340" viewBox="0 0 453 340" fill="none" xmlns="http://www.w3.org/2000/svg">
<path d="M77.4871 322.092C77.4871 322.092 21.1743 281.986 4.96713 213.734C-11.2401 145.472 13.5037 62.7044 60.4242 20.8977C107.355 -20.909 191.824 7.24737 229.363 42.2289L266.901 77.2105C266.901 77.2105 302.738 96.8303 349.669 95.1291C396.6 93.4177 438.406 157.411 449.5 207.755C460.593 258.098 434.138 324.649 434.138 324.649L77.4871 322.092Z" fill="#DDECFF"/>
<path d="M51.9005 332.33C51.9005 332.33 12.6507 310.999 2.41294 261.511C-7.82481 212.024 36.5388 166.804 40.8071 142.06C45.0754 117.317 35.683 86.6034 74.9329 62.705C114.183 38.8169 184.146 47.3432 210.601 41.3738C237.056 35.4043 267.77 -5.55697 320.67 3.83537C373.57 13.2174 424.769 41.3738 427.326 102.811C429.883 164.247 410.263 165.949 429.883 199.229C449.503 232.509 457.183 255.542 447.801 289.668C438.419 323.793 418.789 333.186 418.789 333.186L51.9005 332.33Z" fill="#DDECFF"/>
<path d="M133.848 321.236C131.405 318.679 95.5986 247.005 135.477 181.31C175.356 115.615 275.455 123.286 315.334 148.885C355.213 174.485 374.74 207.755 378.812 242.736C382.884 277.718 356.027 332.329 356.027 332.329L133.848 321.236Z" fill="#DDECFF"/>
<path d="M414.623 167.299H368.62C365.773 167.299 363.465 169.607 363.465 172.454V195.425C363.465 198.272 365.773 200.58 368.62 200.58H414.623C417.47 200.58 419.778 198.272 419.778 195.425V172.454C419.778 169.607 417.47 167.299 414.623 167.299Z" fill="#60A8FF"/>
<path d="M391.623 213.59L398.922 196.311H384.333L391.623 213.59Z" fill="#60A8FF"/>
<path d="M391.456 178.227H404.621V180.155L411.075 176.423L404.621 172.701V174.629H391.456V178.227Z" fill="#223A7A"/>
<path d="M411.075 185.796H397.91V183.868L391.456 187.59L397.91 191.311V189.383H411.075V185.796Z" fill="white"/>
<path d="M383.371 189.187L382.742 189.414C382.742 189.414 380.783 187.187 379.773 184.754C378.762 182.32 378.721 179.361 378.721 179.361L379.175 179.166L376.391 172.505C375.896 172.897 375.422 173.392 375.041 174.042C373.463 176.701 373.618 180.795 375.206 184.784C376.793 188.774 378.484 192.342 381.577 194.579C383.402 195.899 384.969 196.136 386.175 195.94L383.361 189.197L383.371 189.187Z" fill="#223A7A"/>
<path d="M385.358 188.403L384.492 188.722L387.337 195.548C387.657 195.444 387.946 195.31 388.203 195.176C388.935 194.774 389.265 193.888 388.956 193.104L387.471 189.351C387.141 188.516 386.203 188.104 385.368 188.403H385.358Z" fill="#223A7A"/>
<path d="M378.578 171.331C378.228 171.455 377.846 171.63 377.465 171.857L380.31 178.661L381.269 178.259C382.104 177.909 382.496 176.97 382.176 176.125L380.682 172.29C380.362 171.455 379.424 171.022 378.589 171.331H378.578Z" fill="#223A7A"/>
<path d="M120.543 309.719V232.931C120.543 232.931 119.687 212.239 130.564 206.269C141.441 200.3 187.3 203.496 187.3 203.496V309.719H120.533H120.543Z" fill="#1C83FF"/>
<path d="M201.64 131.606C201.64 131.606 198.866 154.855 197.804 156.773L196.742 158.69L191.412 162.319C191.412 162.319 201.65 176.825 214.238 179.166C226.827 181.516 225.754 174.042 225.754 174.042L223.837 169.99L226.394 147.803C226.394 147.803 203.567 137.349 201.65 131.596L201.64 131.606Z" fill="#FF9D8C"/>
<path d="M184.788 164.247L193.108 160.618C193.108 160.618 198.438 169.361 210.81 174.485C223.182 179.609 223.399 176.619 224.038 174.485C224.677 172.351 223.821 170.01 223.821 170.01L224.739 162.546L229.688 164.196L246.864 303.122L202.707 305.256L184.788 164.258V164.247Z" fill="white"/>
<path d="M225.53 162.679C225.53 162.679 228.52 169.576 231.293 185.783C234.066 201.99 236.623 229.301 237.263 248.066C237.902 266.83 238.324 309.709 238.324 309.709H293.998C294.637 309.709 298.473 288.594 298.473 288.594C298.473 288.594 274.151 267.757 272.873 264.345C272.017 262.066 272.45 219.909 268.821 200.496C265.192 181.082 260.501 177.175 250.686 172.339C240.541 167.339 225.52 162.668 225.52 162.668L225.53 162.679Z" fill="#223A7A"/>
<path d="M254.546 285.276C254.257 285.276 254.03 285.049 254.03 284.76C254.03 283.235 253.762 261.563 253.494 240.613C253.236 219.653 252.958 197.982 252.958 196.456C252.958 196.167 253.185 195.94 253.474 195.94C253.762 195.94 253.989 196.167 253.989 196.456C253.989 197.982 254.257 219.653 254.525 240.603C254.783 261.563 255.061 283.235 255.061 284.76C255.061 285.049 254.834 285.276 254.546 285.276Z" fill="#8593B6"/>
<path d="M143.624 280.068L143.201 309.72H208.051C208.051 309.72 210.824 284.553 209.762 282.202C208.7 279.852 143.634 280.068 143.634 280.068H143.624Z" fill="#223A7A"/>
<g style="mix-blend-mode:multiply">
<path d="M215.793 156.133C218.433 158.267 222.051 159.968 224.866 161.009L226.392 147.813C226.392 147.813 209.246 139.957 203.432 134.121C204.648 140.761 207.638 149.555 215.793 156.133Z" fill="#8E9BBB"/>
</g>
<path d="M246.436 88.3043C246.436 88.3043 250.91 95.9852 251.766 105.367C252.622 114.749 251.766 138.854 244.085 149.092C236.404 159.329 220.403 156.34 213.155 150.154C206.495 144.473 199.928 138.204 198.227 125.832C196.515 113.461 201.856 89.9952 217.001 85.0876C232.146 80.1801 246.436 88.2837 246.436 88.2837V88.3043Z" fill="#FF9D8C"/>
<path d="M265.678 296.307C265.678 296.307 264.925 296.307 263.781 296.276C263.513 296.265 263.214 296.276 262.904 296.265C261.801 296.234 260.461 296.204 259.11 296.162C258.811 296.152 258.502 296.142 258.203 296.131C256.863 296.1 255.718 296.265 254.646 296.204H254.615C254.388 296.193 254.059 296.224 253.791 296.234C253.656 296.245 253.533 296.255 253.45 296.245C252.832 296.131 252.708 295.987 252.038 295.688C251.172 295.296 239.449 292.678 229.913 292.739C220.386 292.781 211.839 293.43 210.448 292.265C209.045 291.08 208.2 279.11 216.335 278.326L226.335 282.12C226.335 282.12 249.172 279.409 257.543 285.584C265.936 291.76 265.678 296.307 265.678 296.307Z" fill="#FF9D8C"/>
<path d="M254.62 296.203C254.393 296.193 254.063 296.223 253.795 296.234C253.589 295.904 253.156 295.306 252.919 295.058C250.341 292.429 244.114 290.728 241.856 290.182C241.65 290.13 241.516 289.924 241.568 289.718C241.609 289.512 241.825 289.388 242.042 289.429C245.331 290.223 252.311 292.254 254.29 295.584C254.352 295.677 254.517 295.997 254.62 296.203Z" fill="#223A7A"/>
<path d="M259.115 296.162C258.816 296.162 258.507 296.152 258.208 296.131C255.393 290.997 250.785 289.523 245.104 287.698L244.764 287.584C244.568 287.523 244.455 287.296 244.516 287.09C244.578 286.894 244.795 286.78 245.011 286.842L245.341 286.956C251.362 288.883 256.198 290.44 259.126 296.162H259.115Z" fill="#223A7A"/>
<path d="M263.779 296.275C263.511 296.275 263.212 296.275 262.903 296.265C261.192 292.677 255.542 286.667 248.077 285.275C247.861 285.233 247.727 285.038 247.758 284.821C247.799 284.615 248.005 284.481 248.211 284.512C255.913 285.955 262.12 292.244 263.79 296.275H263.779Z" fill="#223A7A"/>
<path d="M203.351 115.285C203.351 115.285 208.042 113.048 211.351 106.749C214.661 100.46 214.228 94.7996 214.228 94.7996C214.228 94.7996 220.197 93.8408 229.156 96.511C238.116 99.1813 248.776 102.8 257.736 97.6864C266.695 92.5623 266.695 84.3556 262.323 80.943C257.426 77.1181 247.714 79.4481 247.714 79.4481C247.714 79.4481 251.447 75.819 249.426 73.6849C247.395 71.5507 240.044 74.3241 240.044 74.3241C240.044 74.3241 231.084 67.1793 214.125 68.035C197.165 68.8907 189.061 80.7265 188.102 93.9542C187.144 107.182 191.938 120.409 191.938 120.409L203.351 115.285Z" fill="#223A7A"/>
<g style="mix-blend-mode:multiply">
<path d="M237.742 118.491C236.784 120.863 236.804 123.616 236.567 126.121C236.382 128.08 236.021 130.358 237.815 131.678C238.67 132.307 242.722 134.008 240.64 135.389C239.846 135.915 238.516 135.771 237.608 135.73C236.99 135.699 236.361 135.678 235.732 135.627C235.062 135.575 234.412 135.379 233.742 135.369C233.35 135.369 233.227 135.884 233.546 136.091C234.619 136.761 236.206 136.977 237.454 137.018C238.712 137.07 239.557 137.018 240.691 136.451C241.382 136.111 242.062 135.616 242.165 134.791C242.289 133.864 241.588 133.028 240.887 132.503C240.083 131.905 239.093 131.626 238.279 131.039C237.144 130.234 237.237 128.863 237.32 127.605C237.516 124.574 238.206 121.595 238.474 118.574C238.516 118.11 237.876 118.11 237.732 118.471L237.742 118.491Z" fill="#8E9BBB"/>
</g>
<path d="M246.469 125.584C246.149 127.378 244.84 128.656 243.551 128.43C242.252 128.203 241.469 126.553 241.778 124.759C242.097 122.965 243.407 121.687 244.696 121.914C245.995 122.141 246.778 123.79 246.469 125.584Z" fill="#223A7A"/>
<path d="M230.159 124.163C229.87 126.101 228.499 127.503 227.107 127.297C225.715 127.091 224.808 125.348 225.097 123.41C225.385 121.472 226.756 120.07 228.148 120.276C229.54 120.482 230.447 122.225 230.159 124.163Z" fill="#223A7A"/>
<path d="M242.677 118.173C243.677 118.338 244.677 118.173 245.687 118.245C245.924 118.265 246.172 118.296 246.409 118.317C246.584 118.338 246.089 118.265 246.327 118.307C246.378 118.307 246.43 118.327 246.481 118.327C246.605 118.348 246.729 118.379 246.852 118.41C247.069 118.461 247.275 118.544 247.492 118.585C247.687 118.626 247.904 118.678 248.1 118.667C248.213 118.657 248.316 118.637 248.43 118.626C248.358 118.637 248.296 118.647 248.224 118.667C248.224 118.688 248.595 118.637 248.636 118.626C249.203 118.492 249.564 117.832 249.399 117.276C249.358 117.111 249.285 116.977 249.182 116.843C249.141 116.791 249.1 116.729 249.048 116.678C249.09 116.719 249.131 116.77 249.172 116.812C249.131 116.75 249.09 116.698 249.038 116.636C248.987 116.544 248.904 116.461 248.811 116.41C248.729 116.348 248.657 116.286 248.574 116.224C248.306 116.038 247.966 115.935 247.646 115.853C247.048 115.698 246.43 115.626 245.811 115.616C245.203 115.616 244.594 115.678 243.997 115.76C243.46 115.832 242.873 116.018 242.44 116.337C242.11 116.585 241.904 116.904 241.955 117.337C242.007 117.698 242.285 118.111 242.677 118.173Z" fill="#223A7A"/>
<path d="M231.293 115.316C231.159 115.234 231.015 115.161 230.881 115.1C230.757 115.048 230.427 114.873 230.675 115.007C230.582 114.955 230.489 114.904 230.396 114.862C229.984 114.656 229.551 114.512 229.107 114.398C228.138 114.151 227.107 114.089 226.107 114.192C225.045 114.306 224.066 114.563 223.148 115.12C223.014 115.203 222.88 115.275 222.777 115.388C222.705 115.481 222.633 115.574 222.561 115.667C222.581 115.636 222.602 115.605 222.622 115.574C222.334 115.77 222.169 116.1 222.179 116.44C222.179 116.77 222.354 117.048 222.643 117.203C222.994 117.399 223.324 117.306 223.674 117.203H223.138C223.437 117.254 223.643 117.265 223.942 117.203C223.952 117.203 224.231 117.131 224.045 117.172C223.87 117.213 224.334 117.141 224.385 117.131C224.447 117.131 224.767 117.089 224.427 117.131C224.489 117.131 224.55 117.12 224.612 117.11C224.777 117.089 224.932 117.069 225.097 117.058C225.798 117.007 226.499 116.976 227.21 116.945C227.86 116.924 228.53 116.914 229.19 116.945C229.468 116.955 229.747 116.966 230.025 116.976C230.18 116.976 230.118 117.007 230.004 116.976C230.066 116.997 230.118 117.007 230.18 117.017C230.293 117.048 230.406 117.089 230.52 117.131C230.974 117.306 231.52 116.976 231.685 116.553C231.87 116.1 231.716 115.574 231.283 115.316H231.293Z" fill="#223A7A"/>
<path d="M236.36 144.978C237.339 143.009 239.123 141.565 241.175 140.637C239.391 140.452 230.947 139.678 228.823 140.885C226.442 142.235 229.267 147.679 234.195 147.947C234.71 147.978 235.185 147.937 235.638 147.865C235.68 146.875 235.906 145.885 236.36 144.978Z" fill="#223A7A"/>
<path d="M197.376 133.523C197.376 133.523 198.232 136.833 203.139 140.668C208.047 144.503 215.161 147.318 215.161 147.318L215.728 144.833C215.728 144.833 208.366 141.637 204.954 138.111C201.541 134.595 201.118 132.667 201.118 132.667L197.386 133.523H197.376Z" fill="#DEE1EB"/>
<path d="M216.574 142.987C220.523 142.801 222.729 145.925 222.997 147.946C223.275 149.967 221.378 152.235 216.935 150.245C211.419 147.771 212.615 143.172 216.564 142.987H216.574Z" fill="#223A7A"/>
<path d="M200.468 109.099C200.468 109.099 202.169 96.8402 210.386 88.5098C226.067 72.6222 239.398 73.581 239.398 73.581C239.398 73.581 239.295 71.3437 234.274 69.6323C229.562 68.0343 227.449 68.89 227.449 68.89C227.449 68.89 214.541 69.9519 203.664 82.0042C192.787 94.0565 191.611 109.418 191.611 109.418L200.468 109.099Z" fill="#DEE1EB"/>
<path d="M199.291 107.605C189.022 105.863 183.29 113.894 182.867 122.008C182.444 130.112 188.331 136.277 196.198 135.658C213.9 134.277 211.879 109.739 199.291 107.605Z" fill="white"/>
<path d="M194.179 127.782C191.468 127.782 189.179 126.421 187.87 124.019C186.467 121.452 186.581 118.286 188.169 115.956C188.292 115.781 188.529 115.74 188.705 115.853C188.88 115.977 188.932 116.214 188.808 116.389C187.385 118.482 187.282 121.328 188.55 123.648C189.746 125.844 191.87 127.091 194.385 127.009C196.736 126.947 198.726 125.875 199.984 123.988C201.427 121.833 201.757 118.864 200.829 116.41C199.901 113.977 197.375 112.327 195.076 112.626C194.87 112.657 194.674 112.503 194.643 112.296C194.612 112.09 194.767 111.894 194.973 111.863C197.664 111.502 200.489 113.348 201.551 116.142C202.572 118.823 202.2 122.07 200.623 124.421C199.211 126.524 197.004 127.72 194.406 127.782C194.334 127.782 194.262 127.782 194.19 127.782H194.179Z" fill="#818FB3"/>
<path d="M186.723 161.257C186.723 161.257 155.576 168.938 144.699 181.31C133.822 193.682 128.698 254.686 128.492 265.996C128.286 277.306 136.173 281.997 140.864 285.193C145.555 288.389 166.247 294.152 182.887 295.008C199.528 295.864 215.312 295.008 215.312 295.008C215.312 295.008 215.261 291.379 217.817 286.049C220.189 281.1 223.199 280.079 223.199 280.079L208.91 274.955C208.91 274.955 206.404 230.117 202.507 208.405C198.033 183.444 186.723 161.268 186.723 161.268V161.257Z" fill="#223A7A"/>
<path d="M238.329 267.79C238.256 267.79 238.184 267.78 238.122 267.749C237.865 267.636 237.741 267.326 237.865 267.068C240.782 260.48 243.803 247.562 245.504 238.489L245.649 237.757C246.164 235.087 246.803 231.778 245.525 229.478C244.875 228.313 243.401 225.777 241.978 223.344C240.504 220.818 239.122 218.426 238.731 217.715C237.978 216.323 240.349 212.601 243.772 207.498C244.7 206.116 245.494 204.931 245.958 204.126C247.174 202.013 246.37 200.085 245.422 197.837L245.102 197.064C244.246 194.971 243.277 192.878 242.339 190.847C241.958 190.022 241.576 189.187 241.195 188.352C240.69 187.249 240.195 186.125 239.679 184.991C236.669 178.269 233.545 171.32 229.555 164.608C229.41 164.361 229.493 164.052 229.73 163.897C229.978 163.753 230.287 163.835 230.441 164.072C234.462 170.836 237.597 177.815 240.617 184.558C241.123 185.692 241.628 186.816 242.123 187.909C242.504 188.744 242.886 189.569 243.267 190.394C244.205 192.435 245.185 194.538 246.04 196.652L246.36 197.415C247.319 199.693 248.309 202.064 246.834 204.611C246.35 205.446 245.545 206.652 244.607 208.044C242.824 210.704 239.112 216.241 239.617 217.199C239.999 217.9 241.38 220.282 242.844 222.798C244.267 225.241 245.741 227.777 246.401 228.953C247.865 231.571 247.185 235.097 246.638 237.922L246.494 238.654C245.875 241.953 242.587 258.862 238.782 267.46C238.7 267.656 238.504 267.77 238.308 267.77L238.329 267.79Z" fill="#8593B6"/>
<path d="M207.931 269.594C207.797 269.594 207.663 269.543 207.57 269.44C205.147 266.996 193.456 246.758 192.59 242.953C192.115 240.871 193.311 235.582 194.466 230.468C195.363 226.509 196.291 222.416 196.023 221.303C195.631 219.643 192.641 217.199 189.754 214.838C186.259 211.982 182.651 209.034 181.95 206.374C181.156 203.353 181.836 184.445 182.28 171.939C182.445 167.444 182.568 163.887 182.568 162.619C182.568 162.33 182.795 162.103 183.084 162.103C183.373 162.103 183.599 162.33 183.599 162.619C183.599 163.907 183.476 167.464 183.311 171.97C182.888 183.661 182.187 203.229 182.94 206.106C183.558 208.436 187.187 211.405 190.394 214.024C193.559 216.612 196.538 219.045 197.013 221.045C197.332 222.385 196.466 226.231 195.456 230.674C194.373 235.437 193.157 240.84 193.579 242.696C194.435 246.428 205.91 266.285 208.292 268.687C208.488 268.893 208.488 269.213 208.292 269.419C208.189 269.522 208.065 269.574 207.931 269.574V269.594Z" fill="#8593B6"/>
<path d="M166.02 260.748C166.02 260.748 165.968 260.748 165.948 260.748C165.669 260.706 165.473 260.449 165.504 260.16C165.886 257.479 171.804 204.074 172.072 199.981C172.092 199.692 172.34 199.476 172.618 199.496C172.907 199.517 173.113 199.765 173.103 200.043C172.835 204.136 166.906 257.613 166.525 260.294C166.484 260.552 166.267 260.737 166.02 260.737V260.748Z" fill="#8593B6"/>
<path d="M208.468 275.254C208.407 275.254 208.334 275.244 208.273 275.213C206.963 274.676 201.169 272.728 193.839 270.254C179.034 265.264 158.764 258.428 154.908 256.418C154.651 256.284 154.558 255.974 154.692 255.727C154.826 255.469 155.135 255.376 155.383 255.51C159.166 257.48 180.23 264.583 194.169 269.284C201.52 271.769 207.324 273.718 208.664 274.264C208.932 274.367 209.056 274.676 208.953 274.934C208.871 275.13 208.675 275.254 208.479 275.254H208.468Z" fill="#8593B6"/>
<path d="M201.343 296.512C188.312 296.512 163.063 294.161 143.876 287.377C143.608 287.284 143.464 286.985 143.567 286.717C143.659 286.449 143.958 286.305 144.226 286.408C168.465 294.986 202.374 296.45 208.684 295.027C208.962 294.965 209.241 295.14 209.303 295.419C209.365 295.697 209.189 295.976 208.911 296.037C207.55 296.347 204.9 296.512 201.364 296.512H201.343Z" fill="#8593B6"/>
<path d="M52.2255 168.453C56.267 172.01 61.391 174.288 64.9377 178.402C66.3295 180.021 67.5873 181.742 68.8863 183.444C69.8246 184.681 72.3505 186.732 72.7526 188.279C72.9278 188.959 72.8969 188.031 72.7113 187.351C72.7113 187.32 72.6907 187.299 72.6804 187.269C72.3299 184.124 72.0721 180.969 71.9587 177.804C71.8453 174.649 72.0412 171.484 71.8453 168.34C71.5669 163.896 70.1751 159.597 66.546 156.813C64.7727 155.452 62.4942 154.627 60.8549 153.112C59.3084 151.679 59.927 150.039 60.8343 148.441C61.69 146.946 62.721 145.472 63.0509 143.75C63.4324 141.791 62.6901 139.771 61.7003 138.111C59.5868 134.564 54.9061 130.605 50.4625 131.141C46.7613 131.585 46.3386 135.853 46.4004 138.822C46.452 141.709 46.7406 144.596 46.7613 147.483C46.7922 150.452 46.287 153.37 46.2458 156.328C46.1736 161.36 48.5036 165.195 52.1946 168.443L52.2255 168.453Z" fill="#6BAEFF"/>
<path d="M89.8084 214.621C90.9322 211.93 92.2312 209.425 93.8189 206.981C95.9943 203.63 98.4172 200.362 99.8812 196.609C101.376 192.774 101.16 188.681 101.304 184.65C101.407 181.681 102.294 178.732 102.057 175.752C101.943 174.33 101.118 172.02 99.2729 172.257C97.8398 172.443 96.9841 174.216 96.4376 175.361C95.4788 177.34 94.8087 179.454 94.0973 181.536C93.8189 182.351 93.5509 183.176 93.2003 183.959C92.9941 184.413 92.3446 185.526 91.726 185.382C90.6744 185.124 91.6332 180.845 91.7879 180.083C92.5714 176.278 93.7468 172.742 93.9117 168.824C94.1488 163.143 93.7055 156.39 88.1485 153.277C86.6948 152.462 84.8596 151.978 83.4781 153.194C82.1172 154.39 81.7357 156.463 81.5295 158.174C80.9109 163.422 82.1481 168.381 83.8286 173.319C85.2205 177.392 86.87 181.598 86.9938 185.959C87.1072 190.155 84.9318 193.867 83.9008 197.836C82.2718 204.146 82.6017 207.497 82.6017 209.538C82.6017 212.095 82.6842 214.631 82.8698 217.188C83.0451 219.539 83.241 221.879 83.5296 224.219C83.5915 224.694 83.643 225.188 83.7049 225.683C82.7976 223.508 82.4883 221.023 81.7357 218.838C80.4057 214.961 78.8695 211.157 77.5911 207.259C76.5395 204.043 75.5394 200.795 74.1579 197.692C72.8589 194.784 71.2814 191.712 68.8483 189.578C67.374 188.289 65.6007 187.537 63.6315 187.547C62.3737 187.547 61.2396 187.99 60.0436 188.31C58.5693 188.702 57.4043 188.568 56.1877 187.629C52.2081 184.567 50.9915 179.082 48.0532 175.206C45.8572 172.319 40.6404 167.391 36.8051 170.546C34.774 172.216 34.207 175.443 34.3204 177.928C34.4544 181.031 35.8153 183.877 37.4237 186.475C39.1454 189.238 41.3621 191.712 42.9395 194.547C43.8777 196.228 44.022 197.836 43.8674 199.723C43.723 201.507 43.5684 203.228 44.1767 204.95C46.0015 210.115 51.7029 209.394 56.1362 209.528C59.2395 209.62 62.5593 210.084 65.5079 211.074C68.9102 212.219 71.1268 214.435 72.3434 217.796C73.2197 220.229 73.694 223.003 75.3539 225.065C76.1374 226.034 77.1684 226.756 78.3025 227.261C80.0346 228.024 85.3029 228.354 85.3339 227.879C85.4679 226.271 86.2308 224.57 86.7051 223.044C87.602 220.178 88.6537 217.384 89.8187 214.61L89.8084 214.621Z" fill="#6BAEFF"/>
<path d="M114.27 213.642C113.817 210.694 113.899 207.436 112.507 204.724C112.404 204.528 112.146 204.477 111.961 204.58C110.961 205.137 110.919 206.755 110.837 207.745C110.703 209.395 110.806 211.044 110.6 212.683C110.249 215.57 109.579 218.539 108.538 221.251C107.363 224.323 105.228 226.066 102.125 227.024C100.135 227.643 98.1764 228.179 96.5062 229.499C95.0113 230.684 93.9803 232.313 93.2173 234.035C91.145 238.685 90.1553 243.871 89.1965 248.84C88.5469 252.181 88.0211 255.542 87.2066 258.851C86.3922 262.161 85.5261 265.45 85.0622 268.831C84.9797 269.006 84.8972 269.171 84.825 269.347C84.6085 269.852 85.4024 270.12 85.6705 269.708C88.8768 264.779 92.774 260.346 98.1042 257.635C100.506 256.408 103.703 256.15 105.713 254.222C107.239 252.758 107.445 250.521 107.218 248.521C106.919 245.902 105.661 243.747 104.352 241.51C103.63 240.283 102.785 238.974 103.074 237.479C103.352 236.077 104.517 235.035 105.672 234.314C107.888 232.942 110.476 232.324 112.28 230.344C113.961 228.509 114.899 226.21 115.085 223.736C115.332 220.436 114.765 216.89 114.26 213.632L114.27 213.642Z" fill="#6BAEFF"/>
<path d="M70.5981 230.673C67.7731 227.034 64.3606 223.889 60.5253 221.343C58.4736 219.982 53.6486 217.301 52.6691 221.312C52.1021 223.662 54.4012 225.972 55.9167 227.446C58.1952 229.663 60.8243 231.57 62.7419 234.127C60.3603 234.89 57.8756 235.034 55.8136 236.673C53.3702 238.622 52.267 242.375 54.7002 244.767C55.8858 245.932 57.4529 246.643 58.9169 247.355C60.8346 248.282 62.7831 249.118 64.742 249.942C68.9794 251.716 73.2683 253.51 76.8768 256.407C80.5574 259.355 84.0216 264.356 84.3102 269.17C84.3412 269.634 84.1659 269.212 84.434 269.005C84.5886 269.139 85.0835 268.902 85.0835 268.634C85.0113 261.489 83.7226 254.675 80.8049 248.128C78.0934 242.055 74.6808 235.941 70.5981 230.683V230.673Z" fill="#6BAEFF"/>
<path d="M60.8246 164.114C62.3814 167.351 64.0104 170.516 65.7424 173.671C67.4126 176.712 69.0725 179.723 70.32 182.971C71.8562 186.96 73.4646 190.889 75.0832 194.848C76.774 198.961 78.2793 203.147 79.4855 207.426C81.8465 215.777 83.5992 224.365 84.4652 233.005C84.9086 237.397 85.1045 241.809 84.9807 246.222C84.8879 249.665 84.4962 253.078 84.1766 256.511C83.8363 260.078 83.5992 263.697 83.8982 267.275C84.1456 270.265 84.6199 273.832 86.9499 275.966C87.4036 276.389 88.0531 275.863 87.785 275.327C85.022 269.667 85.1766 263.491 85.7024 257.357C85.9911 253.965 86.3932 250.593 86.5169 247.191C86.6613 242.861 86.4963 238.52 86.0839 234.211C85.2797 225.736 83.5889 217.364 81.4032 209.147C80.2794 204.931 78.8876 200.796 77.2895 196.745C75.6812 192.682 73.8254 188.723 72.2686 184.641C69.454 177.249 65.1651 170.702 61.3607 163.815C61.1648 163.454 60.6493 163.773 60.8143 164.134L60.8246 164.114Z" fill="#43588E"/>
<path d="M84.6098 224.539C85.0531 219.157 85.5377 213.971 87.3419 208.847C88.1874 206.455 89.208 204.125 90.0328 201.723C90.703 199.733 91.7134 197.011 91.1979 194.898C91.136 194.661 90.7958 194.671 90.7339 194.898C90.3834 196.104 90.4246 197.424 90.1772 198.661C89.9297 199.867 89.6101 201.042 89.239 202.218C88.4451 204.702 87.4038 207.084 86.5068 209.538C84.7645 214.27 83.8675 219.507 84.249 224.539C84.2696 224.776 84.5995 224.776 84.6201 224.539H84.6098Z" fill="#43588E"/>
<path d="M53.4181 193.609C55.5523 198.764 61.9754 199.063 66.6561 200.218C69.9965 201.043 72.4606 203.27 74.2339 206.167C76.1721 209.332 77.4815 213.043 78.564 216.58C78.5743 216.621 78.6362 216.6 78.6259 216.559C77.3165 210.373 75.4401 202.929 69.0686 200.053C63.9549 197.743 57.2225 198.909 53.9646 193.382C53.7996 193.114 53.3047 193.29 53.4388 193.609H53.4181Z" fill="#43588E"/>
<path d="M81.2304 223.724C81.4881 224.065 81.7149 224.426 81.983 224.766C82.117 224.931 82.2407 225.085 82.4057 225.219C82.5706 225.353 82.7665 225.529 83.0037 225.518C83.0965 225.518 83.1686 225.405 83.1171 225.323C83.014 225.147 82.8181 225.044 82.6737 224.92C82.5191 224.786 82.3644 224.652 82.2201 224.508C81.9211 224.23 81.6531 223.92 81.3541 223.632C81.3025 223.58 81.1891 223.652 81.2407 223.724H81.2304Z" fill="#43588E"/>
<path d="M67.8781 240.086C71.5587 243.107 74.961 246.685 77.6622 250.613C78.951 252.489 80.1469 254.469 81.2295 256.469C82.4048 258.654 83.1883 260.964 84.1059 263.263C84.1781 263.438 84.4977 263.438 84.4668 263.211C83.9513 258.355 80.8789 254.201 78.4252 250.159C77.1467 248.066 75.559 246.375 73.8475 244.623C72.0846 242.818 70.2803 241.107 68.2183 239.653C67.9709 239.478 67.641 239.89 67.8884 240.086H67.8781Z" fill="#43588E"/>
<path d="M97.2094 234.376C95.4361 235.386 95.3742 238.18 95.3433 239.974C95.2814 243.418 96.1268 246.645 94.6216 249.923C93.2607 252.882 91.0853 255.356 89.3738 258.099C87.7758 260.676 86.1881 263.965 86.2293 267.058C86.2293 267.234 86.5077 267.337 86.5901 267.151C87.2397 265.749 87.4665 264.151 87.9304 262.677C88.4459 261.017 89.1779 259.511 90.1161 258.058C91.7657 255.501 93.7865 253.181 95.1268 250.439C96.5392 247.542 96.333 244.675 96.2402 241.541C96.1784 239.541 95.9825 236.324 97.5908 234.84C97.8383 234.603 97.5187 234.211 97.23 234.376H97.2094Z" fill="#43588E"/>
<path d="M85.3521 267.377C78.2073 267.274 64.5879 267.202 64.5879 267.202L67.9592 292.214C68.7222 297.843 73.5163 302.039 79.197 302.039H91.5071C97.1879 302.039 101.992 297.843 102.745 292.214L106.116 267.202C106.116 267.202 92.4968 267.284 85.3521 267.377Z" fill="white"/>
<path d="M430.838 221.405L390.062 302.183L271.178 303.039L307.861 220.271L430.838 221.405Z" fill="#F6F7FA"/>
<path d="M192.271 302.533L192.292 296.068H269.256L304.66 218.424H427.74L430.833 221.414H310.598L273.802 302.471C273.802 302.471 192.271 302.326 192.271 302.533Z" fill="#D9DEE8"/>
<path d="M369.104 265.985C367.764 270.016 360.475 273.13 352.825 272.934C345.175 272.738 340.061 269.325 341.412 265.294C342.752 261.263 350.041 258.149 357.691 258.345C365.341 258.541 370.455 261.954 369.104 265.985Z" fill="#D9DEE8"/>
<path d="M273.805 302.976C273.733 302.976 273.66 302.966 273.588 302.935C273.331 302.822 273.217 302.512 273.331 302.255L310.261 220.899H430.825C431.114 220.899 431.34 221.126 431.34 221.414C431.34 221.703 431.114 221.93 430.825 221.93H310.92L274.258 302.688C274.176 302.873 273.98 302.987 273.784 302.987L273.805 302.976Z" fill="white"/>
<path d="M186.917 308.647H45.4961V340H186.917V308.647Z" fill="#596B9B"/>
<path d="M440.56 308.647H186.111V340H440.56V308.647Z" fill="#7A89AF"/>
<path d="M186.917 308.647H186.113H45.4961V314.411H186.113H186.917H440.562V308.647H186.917Z" fill="#BDC4D7"/>
<path d="M193.106 302.461H38.6738V310.142H193.106V302.461Z" fill="#6F7FA9"/>
<path d="M446.749 302.461H192.3V310.142H446.749V302.461Z" fill="#9CA6C3"/>
<path d="M151.218 101.84H101.298C98.2057 101.84 95.6992 104.347 95.6992 107.439V132.358C95.6992 135.45 98.2057 137.956 101.298 137.956H151.218C154.31 137.956 156.816 135.45 156.816 132.358V107.439C156.816 104.347 154.31 101.84 151.218 101.84Z" fill="white"/>
<path d="M171.044 119.894L152.29 111.986V127.801L171.044 119.894Z" fill="white"/>
<path d="M114.411 123.347C116.318 123.347 117.865 121.801 117.865 119.893C117.865 117.986 116.318 116.439 114.411 116.439C112.503 116.439 110.957 117.986 110.957 119.893C110.957 121.801 112.503 123.347 114.411 123.347Z" fill="#223A7A"/>
<path d="M126.256 123.347C128.163 123.347 129.709 121.801 129.709 119.893C129.709 117.986 128.163 116.439 126.256 116.439C124.348 116.439 122.802 117.986 122.802 119.893C122.802 121.801 124.348 123.347 126.256 123.347Z" fill="#223A7A"/>
<path d="M138.105 123.347C140.013 123.347 141.559 121.801 141.559 119.893C141.559 117.986 140.013 116.439 138.105 116.439C136.198 116.439 134.651 117.986 134.651 119.893C134.651 121.801 136.198 123.347 138.105 123.347Z" fill="#223A7A"/>
<path d="M405.381 25.166H290.127C282.724 25.166 276.724 31.1664 276.724 38.5689V93.2424C276.724 100.645 282.724 106.645 290.127 106.645H300.457C300.746 111.604 300.034 118.976 295.9 128.399C309.221 122.255 316.881 113.037 320.891 106.645H405.391C412.794 106.645 418.794 100.645 418.794 93.2424V38.5689C418.794 31.1664 412.794 25.166 405.391 25.166H405.381Z" fill="#60A8FF"/>
<path d="M356.207 51.2189H299.039C297.472 51.2189 296.193 49.9405 296.193 48.3734C296.193 46.8063 297.472 45.5278 299.039 45.5278H356.207C357.775 45.5278 359.053 46.796 359.053 48.3734C359.053 49.9405 357.785 51.2189 356.207 51.2189Z" fill="white"/>
<path d="M397.2 67.788H297.936C296.977 67.788 296.193 67.0044 296.193 66.0456C296.193 65.0868 296.977 64.3032 297.936 64.3032H397.2C398.158 64.3032 398.942 65.0868 398.942 66.0456C398.942 67.0044 398.158 67.788 397.2 67.788Z" fill="#D2E6FF"/>
<path d="M397.2 77.4584H297.936C296.977 77.4584 296.193 76.6748 296.193 75.716C296.193 74.7572 296.977 73.9736 297.936 73.9736H397.2C398.158 73.9736 398.942 74.7572 398.942 75.716C398.942 76.6748 398.158 77.4584 397.2 77.4584Z" fill="#D2E6FF"/>
<path d="M375.555 87.768H297.952C296.994 87.768 296.21 86.9844 296.21 86.0256C296.21 85.0668 296.994 84.2832 297.952 84.2832H375.555C376.514 84.2832 377.297 85.0668 377.297 86.0256C377.297 86.9844 376.514 87.768 375.555 87.768Z" fill="#D2E6FF"/>
<path d="M396.421 51.2189H369.151C367.584 51.2189 366.306 49.9405 366.306 48.3734C366.306 46.8063 367.584 45.5278 369.151 45.5278H396.421C397.988 45.5278 399.266 46.796 399.266 48.3734C399.266 49.9405 397.988 51.2189 396.421 51.2189Z" fill="white"/>
<path d="M327.692 151.689H296.731C295.592 151.689 294.669 152.613 294.669 153.751V174.907C294.669 176.046 295.592 176.969 296.731 176.969H327.692C328.83 176.969 329.754 176.046 329.754 174.907V153.751C329.754 152.613 328.83 151.689 327.692 151.689Z" fill="white"/>
<path d="M312.432 168.113C312.257 168.113 312.081 168.051 311.937 167.938L295.08 154.02C294.75 153.751 294.709 153.257 294.977 152.927C295.256 152.597 295.74 152.555 296.07 152.824L312.422 166.33L328.35 152.473C328.67 152.195 329.165 152.226 329.443 152.545C329.722 152.865 329.691 153.36 329.371 153.638L312.947 167.928C312.803 168.051 312.617 168.113 312.442 168.113H312.432Z" fill="#6F7FA9"/>
<path d="M295.577 176.392C295.381 176.392 295.196 176.319 295.041 176.175C294.732 175.876 294.722 175.392 295.01 175.082L306.795 162.69C307.083 162.38 307.578 162.37 307.887 162.659C308.197 162.958 308.207 163.442 307.918 163.752L296.134 176.144C295.979 176.299 295.784 176.381 295.577 176.381V176.392Z" fill="#6F7FA9"/>
<path d="M328.855 175.939C328.66 175.939 328.464 175.867 328.309 175.712L316.566 163.938C316.267 163.639 316.267 163.144 316.566 162.845C316.865 162.546 317.36 162.546 317.659 162.845L329.402 174.619C329.701 174.918 329.701 175.413 329.402 175.712C329.247 175.867 329.051 175.939 328.855 175.939Z" fill="#6F7FA9"/>
<path d="M331.373 161.246C337.084 161.246 341.713 156.616 341.713 150.905C341.713 145.194 337.084 140.564 331.373 140.564C325.661 140.564 321.032 145.194 321.032 150.905C321.032 156.616 325.661 161.246 331.373 161.246Z" fill="#FF5F42"/>
<path d="M328.723 150.644L328.699 150.368C329.003 150.504 329.267 150.68 329.491 150.896C329.715 151.112 329.887 151.348 330.007 151.604C330.127 151.86 330.187 152.124 330.187 152.396C330.187 152.852 330.059 153.272 329.803 153.656C329.555 154.032 329.219 154.336 328.795 154.568C328.371 154.792 327.899 154.904 327.379 154.904C326.859 154.904 326.387 154.792 325.963 154.568C325.539 154.336 325.199 154.032 324.943 153.656C324.695 153.272 324.571 152.852 324.571 152.396C324.571 152.028 324.647 151.712 324.799 151.448C324.959 151.176 325.155 150.948 325.387 150.764C325.627 150.58 325.863 150.428 326.095 150.308L325.999 150.644C325.799 150.564 325.603 150.452 325.411 150.308C325.227 150.156 325.075 149.964 324.955 149.732C324.835 149.5 324.775 149.228 324.775 148.916C324.775 148.468 324.891 148.064 325.123 147.704C325.355 147.336 325.667 147.044 326.059 146.828C326.459 146.612 326.899 146.504 327.379 146.504C327.867 146.504 328.303 146.612 328.687 146.828C329.079 147.044 329.391 147.336 329.623 147.704C329.855 148.064 329.971 148.468 329.971 148.916C329.971 149.26 329.903 149.548 329.767 149.78C329.631 150.012 329.467 150.196 329.275 150.332C329.083 150.468 328.899 150.572 328.723 150.644ZM326.215 148.94C326.215 149.156 326.263 149.348 326.359 149.516C326.463 149.684 326.603 149.82 326.779 149.924C326.955 150.02 327.155 150.068 327.379 150.068C327.603 150.068 327.799 150.02 327.967 149.924C328.143 149.82 328.279 149.684 328.375 149.516C328.479 149.348 328.531 149.156 328.531 148.94C328.531 148.62 328.419 148.356 328.195 148.148C327.979 147.932 327.707 147.824 327.379 147.824C327.043 147.824 326.763 147.932 326.539 148.148C326.323 148.356 326.215 148.62 326.215 148.94ZM327.379 153.584C327.763 153.584 328.087 153.468 328.351 153.236C328.615 152.996 328.747 152.708 328.747 152.372C328.747 152.14 328.687 151.932 328.567 151.748C328.447 151.564 328.283 151.42 328.075 151.316C327.867 151.204 327.635 151.148 327.379 151.148C327.123 151.148 326.891 151.204 326.683 151.316C326.475 151.42 326.311 151.564 326.191 151.748C326.071 151.932 326.011 152.14 326.011 152.372C326.011 152.708 326.143 152.996 326.407 153.236C326.671 153.468 326.995 153.584 327.379 153.584ZM333.557 155.024C333.261 155.024 332.945 154.98 332.609 154.892C332.273 154.796 331.997 154.66 331.781 154.484C331.677 154.396 331.593 154.284 331.529 154.148C331.473 154.004 331.445 153.868 331.445 153.74C331.445 153.604 331.501 153.476 331.613 153.356C331.733 153.236 331.901 153.176 332.117 153.176C332.261 153.176 332.441 153.252 332.657 153.404C332.785 153.484 332.925 153.556 333.077 153.62C333.229 153.684 333.385 153.716 333.545 153.716C333.929 153.716 334.261 153.648 334.541 153.512C334.821 153.368 335.037 153.172 335.189 152.924C335.341 152.676 335.417 152.384 335.417 152.048C335.417 151.744 335.345 151.484 335.201 151.268C335.065 151.052 334.881 150.884 334.649 150.764C334.425 150.644 334.181 150.584 333.917 150.584C333.669 150.584 333.453 150.624 333.269 150.704C333.085 150.784 332.917 150.868 332.765 150.956C332.613 151.036 332.461 151.076 332.309 151.076C332.045 151.076 331.849 151.02 331.721 150.908C331.593 150.788 331.513 150.648 331.481 150.488C331.449 150.328 331.441 150.184 331.457 150.056L331.829 147.14C331.861 146.972 331.941 146.836 332.069 146.732C332.205 146.62 332.365 146.564 332.549 146.564H336.017C336.209 146.564 336.369 146.628 336.497 146.756C336.625 146.884 336.689 147.044 336.689 147.236C336.689 147.42 336.625 147.576 336.497 147.704C336.369 147.824 336.209 147.884 336.017 147.884H332.921L333.053 147.776L332.729 150.212L332.573 149.756C332.621 149.676 332.725 149.6 332.885 149.528C333.045 149.456 333.229 149.396 333.437 149.348C333.645 149.292 333.849 149.264 334.049 149.264C334.585 149.264 335.065 149.388 335.489 149.636C335.913 149.876 336.245 150.208 336.485 150.632C336.733 151.048 336.857 151.52 336.857 152.048C336.857 152.648 336.721 153.172 336.449 153.62C336.177 154.068 335.793 154.416 335.297 154.664C334.809 154.904 334.229 155.024 333.557 155.024Z" fill="white"/>
<path d="M435.274 129.399H374.837C372.559 129.399 370.713 131.245 370.713 133.523V142.977C370.713 145.255 372.559 147.101 374.837 147.101H435.274C437.551 147.101 439.398 145.255 439.398 142.977V133.523C439.398 131.245 437.551 129.399 435.274 129.399Z" fill="#223A7A"/>
<path d="M379.2 142.895C378.932 142.895 378.715 142.802 378.55 142.606C378.385 142.41 378.313 142.173 378.334 141.884L378.592 139.595C378.612 139.534 378.592 139.503 378.561 139.482C378.519 139.461 378.478 139.482 378.416 139.513L376.53 140.874C376.292 141.049 376.055 141.111 375.808 141.059C375.56 141.008 375.354 140.864 375.2 140.606C375.024 140.296 374.993 140.028 375.097 139.791C375.2 139.554 375.385 139.4 375.633 139.296L377.746 138.338C377.808 138.317 377.829 138.286 377.829 138.255C377.829 138.224 377.798 138.183 377.746 138.173L375.633 137.214C375.365 137.1 375.189 136.915 375.107 136.667C375.035 136.42 375.055 136.162 375.189 135.915C375.344 135.667 375.55 135.513 375.798 135.461C376.045 135.41 376.292 135.461 376.519 135.616L378.406 137.008C378.468 137.049 378.509 137.059 378.55 137.039C378.592 137.018 378.602 136.977 378.581 136.925L378.324 134.636C378.303 134.348 378.385 134.1 378.561 133.915C378.736 133.719 378.963 133.626 379.262 133.626C379.53 133.626 379.757 133.719 379.932 133.915C380.107 134.111 380.169 134.348 380.138 134.636L379.88 136.925C379.86 136.987 379.88 137.018 379.911 137.039C379.952 137.059 379.994 137.039 380.056 137.008L381.942 135.647C382.169 135.471 382.417 135.41 382.685 135.461C382.942 135.513 383.138 135.657 383.283 135.915C383.458 136.224 383.489 136.492 383.386 136.729C383.283 136.956 383.097 137.121 382.85 137.224L380.736 138.183C380.674 138.204 380.654 138.235 380.654 138.265C380.654 138.296 380.684 138.338 380.736 138.348L382.85 139.307C383.118 139.42 383.303 139.606 383.386 139.853C383.468 140.101 383.437 140.358 383.283 140.606C383.149 140.853 382.953 141.008 382.685 141.059C382.427 141.111 382.179 141.059 381.942 140.905L380.056 139.513C379.994 139.472 379.952 139.461 379.911 139.482C379.87 139.503 379.86 139.544 379.88 139.595L380.138 141.884C380.179 142.173 380.107 142.42 379.922 142.606C379.736 142.802 379.499 142.895 379.21 142.895H379.2Z" fill="white"/>
<path d="M391.689 142.895C391.421 142.895 391.204 142.802 391.039 142.606C390.874 142.41 390.802 142.173 390.823 141.884L391.08 139.595C391.101 139.534 391.08 139.503 391.049 139.482C391.008 139.461 390.967 139.482 390.905 139.513L389.018 140.874C388.781 141.049 388.544 141.111 388.297 141.059C388.049 141.008 387.843 140.864 387.688 140.606C387.513 140.296 387.482 140.028 387.585 139.791C387.688 139.554 387.874 139.4 388.121 139.296L390.235 138.338C390.297 138.317 390.317 138.286 390.317 138.255C390.317 138.224 390.286 138.183 390.235 138.173L388.121 137.214C387.853 137.1 387.678 136.915 387.596 136.667C387.523 136.42 387.544 136.162 387.678 135.915C387.833 135.667 388.039 135.513 388.286 135.461C388.534 135.41 388.781 135.461 389.008 135.616L390.895 137.008C390.957 137.049 390.998 137.059 391.039 137.039C391.08 137.018 391.091 136.977 391.07 136.925L390.812 134.636C390.792 134.348 390.874 134.1 391.049 133.915C391.225 133.719 391.451 133.626 391.75 133.626C392.019 133.626 392.245 133.719 392.421 133.915C392.596 134.111 392.658 134.348 392.627 134.636L392.369 136.925C392.348 136.987 392.359 137.018 392.4 137.039C392.441 137.059 392.482 137.039 392.544 137.008L394.431 135.647C394.658 135.471 394.905 135.41 395.173 135.461C395.431 135.513 395.627 135.657 395.771 135.915C395.947 136.224 395.978 136.492 395.874 136.729C395.771 136.956 395.586 137.121 395.338 137.224L393.225 138.183C393.163 138.204 393.142 138.235 393.142 138.265C393.142 138.296 393.173 138.338 393.225 138.348L395.338 139.307C395.606 139.42 395.792 139.606 395.874 139.853C395.957 140.101 395.926 140.358 395.771 140.606C395.637 140.853 395.441 141.008 395.173 141.059C394.916 141.111 394.668 141.059 394.431 140.905L392.544 139.513C392.482 139.472 392.441 139.461 392.4 139.482C392.359 139.503 392.348 139.544 392.369 139.595L392.627 141.884C392.668 142.173 392.596 142.42 392.41 142.606C392.225 142.802 391.988 142.895 391.699 142.895H391.689Z" fill="white"/>
<path d="M404.202 142.895C403.934 142.895 403.717 142.802 403.552 142.606C403.387 142.41 403.315 142.173 403.336 141.884L403.594 139.595C403.614 139.534 403.594 139.503 403.563 139.482C403.521 139.461 403.48 139.482 403.418 139.513L401.532 140.874C401.294 141.049 401.057 141.111 400.81 141.059C400.562 141.008 400.356 140.864 400.202 140.606C400.026 140.296 399.995 140.028 400.098 139.791C400.202 139.554 400.387 139.4 400.635 139.296L402.748 138.338C402.81 138.317 402.831 138.286 402.831 138.255C402.831 138.224 402.8 138.183 402.748 138.173L400.635 137.214C400.367 137.1 400.191 136.915 400.109 136.667C400.037 136.42 400.057 136.162 400.191 135.915C400.346 135.667 400.552 135.513 400.8 135.461C401.047 135.41 401.294 135.461 401.521 135.616L403.408 137.008C403.47 137.049 403.511 137.059 403.552 137.039C403.594 137.018 403.604 136.977 403.583 136.925L403.325 134.636C403.305 134.348 403.387 134.1 403.563 133.915C403.738 133.719 403.965 133.626 404.264 133.626C404.532 133.626 404.759 133.719 404.934 133.915C405.109 134.111 405.171 134.348 405.14 134.636L404.882 136.925C404.862 136.987 404.872 137.018 404.913 137.039C404.954 137.059 404.996 137.039 405.058 137.008L406.944 135.647C407.171 135.471 407.418 135.41 407.687 135.461C407.944 135.513 408.14 135.657 408.285 135.915C408.46 136.224 408.491 136.492 408.388 136.729C408.285 136.956 408.099 137.121 407.852 137.224L405.738 138.183C405.676 138.204 405.655 138.235 405.655 138.265C405.655 138.296 405.686 138.338 405.738 138.348L407.852 139.307C408.12 139.42 408.305 139.606 408.388 139.853C408.47 140.101 408.439 140.358 408.285 140.606C408.151 140.853 407.955 141.008 407.687 141.059C407.429 141.111 407.181 141.059 406.944 140.905L405.058 139.513C404.996 139.472 404.954 139.461 404.913 139.482C404.872 139.503 404.862 139.544 404.882 139.595L405.14 141.884C405.181 142.173 405.109 142.42 404.923 142.606C404.738 142.802 404.501 142.895 404.212 142.895H404.202Z" fill="white"/>
<path d="M416.691 142.895C416.423 142.895 416.206 142.802 416.041 142.606C415.876 142.41 415.804 142.173 415.825 141.884L416.082 139.595C416.103 139.534 416.082 139.503 416.051 139.482C416.01 139.461 415.969 139.482 415.907 139.513L414.02 140.874C413.783 141.049 413.546 141.111 413.299 141.059C413.051 141.008 412.845 140.864 412.69 140.606C412.515 140.296 412.484 140.028 412.587 139.791C412.69 139.554 412.876 139.4 413.123 139.296L415.237 138.338C415.299 138.317 415.319 138.286 415.319 138.255C415.319 138.224 415.288 138.183 415.237 138.173L413.123 137.214C412.855 137.1 412.68 136.915 412.598 136.667C412.525 136.42 412.546 136.162 412.68 135.915C412.835 135.667 413.041 135.513 413.288 135.461C413.536 135.41 413.783 135.461 414.01 135.616L415.897 137.008C415.959 137.049 416 137.059 416.041 137.039C416.082 137.018 416.093 136.977 416.072 136.925L415.814 134.636C415.794 134.348 415.876 134.1 416.051 133.915C416.227 133.719 416.453 133.626 416.752 133.626C417.02 133.626 417.247 133.719 417.423 133.915C417.598 134.111 417.66 134.348 417.629 134.636L417.371 136.925C417.35 136.987 417.361 137.018 417.402 137.039C417.443 137.059 417.484 137.039 417.546 137.008L419.433 135.647C419.66 135.471 419.907 135.41 420.175 135.461C420.433 135.513 420.629 135.657 420.773 135.915C420.949 136.224 420.98 136.492 420.876 136.729C420.773 136.956 420.588 137.121 420.34 137.224L418.227 138.183C418.165 138.204 418.144 138.235 418.144 138.265C418.144 138.296 418.175 138.338 418.227 138.348L420.34 139.307C420.608 139.42 420.794 139.606 420.876 139.853C420.959 140.101 420.928 140.358 420.773 140.606C420.639 140.853 420.443 141.008 420.175 141.059C419.918 141.111 419.67 141.059 419.433 140.905L417.546 139.513C417.484 139.472 417.443 139.461 417.402 139.482C417.361 139.503 417.35 139.544 417.371 139.595L417.629 141.884C417.67 142.173 417.598 142.42 417.412 142.606C417.227 142.802 416.99 142.895 416.701 142.895H416.691Z" fill="white"/>
<path d="M429.204 142.895C428.936 142.895 428.719 142.802 428.554 142.606C428.389 142.41 428.317 142.173 428.338 141.884L428.595 139.595C428.616 139.534 428.595 139.503 428.565 139.482C428.523 139.461 428.482 139.482 428.42 139.513L426.533 140.874C426.296 141.049 426.059 141.111 425.812 141.059C425.564 141.008 425.358 140.864 425.204 140.606C425.028 140.296 424.997 140.028 425.1 139.791C425.204 139.554 425.389 139.4 425.637 139.296L427.75 138.338C427.812 138.317 427.833 138.286 427.833 138.255C427.833 138.224 427.802 138.183 427.75 138.173L425.637 137.214C425.368 137.1 425.193 136.915 425.111 136.667C425.039 136.42 425.059 136.162 425.193 135.915C425.348 135.667 425.554 135.513 425.801 135.461C426.049 135.41 426.296 135.461 426.523 135.616L428.41 137.008C428.472 137.049 428.513 137.059 428.554 137.039C428.595 137.018 428.606 136.977 428.585 136.925L428.327 134.636C428.307 134.348 428.389 134.1 428.565 133.915C428.74 133.719 428.967 133.626 429.266 133.626C429.534 133.626 429.76 133.719 429.936 133.915C430.111 134.111 430.173 134.348 430.142 134.636L429.884 136.925C429.864 136.987 429.874 137.018 429.915 137.039C429.956 137.059 429.998 137.039 430.059 137.008L431.946 135.647C432.173 135.471 432.42 135.41 432.688 135.461C432.946 135.513 433.142 135.657 433.286 135.915C433.462 136.224 433.493 136.492 433.39 136.729C433.286 136.956 433.101 137.121 432.853 137.224L430.74 138.183C430.678 138.204 430.657 138.235 430.657 138.265C430.657 138.296 430.688 138.338 430.74 138.348L432.853 139.307C433.122 139.42 433.307 139.606 433.39 139.853C433.472 140.101 433.441 140.358 433.286 140.606C433.152 140.853 432.957 141.008 432.688 141.059C432.431 141.111 432.183 141.059 431.946 140.905L430.059 139.513C429.998 139.472 429.956 139.461 429.915 139.482C429.874 139.503 429.864 139.544 429.884 139.595L430.142 141.884C430.183 142.173 430.111 142.42 429.925 142.606C429.74 142.802 429.503 142.895 429.214 142.895H429.204Z" fill="#67ACFF"/>
</svg>
