<svg width="453" height="339" viewBox="0 0 453 339" fill="none" xmlns="http://www.w3.org/2000/svg">
<path d="M409.741 333.325C457.946 296.672 479.414 195.037 401.144 145.199C349.326 112.21 317.098 131.029 258.804 109.205C187.639 82.571 177.032 2.09897 90.4688 41.6955C44.609 62.6661 12.8178 121.772 7.22485 188.947C1.7436 254.731 25.0592 299.87 72.7055 330.757C184.594 335.518 296.706 334.655 409.741 333.325Z" fill="#DFF3FC"/>
<path d="M211.708 44.2308C204.427 73.464 231.465 102.403 259.949 114.4C288.434 126.408 321.098 124.977 351.615 119.252C364.782 116.786 378.318 113.314 388.546 104.92C398.776 96.5257 404.706 81.9497 399.1 70.1752C394.152 59.7914 382.108 54.4726 370.625 51.7421C359.143 49.0117 346.948 47.8951 336.718 42.15C327.018 36.6992 320.137 27.6755 311.701 20.5296C296.114 7.34429 274.218 0.807426 253.954 4.97924C233.679 9.15105 217.897 19.3827 211.708 44.2308Z" fill="#DFF3FC"/>
<path d="M429.816 178.689V156.573H421.43C420.423 152.707 418.887 149.061 416.92 145.702L422.85 139.763L407.21 124.123L401.271 130.053C397.913 128.086 394.267 126.551 390.4 125.543V117.158H368.284V125.543C364.418 126.551 360.772 128.086 357.413 130.053L351.474 124.123L335.834 139.763L341.764 145.702C339.797 149.06 338.271 152.706 337.254 156.573H328.869V178.689H337.254C338.271 182.555 339.797 186.201 341.764 189.56L335.834 195.499L351.474 211.139L357.413 205.209C360.771 207.176 364.417 208.702 368.284 209.719V218.104H390.4V209.719C394.266 208.702 397.912 207.176 401.271 205.209L407.21 211.139L422.85 195.499L416.92 189.56C418.887 186.202 420.422 182.556 421.43 178.689H429.816ZM379.349 186.792C368.764 186.792 360.182 178.21 360.182 167.625C360.182 157.051 368.764 148.47 379.349 148.47C389.923 148.47 398.504 157.051 398.504 167.625C398.504 178.211 389.923 186.792 379.349 186.792Z" fill="#A2C7EB"/>
<path d="M362.985 234.1L358.777 223.132L354.619 224.728C353.383 223.003 351.929 221.486 350.314 220.195L352.125 216.122L341.394 211.341L339.577 215.411C337.538 215.074 335.437 215.007 333.328 215.243L331.732 211.084L320.765 215.291L322.361 219.45C320.635 220.685 319.119 222.14 317.827 223.755L313.754 221.944L308.973 232.675L313.043 234.492C312.707 236.531 312.645 238.63 312.875 240.74L308.716 242.336L312.924 253.304L317.082 251.708C318.323 253.432 319.772 254.95 321.387 256.241L319.576 260.314L330.307 265.095L332.124 261.025C334.164 261.362 336.263 261.424 338.373 261.193L339.969 265.352L350.936 261.145L349.34 256.986C351.065 255.746 352.583 254.296 353.874 252.681L357.947 254.492L362.728 243.761L358.658 241.944C358.995 239.905 359.062 237.805 358.826 235.696L362.985 234.1ZM339.499 247.721C334.25 249.735 328.36 247.112 326.347 241.862C324.335 236.618 326.958 230.73 332.208 228.716C337.451 226.704 343.34 229.328 345.351 234.571C347.365 239.82 344.742 245.709 339.499 247.721Z" stroke="#A2C7EB" stroke-miterlimit="10"/>
<path d="M327.048 195.631L324.204 188.22L321.395 189.298C320.56 188.131 319.577 187.107 318.486 186.234L319.709 183.482L312.457 180.252L311.229 183.002C309.851 182.775 308.432 182.729 307.006 182.889L305.928 180.079L298.518 182.922L299.596 185.732C298.429 186.566 297.405 187.55 296.532 188.64L293.779 187.417L290.55 194.668L293.3 195.896C293.073 197.275 293.03 198.693 293.187 200.119L290.377 201.197L293.22 208.608L296.03 207.53C296.868 208.695 297.848 209.72 298.939 210.593L297.716 213.346L304.967 216.576L306.195 213.825C307.574 214.052 308.992 214.095 310.418 213.939L311.496 216.748L318.907 213.905L317.829 211.096C318.994 210.258 320.019 209.278 320.891 208.188L323.644 209.411L326.874 202.159L324.123 200.931C324.351 199.553 324.396 198.134 324.237 196.708L327.048 195.631ZM311.178 204.833C307.632 206.193 303.653 204.421 302.292 200.874C300.932 197.331 302.705 193.353 306.251 191.992C309.794 190.632 313.773 192.405 315.132 195.948C316.494 199.495 314.721 203.474 311.178 204.833Z" stroke="#A2C7EB" stroke-miterlimit="10"/>
<path d="M324.456 65.8793C324.456 76.9919 319.262 86.8977 311.181 93.2985C305.231 98.0205 297.707 100.822 289.512 100.822C281.338 100.822 273.813 98.0205 267.843 93.2985C259.752 86.8977 254.568 76.9919 254.568 65.8793C254.568 46.5814 270.214 30.9355 289.512 30.9355C308.81 30.9355 324.456 46.5814 324.456 65.8793Z" fill="#0097D8" stroke="#0097D8" stroke-miterlimit="10"/>
<path d="M290.927 65.7377C297.197 64.9639 301.653 59.2542 300.879 52.9848C300.105 46.7155 294.395 42.2605 288.125 43.0344C281.855 43.8082 277.4 49.5179 278.174 55.7872C278.947 62.0566 284.657 66.5116 290.927 65.7377Z" fill="white"/>
<path d="M311.181 88.89C305.231 93.612 297.707 96.4145 289.512 96.4145C281.338 96.4145 273.813 93.613 267.843 88.89C270.078 79.0573 272.134 70.5686 274.275 68.4177C277.297 65.3959 285.325 63.6328 289.501 63.6328C293.677 63.6328 302.082 65.7735 303.635 67.3265C306.805 70.4843 309.534 79.2045 311.181 88.89Z" fill="white"/>
<path d="M239.299 152.018V134.763C239.299 130.053 243.116 126.236 247.826 126.236H302.192C306.901 126.236 310.718 130.053 310.718 134.763V152.018C310.718 156.728 306.901 160.545 302.192 160.545H247.836C243.126 160.555 239.299 156.728 239.299 152.018Z" fill="#0097D8"/>
<path d="M262.258 151.114L235.948 176.744L278.59 155.195" fill="#0097D8"/>
<path d="M245.895 134.336V134.244C245.895 133.544 246.463 132.976 247.164 132.976H274.042C274.743 132.976 275.311 133.544 275.311 134.244V134.336C275.311 135.036 274.743 135.605 274.042 135.605H247.164C246.463 135.605 245.895 135.036 245.895 134.336Z" fill="white"/>
<path d="M276.516 134.336V134.244C276.516 133.544 277.084 132.976 277.784 132.976H301.242C301.943 132.976 302.511 133.544 302.511 134.244V134.336C302.511 135.036 301.943 135.605 301.242 135.605H277.784C277.084 135.605 276.516 135.036 276.516 134.336Z" fill="white"/>
<path d="M266.278 140.111V140.02C266.278 139.319 266.847 138.751 267.547 138.751H301.247C301.947 138.751 302.515 139.319 302.515 140.02V140.111C302.515 140.812 301.947 141.38 301.247 141.38H267.547C266.847 141.38 266.278 140.812 266.278 140.111Z" fill="white"/>
<path d="M245.895 140.111V140.02C245.895 139.319 246.463 138.751 247.164 138.751H262.217C262.917 138.751 263.486 139.319 263.486 140.02V140.111C263.486 140.812 262.917 141.38 262.217 141.38H247.164C246.463 141.38 245.895 140.812 245.895 140.111Z" fill="white"/>
<path d="M270.955 145.887V145.795C270.955 145.095 271.523 144.526 272.223 144.526H301.244C301.944 144.526 302.512 145.095 302.512 145.795V145.887C302.512 146.587 301.944 147.155 301.244 147.155H272.223C271.523 147.155 270.955 146.587 270.955 145.887Z" fill="white"/>
<path d="M245.895 145.887V145.795C245.895 145.095 246.463 144.526 247.164 144.526H267.211C267.911 144.526 268.48 145.095 268.48 145.795V145.887C268.48 146.587 267.911 147.155 267.211 147.155H247.164C246.463 147.155 245.895 146.587 245.895 145.887Z" fill="white"/>
<path d="M245.895 151.664V151.573C245.895 150.872 246.463 150.304 247.164 150.304H254.604C255.305 150.304 255.873 150.872 255.873 151.573V151.664C255.873 152.364 255.305 152.933 254.604 152.933H247.164C246.463 152.933 245.895 152.364 245.895 151.664Z" fill="white"/>
<path d="M258.503 151.664V151.573C258.503 150.872 259.072 150.304 259.772 150.304H301.247C301.947 150.304 302.516 150.872 302.516 151.573V151.664C302.516 152.364 301.947 152.933 301.247 152.933H259.772C259.072 152.933 258.503 152.364 258.503 151.664Z" fill="white"/>
<path d="M105.106 127.591C112.939 110.757 105.643 90.7598 88.8079 82.9265C71.9733 75.0932 51.976 82.3901 44.1426 99.2245C36.3092 116.059 43.6061 136.056 60.4407 143.889C77.2753 151.723 97.2727 144.426 105.106 127.591Z" fill="#0097D8"/>
<path d="M69.3958 137.596C73.6409 136.105 75.8735 131.455 74.3824 127.21C72.8913 122.965 68.2412 120.732 63.996 122.223C59.7509 123.714 57.5183 128.364 59.0094 132.609C60.5005 136.854 65.1507 139.087 69.3958 137.596Z" fill="white"/>
<path d="M62.4134 132.833L62.0195 127.666L66.298 124.743L70.9692 126.985L71.362 132.152L67.0846 135.076L62.4134 132.833Z" fill="#0097D8"/>
<path d="M85.2717 104.575C89.5082 103.061 91.7149 98.3988 90.2004 94.1622C88.6859 89.9257 84.0238 87.719 79.7872 89.2334C75.5506 90.7479 73.3439 95.41 74.8584 99.6465C76.3729 103.883 81.0351 106.09 85.2717 104.575Z" fill="white"/>
<path d="M78.4971 99.3408L78.7772 92.7714L83.7276 88.4443L88.3988 90.6876L88.1187 97.2569L83.1673 101.583L78.4971 99.3408Z" fill="#0097D8"/>
<path d="M72.331 126.144L66.0996 123.151L70.7049 112.527C70.9972 111.853 71.3149 111.19 71.658 110.54L77.0692 100.303L83.3006 103.295L78.8587 113.758C78.5156 114.567 78.134 115.36 77.7178 116.134L72.331 126.144Z" fill="white"/>
<path d="M97.9707 131.496C99.1715 130.939 118.46 131.819 118.46 131.819L104.556 119.054L97.9707 131.496Z" fill="#0097D8"/>
<path d="M183.088 56.5614C190.333 39.8126 182.628 20.362 165.879 13.1173C149.13 5.87254 129.679 13.5771 122.435 30.3259C115.19 47.0747 122.894 66.5254 139.643 73.7701C156.392 81.0148 175.843 73.3103 183.088 56.5614Z" fill="#0097D8"/>
<path d="M153.88 15.2871H151.673V43.0363H153.88V15.2871Z" fill="white"/>
<path d="M128.395 59.0578L129.65 60.8721L152.777 44.8657L151.521 43.0514L128.395 59.0578Z" fill="white"/>
<path d="M155.818 43.4454C155.818 45.1252 154.457 46.4864 152.777 46.4864C151.098 46.4864 149.736 45.1252 149.736 43.4454C149.736 41.7655 151.098 40.4043 152.777 40.4043C154.457 40.4043 155.818 41.7665 155.818 43.4454Z" fill="white"/>
<path d="M242.477 267.186C240.518 236.978 253.734 205.715 275.994 187.83C276.685 218.19 263.601 248.915 242.477 267.186Z" fill="#A2C7EB"/>
<path d="M272.355 195.96C262.976 213.439 254.866 231.73 248.126 250.6C239.934 273.509 233.489 297.85 219.461 317.054" stroke="#6F8BBF" stroke-miterlimit="10" stroke-linecap="round"/>
<path d="M235.45 286.186C246.717 260.983 269.079 241.941 293.734 236.551C283.239 263.561 259.629 284.166 235.45 286.186Z" fill="#A2C7EB"/>
<path d="M287.682 242.104C270.843 256.923 253.719 271.326 236.311 285.304" stroke="#6F8BBF" stroke-miterlimit="10" stroke-linecap="round"/>
<path d="M228.805 308.142C243.858 285.659 271.629 273.925 294.61 280.341C277.71 302.539 249.877 314.304 228.805 308.142Z" fill="#A2C7EB"/>
<path d="M289.095 281.965C269.363 294.308 248.077 303.423 226.132 308.904" stroke="#6F8BBF" stroke-miterlimit="10" stroke-linecap="round"/>
<path d="M236.928 278.544C241.739 253.229 234.522 225.011 218.454 206.345C211.866 231.223 218.15 260.375 236.928 278.544Z" fill="#A2C7EB"/>
<path d="M220.115 212.8C223.282 236.349 228.916 258.406 237.645 279.965" stroke="#6F8BBF" stroke-miterlimit="10" stroke-linecap="round"/>
<path d="M228.67 300.103C226.619 274.078 213.282 249.635 193.772 236.146C194.899 249.93 198.563 263.217 204.38 275.296C211.069 289.171 220.894 297.972 228.67 300.103Z" fill="#A2C7EB"/>
<path d="M196.665 241.413C204.339 263.115 215.382 283.233 229.157 300.651" stroke="#6F8BBF" stroke-miterlimit="10" stroke-linecap="round"/>
<path d="M379.348 293.859C389.996 266.159 414.489 243.686 441.499 236.845C429.664 264.17 405.506 286.196 379.348 293.859Z" fill="#A2C7EB"/>
<path d="M434.944 242.6C419.495 254.344 404.818 267.326 391.135 281.384C374.509 298.457 358.826 317.499 338.556 328.888" stroke="#6F8BBF" stroke-miterlimit="10" stroke-linecap="round"/>
<path d="M365.353 307.918C385.644 290.063 413.212 282.227 437.208 287.485C416.867 307.268 387.552 315.988 365.353 307.918Z" fill="#A2C7EB"/>
<path d="M429.578 289.972C408.617 296.306 387.575 302.142 366.462 307.491" stroke="#6F8BBF" stroke-miterlimit="10" stroke-linecap="round"/>
<path d="M350.465 324.767C372.989 310.882 402.344 311.765 420.026 326.858C395.99 339.729 366.563 338.846 350.465 324.767Z" fill="#A2C7EB"/>
<path d="M414.497 326.047C392.004 328.99 369.439 328.422 347.809 324.352" stroke="#6F8BBF" stroke-miterlimit="10" stroke-linecap="round"/>
<path d="M369.793 301.716C384.42 281.131 389.607 253.045 383.06 229.861C367.032 249.33 360.638 277.863 369.793 301.716Z" fill="#A2C7EB"/>
<path d="M381.875 236.277C375.014 258.547 370.964 280.492 369.847 303.27" stroke="#6F8BBF" stroke-miterlimit="10" stroke-linecap="round"/>
<path d="M353.655 317.55C362.506 293.534 360.74 266.311 349.026 246.335C344.377 259.074 342.164 272.401 342.357 285.536C342.57 300.619 347.646 312.475 353.655 317.55Z" fill="#A2C7EB"/>
<path d="M349.411 252.202C347.3 274.665 348.813 297.097 353.847 318.23" stroke="#6F8BBF" stroke-miterlimit="10" stroke-linecap="round"/>
<path d="M77.5611 245.428C66.7062 212.227 36.4141 185.401 1.1748 177.788C15.9904 206.511 42.8617 229.37 77.5611 245.428Z" fill="#A2C7EB"/>
<path d="M79.3948 250.58C55.6174 237.133 25.8258 234.168 0 242.668C23.9541 254.634 52.3368 257.967 79.3948 250.58Z" fill="#A2C7EB"/>
<path d="M85.9762 257.778C60.2783 254.216 33.3674 260.551 12.4971 275.071C36.1629 283.674 64.5547 278.095 85.9762 257.778Z" fill="#A2C7EB"/>
<path d="M93.9786 273.508C68.5304 273.402 43.5095 285.496 28.5518 305.134C39.8776 307.404 51.9049 306.047 62.2949 301.342C72.6849 296.635 81.39 288.605 93.9786 273.508Z" fill="#A2C7EB"/>
<path d="M111.931 299.822C86.8383 295.52 60.102 303.295 42.0088 320.16C52.8089 324.262 64.9011 324.918 75.9499 322.004C86.9997 319.09 96.9481 312.62 111.931 299.822Z" fill="#A2C7EB"/>
<path d="M84.8304 247.001C68.2608 224.667 63.7642 194.571 73.1777 168.968C80.3663 181.141 86.5692 194.012 89.4641 207.693C92.359 221.374 91.7967 235.96 84.8304 247.001Z" fill="#A2C7EB"/>
<path d="M94.9544 268.549C91.0302 244.821 99.1435 219.672 116.28 202.487C118.253 227.036 110.741 252.045 94.9544 268.549Z" fill="#A2C7EB"/>
<path d="M8.88867 183.738C59.3202 216.005 98.7608 264.101 119.58 318.745" stroke="#6F8BBF" stroke-miterlimit="10" stroke-linecap="round"/>
<path d="M74.748 180.742C80.882 205.65 84.6143 231.08 85.877 256.585" stroke="#6F8BBF" stroke-miterlimit="10" stroke-linecap="round"/>
<path d="M112.52 212.121C110.51 232.217 104.3 251.858 94.3789 269.549" stroke="#6F8BBF" stroke-miterlimit="10" stroke-linecap="round"/>
<path d="M10.6182 243.248C33.7389 247.644 57.2392 250.027 80.7436 250.378" stroke="#6F8BBF" stroke-miterlimit="10" stroke-linecap="round"/>
<path d="M24.5469 273.098C45.8659 271.549 66.8398 266.384 86.2271 257.9" stroke="#6F8BBF" stroke-miterlimit="10" stroke-linecap="round"/>
<path d="M37.3242 301.548C56.9958 291.736 76.6694 281.911 96.341 272.099" stroke="#6F8BBF" stroke-miterlimit="10" stroke-linecap="round"/>
<path d="M50.1191 318.876C75.8028 313.92 83.434 308.006 111.939 299.823" stroke="#6F8BBF" stroke-miterlimit="10" stroke-linecap="round"/>
<path d="M212.715 271.834C212.715 271.834 214.938 292.206 217.425 293.84C221.871 296.773 273.334 303.554 273.334 303.554L271.649 316.942C271.649 316.942 201.164 323.276 198.169 319.754C192.972 313.643 183.837 284.167 183.837 284.167L212.715 271.834Z" fill="#E06A58"/>
<path d="M178.727 219.387L184.421 205.715C184.421 205.715 199.87 212.972 204.965 221.935C210.416 231.517 217.085 282.462 217.085 282.462C217.085 282.462 189.811 288.745 184.797 286.076C179.782 283.406 178.727 219.387 178.727 219.387Z" fill="#F2AE30"/>
<path d="M135.353 155.927C131.363 154.465 127.141 153.186 122.868 153.511C118.594 153.836 114.229 156.099 112.778 159.855C111.743 162.514 112.22 165.651 110.585 168.046C109.022 170.34 105.916 171.294 103.013 171.487C100.1 171.69 97.1666 171.305 94.2737 171.68C85.3413 172.868 78.9668 182.571 81.9003 190.519C83.0676 193.686 85.4631 196.711 84.915 200.01C84.3364 203.542 80.6315 205.867 79.1089 209.145C77.089 213.51 79.5048 218.798 83.4939 221.772C87.483 224.736 92.6699 225.863 97.7045 226.614C104.637 227.649 111.793 228.137 118.645 226.675C125.496 225.213 132.044 221.6 135.586 215.956C137.159 213.459 138.114 210.637 139.941 208.293C143.717 203.451 150.406 201.573 155.674 198.142C161.429 194.376 165.652 187.048 162.261 181.313C158.993 175.801 150.487 174.573 147.076 169.142C145.665 166.899 145.33 164.23 144.417 161.783C143.483 159.327 141.25 158.089 135.353 155.927Z" fill="#0A2240"/>
<path d="M158.6 223.538C159.605 224.695 160.793 225.963 162.437 226.075C164.173 226.197 165.624 224.969 166.741 223.781C172.506 217.681 176.313 210.19 177.856 202.465C176.425 201.653 175.044 200.872 173.796 200.141C172.638 199.451 171.765 198.486 171.268 197.36C170.923 196.527 170.801 195.654 170.893 194.741C171.705 187.108 172.425 182.855 175.105 175.11C162.376 172.237 150.368 168.827 143.466 163.062C142.624 166.614 141.629 173.567 139.507 180.459C137.244 187.757 133.711 194.974 127.723 198.08C139.477 205.023 149.962 213.651 158.6 223.538Z" fill="#F9A07B"/>
<path d="M170.893 194.752C170.802 195.665 170.923 196.548 171.269 197.37C163.737 206.506 146.897 194.569 139.508 180.47C141.629 173.578 142.624 166.625 143.466 163.072C150.359 168.838 162.377 172.258 175.105 175.121C172.426 182.866 171.705 187.108 170.893 194.752Z" fill="#E06A58"/>
<path d="M191.868 305.189C190.204 316.212 202.1 328.078 202.394 333.965C177.13 333.965 124.205 335.508 97.2559 331.843C96.0276 325.043 109.335 309.746 109.335 294.642C109.335 292.643 109.254 290.45 109.091 288.095C108.665 281.355 107.67 273.337 106.564 265.115C103.559 243.058 99.56 219.468 102.514 214.576C108.3 205.045 121.83 198.569 128.54 195.788C130.844 194.833 132.346 194.316 132.458 194.255C140.872 208.608 157.996 220.849 164.462 220.301C166.259 220.159 171.588 218.301 175.11 200.568C176.48 201.35 177.85 202.071 179.211 202.771C185.9 206.253 192.173 209.125 193.98 213.602C198.75 225.386 203.43 255.096 202.394 265.663C201.349 276.321 197.065 284.461 194.061 295.16C193.36 297.667 192.721 300.326 192.203 303.189C192.071 303.828 191.97 304.498 191.868 305.189Z" fill="#FFC73C"/>
<path d="M202.394 333.964C177.13 333.964 124.205 335.507 97.2559 331.843C96.0276 325.042 109.335 309.745 109.335 294.642C109.335 292.642 109.254 290.449 109.091 288.095C108.665 281.355 107.67 273.336 106.564 265.114C111.345 270.159 118.318 248.843 121.404 255.086C138.101 288.785 151.266 297.646 174.146 297.646C180.967 297.646 187.26 296.702 194.061 295.159C193.36 297.666 192.721 300.326 192.203 303.188C192.081 303.838 191.97 304.508 191.868 305.198C190.204 316.201 202.1 328.067 202.394 333.964Z" fill="#FFBB33"/>
<path d="M179.204 202.771C178.118 210.658 174.9 221.285 165.542 224.087C152.894 227.873 134.593 204.243 128.533 195.788C130.837 194.833 132.34 194.316 132.451 194.255C140.866 208.608 157.99 220.849 164.456 220.301C166.252 220.159 171.581 218.301 175.103 200.568C176.474 201.34 177.844 202.061 179.204 202.771Z" fill="#FCE172"/>
<path d="M184.405 322.098L184.313 330.898L341.646 331.832L341.97 321.854L184.405 322.098Z" fill="#325F73"/>
<path d="M409.834 243.585L406.332 240.032L291.733 239.281L234.241 322.423L237.246 324.839L409.834 243.585Z" fill="#325F73"/>
<path d="M293.95 242.356L237.25 324.839L345.555 325.377L409.838 243.585L293.95 242.356Z" fill="#0B2D50"/>
<path d="M321.32 295.006C328.282 295.006 333.927 292.184 333.927 288.703C333.927 285.222 328.282 282.399 321.32 282.399C314.357 282.399 308.713 285.222 308.713 288.703C308.713 292.184 314.357 295.006 321.32 295.006Z" fill="#3C738C"/>
<path d="M186.725 160.934C188.512 151.35 195.083 144.536 201.405 145.713C207.727 146.892 211.403 155.615 209.617 165.199C207.83 174.783 201.259 181.597 194.937 180.42C188.616 179.242 184.94 170.518 186.725 160.934Z" fill="#56C4F9"/>
<path d="M209.633 135.119C208.456 143.463 204.73 152.659 199.3 162.82C197.392 154.496 196.174 144.356 194.489 134.216C192.773 124.055 190.591 113.895 186.805 105.592C185.952 103.755 185.028 101.999 184.023 100.375C186.267 100.161 188.54 100.375 190.702 100.973C194.083 101.877 197.249 103.623 199.838 105.957C204.142 109.784 207.024 115.001 208.74 120.503C210.151 125.07 210.404 129.922 209.633 135.119Z" fill="#0B2D50"/>
<path d="M203.263 143.747C203.202 145.392 203.09 147.066 202.938 148.731C200.624 175.731 189.286 194.256 171.939 194.256C147.446 194.256 131.57 166.789 131.57 139.88C131.57 113.337 147.831 94.1219 166.863 96.3448C177.836 97.6035 185.855 101.247 191.549 106.587C195.315 110.139 198.035 114.433 199.893 119.315C202.014 124.786 203.04 130.978 203.253 137.647C203.253 137.667 203.273 137.687 203.273 137.708C203.354 139.677 203.334 141.687 203.263 143.747Z" fill="#F9A07B"/>
<path d="M203.269 143.747C202.539 141.138 201.452 138.591 199.97 136.307C185.526 143.859 168.311 146.772 151.989 144.011C148.883 146.599 145.848 149.147 142.793 151.695C142.854 139.413 143.026 131.1 147.817 125.152C152.314 119.569 159.815 117.468 166.921 116.554C174.919 115.509 183.05 115.549 191.028 116.706C194.083 117.133 197.25 117.793 199.91 119.335C202.031 124.806 203.056 130.998 203.269 137.667C203.269 137.687 203.29 137.708 203.29 137.728C203.361 139.677 203.34 141.687 203.269 143.747Z" fill="#E06A58"/>
<path d="M206.791 127.122C203.431 129.964 199.218 132.319 194.488 134.227C181.029 139.657 163.539 141.454 149.907 140.794C143.208 155.512 140.498 160.79 138.782 173.631C132.235 167.49 126.906 156.243 125.323 147.402C123.76 138.591 123.912 129.345 126.368 120.686C130.236 107.034 139.99 99.7257 146.751 96.173C148.436 95.2493 149.958 94.6099 151.136 94.1429C159.774 90.8035 169.508 91.108 178.369 93.8181C183.201 95.3204 187.271 97.858 190.692 100.984C197.604 107.227 201.878 115.682 204.639 122.016C205.512 123.955 206.212 125.711 206.791 127.122Z" fill="#0B2D50"/>
<path d="M209.635 135.119C209.077 132.166 208.245 129.303 207.067 126.542C206.407 124.979 205.595 123.467 204.651 122.005C201.576 117.174 197.099 113.195 191.689 111.439C190.146 109.277 188.522 107.328 186.817 105.602C180.676 99.3596 173.469 95.7867 165.836 94.5382C159.482 93.513 152.874 94.0916 146.773 96.1623C148.458 95.2386 149.981 94.5991 151.158 94.1322C159.796 90.7927 169.531 91.0972 178.392 93.8074C183.224 95.3096 187.294 97.8472 190.715 100.974C194.095 101.877 197.262 103.623 199.85 105.957C204.154 109.784 207.037 115.001 208.752 120.503C210.153 125.071 210.407 129.922 209.635 135.119Z" fill="#225570"/>
<path d="M157.723 151.673C162.25 149.085 166.949 147.918 173.537 150.323" stroke="#0B2D50" stroke-width="2" stroke-miterlimit="10" stroke-linecap="round"/>
<path d="M188.72 151.49C192.597 148.597 198.342 148.303 201.337 151.49" stroke="#0B2D50" stroke-width="2" stroke-miterlimit="10" stroke-linecap="round"/>
<path d="M184.038 166.249C184.434 168.299 184.221 172.837 183.246 174.877" stroke="#CC454E" stroke-width="2" stroke-miterlimit="10" stroke-linecap="round"/>
<path d="M168.744 167.63C169.775 167.63 170.611 166.313 170.611 164.687C170.611 163.061 169.775 161.743 168.744 161.743C167.712 161.743 166.876 163.061 166.876 164.687C166.876 166.313 167.712 167.63 168.744 167.63Z" fill="#262D40"/>
<path d="M193.154 166.259C194.185 166.259 195.022 164.941 195.022 163.316C195.022 161.69 194.185 160.372 193.154 160.372C192.122 160.372 191.286 161.69 191.286 163.316C191.286 164.941 192.122 166.259 193.154 166.259Z" fill="#262D40"/>
<path d="M181.732 178.886C181.732 178.886 181.367 179.596 180.666 180.561C179.57 182.033 177.702 184.063 175.154 184.854H175.144C174.068 185.2 172.901 185.321 171.602 185.088C167.785 184.408 166.78 180.886 166.598 178.175C166.557 177.648 166.557 177.16 166.567 176.714C166.587 175.618 166.709 174.887 166.709 174.887C172.789 178.236 181.732 178.886 181.732 178.886Z" fill="#CC454E"/>
<path d="M181.726 178.886C181.726 178.886 181.361 179.596 180.661 180.561C177.554 180.52 171.2 178.927 166.562 176.714C166.582 175.618 166.704 174.887 166.704 174.887C172.784 178.236 181.726 178.886 181.726 178.886Z" fill="white"/>
<path d="M175.141 184.844C174.065 185.189 172.898 185.311 171.599 185.077C167.782 184.397 166.777 180.875 166.595 178.165C168.442 178.388 170.229 179.099 171.711 180.226C173.264 181.413 174.451 183.027 175.141 184.844Z" fill="#E8729B"/>
<path d="M138.851 147.015C138.851 147.015 138.637 134.358 143.906 121.781C150.514 105.997 163.983 99.2473 177.047 98.7905C192.79 98.2323 202.646 108.799 202.646 108.799C202.646 108.799 197.52 99.7548 187.41 97.1563C180.772 95.451 170.754 95.177 162.714 98.4454C154.432 101.805 144.109 111.133 140.373 120.989C136.648 130.845 134.831 146.193 134.831 146.193L138.851 147.015Z" fill="#3D86E0"/>
<path d="M138.584 179.963C145.325 179.263 149.929 170.414 148.867 160.2C147.805 149.986 141.48 142.274 134.739 142.975C127.998 143.676 123.394 152.524 124.456 162.738C125.518 172.952 131.843 180.664 138.584 179.963Z" fill="#56C4F9"/>
<path d="M131.317 148.964C135.669 148.311 140.13 153.987 141.28 161.642C142.43 169.298 139.836 176.034 135.483 176.688C131.132 177.342 126.671 171.666 125.521 164.01C124.371 156.355 126.966 149.618 131.317 148.964Z" fill="#3D86E0"/>
<path d="M177.149 194.631C180.759 194.631 183.686 192.809 183.686 190.561C183.686 188.313 180.759 186.49 177.149 186.49C173.539 186.49 170.612 188.313 170.612 190.561C170.612 192.809 173.539 194.631 177.149 194.631Z" fill="#3A92C9"/>
<path d="M144.315 176.948C144.315 176.948 153.918 189.291 170.615 190.56" stroke="#3A92C9" stroke-width="2" stroke-miterlimit="10" stroke-linecap="round"/>
<path d="M184.307 298.601L183.678 314.832C183.678 314.832 124.978 332.422 115.284 326.86C110.554 324.14 106.139 309.178 102.84 294.572C99.3886 279.224 97.1758 264.283 97.1758 264.283L131.586 257.543C131.586 257.543 131.606 278.524 132.773 290.654C133.19 295.171 133.788 298.459 134.59 298.997C137.625 300.997 184.307 298.601 184.307 298.601Z" fill="#F9A07B"/>
<path d="M132.773 290.633C126.521 292.663 114.452 295.799 102.84 294.561C99.3886 279.213 97.1758 264.272 97.1758 264.272L131.586 257.532C131.586 257.522 131.606 278.503 132.773 290.633Z" fill="#E06A58"/>
<path d="M182.637 298.764C191.367 296.896 206.146 292.409 212.277 290.867C216.631 289.77 227.969 295.637 230.964 301.169C232.273 303.585 233.511 317.268 228.974 315.857C226.7 315.146 227.076 309.279 226.366 306.884C225.787 304.935 223.94 303.047 221.128 301.423C223.006 306.102 222.935 310.183 222.732 315.238C222.691 316.354 222.62 317.522 222.082 318.486C221.534 319.45 220.356 320.14 219.341 319.714C218.306 319.288 217.951 317.999 217.717 316.872C216.915 312.974 216.103 309.076 215.779 304.671C215.86 309.005 215.768 313.35 215.494 317.674C215.291 320.983 213.647 322.8 211.627 322.221C210.724 321.967 210.358 321.135 209.973 320.039C209.363 322.16 207.841 324.505 205.872 323.612C204.674 323.074 203.933 318.75 204.146 314.304C200.37 316.649 196.107 317.643 191.194 317.867C186.789 318.07 182.282 317.248 179.633 314.253C179.897 309.574 181.44 302.651 182.637 298.764Z" fill="#F9A07B"/>
<path d="M210.069 319.368C210.364 315.856 210.059 312.294 209.166 308.903" stroke="#CC454E" stroke-miterlimit="10" stroke-linecap="round"/>
<path d="M127.72 223.498C125.223 216.464 116.077 202.07 116.077 202.07C116.077 202.07 102.12 207.876 97.1668 217.732C88.7825 234.42 93.0457 282.329 93.0457 282.329C104.343 287.06 127.019 287.131 136.672 285.77C136.672 285.77 132.724 237.556 127.72 223.498Z" fill="#FFC73C"/>
<path d="M129.502 226.441C133.308 244.661 135.349 261.653 135.998 278.3" stroke="#F2AE30" stroke-miterlimit="10" stroke-linecap="round"/>
<path d="M428.226 328.94H28.0137V338.979H428.226V328.94Z" fill="#0B2D50"/>
</svg>
