<svg width="20" height="20" viewBox="0 0 20 20" fill="none" xmlns="http://www.w3.org/2000/svg">
<g clip-path="url(#clip0_4849_14980)">
<path d="M5.83333 0H3.33333C2.44928 0 1.60143 0.35119 0.976311 0.976311C0.35119 1.60143 0 2.44928 0 3.33333L0 5.83333C0 6.71739 0.35119 7.56524 0.976311 8.19036C1.60143 8.81548 2.44928 9.16667 3.33333 9.16667H5.83333C6.71739 9.16667 7.56524 8.81548 8.19036 8.19036C8.81548 7.56524 9.16667 6.71739 9.16667 5.83333V3.33333C9.16667 2.44928 8.81548 1.60143 8.19036 0.976311C7.56524 0.35119 6.71739 0 5.83333 0ZM7.5 5.83333C7.5 6.27536 7.32441 6.69928 7.01184 7.01184C6.69928 7.32441 6.27536 7.5 5.83333 7.5H3.33333C2.89131 7.5 2.46738 7.32441 2.15482 7.01184C1.84226 6.69928 1.66667 6.27536 1.66667 5.83333V3.33333C1.66667 2.89131 1.84226 2.46738 2.15482 2.15482C2.46738 1.84226 2.89131 1.66667 3.33333 1.66667H5.83333C6.27536 1.66667 6.69928 1.84226 7.01184 2.15482C7.32441 2.46738 7.5 2.89131 7.5 3.33333V5.83333Z" fill="#0D0D0D" fill-opacity="0.35"/>
<path d="M3.33301 0.5H5.83301C6.58445 0.5 7.30556 0.798725 7.83691 1.33008C8.36809 1.86134 8.66691 2.58176 8.66699 3.33301V5.83301C8.66699 6.58445 8.36827 7.30556 7.83691 7.83691C7.30556 8.36827 6.58445 8.66699 5.83301 8.66699H3.33301C2.58176 8.66691 1.86134 8.36809 1.33008 7.83691C0.798725 7.30556 0.5 6.58445 0.5 5.83301V3.33301C0.500086 2.58168 0.798802 1.86135 1.33008 1.33008C1.86135 0.798802 2.58168 0.500086 3.33301 0.5ZM3.33301 1.16699C2.75849 1.16708 2.20703 1.39453 1.80078 1.80078C1.39453 2.20703 1.16708 2.75849 1.16699 3.33301V5.83301C1.16699 6.40749 1.39466 6.95894 1.80078 7.36523C2.20703 7.77149 2.75849 7.99991 3.33301 8H5.83301C6.40764 8 6.95891 7.77156 7.36523 7.36523C7.77156 6.95891 8 6.40764 8 5.83301V3.33301C7.99991 2.75849 7.77149 2.20703 7.36523 1.80078C6.95894 1.39466 6.40749 1.16699 5.83301 1.16699H3.33301Z" stroke="#0D0D0D" stroke-opacity="0.35"/>
<path d="M5.83333 10.834H3.33333C2.44928 10.834 1.60143 11.1852 0.976311 11.8103C0.35119 12.4354 0 13.2833 0 14.1673L0 16.6673C0 17.5514 0.35119 18.3992 0.976311 19.0243C1.60143 19.6495 2.44928 20.0007 3.33333 20.0007H5.83333C6.71739 20.0007 7.56524 19.6495 8.19036 19.0243C8.81548 18.3992 9.16667 17.5514 9.16667 16.6673V14.1673C9.16667 13.2833 8.81548 12.4354 8.19036 11.8103C7.56524 11.1852 6.71739 10.834 5.83333 10.834ZM7.5 16.6673C7.5 17.1093 7.32441 17.5333 7.01184 17.8458C6.69928 18.1584 6.27536 18.334 5.83333 18.334H3.33333C2.89131 18.334 2.46738 18.1584 2.15482 17.8458C1.84226 17.5333 1.66667 17.1093 1.66667 16.6673V14.1673C1.66667 13.7253 1.84226 13.3014 2.15482 12.9888C2.46738 12.6762 2.89131 12.5007 3.33333 12.5007H5.83333C6.27536 12.5007 6.69928 12.6762 7.01184 12.9888C7.32441 13.3014 7.5 13.7253 7.5 14.1673V16.6673Z" fill="#0D0D0D" fill-opacity="0.65"/>
<path d="M16.6663 10.834H14.1663C13.2823 10.834 12.4344 11.1852 11.8093 11.8103C11.1842 12.4354 10.833 13.2833 10.833 14.1673V16.6673C10.833 17.5514 11.1842 18.3992 11.8093 19.0243C12.4344 19.6495 13.2823 20.0007 14.1663 20.0007H16.6663C17.5504 20.0007 18.3982 19.6495 19.0234 19.0243C19.6485 18.3992 19.9997 17.5514 19.9997 16.6673V14.1673C19.9997 13.2833 19.6485 12.4354 19.0234 11.8103C18.3982 11.1852 17.5504 10.834 16.6663 10.834ZM18.333 16.6673C18.333 17.1093 18.1574 17.5333 17.8449 17.8458C17.5323 18.1584 17.1084 18.334 16.6663 18.334H14.1663C13.7243 18.334 13.3004 18.1584 12.9878 17.8458C12.6753 17.5333 12.4997 17.1093 12.4997 16.6673V14.1673C12.4997 13.7253 12.6753 13.3014 12.9878 12.9888C13.3004 12.6762 13.7243 12.5007 14.1663 12.5007H16.6663C17.1084 12.5007 17.5323 12.6762 17.8449 12.9888C18.1574 13.3014 18.333 13.7253 18.333 14.1673V16.6673Z" fill="#0D0D0D" fill-opacity="0.65"/>
<path d="M11.6663 5.83398H14.1663V8.33398C14.1663 8.555 14.2541 8.76696 14.4104 8.92324C14.5667 9.07952 14.7787 9.16732 14.9997 9.16732C15.2207 9.16732 15.4327 9.07952 15.5889 8.92324C15.7452 8.76696 15.833 8.555 15.833 8.33398V5.83398H18.333C18.554 5.83398 18.766 5.74619 18.9223 5.58991C19.0785 5.43363 19.1663 5.22166 19.1663 5.00065C19.1663 4.77964 19.0785 4.56768 18.9223 4.4114C18.766 4.25512 18.554 4.16732 18.333 4.16732H15.833V1.66732C15.833 1.4463 15.7452 1.23434 15.5889 1.07806C15.4327 0.921782 15.2207 0.833984 14.9997 0.833984C14.7787 0.833984 14.5667 0.921782 14.4104 1.07806C14.2541 1.23434 14.1663 1.4463 14.1663 1.66732V4.16732H11.6663C11.4453 4.16732 11.2334 4.25512 11.0771 4.4114C10.9208 4.56768 10.833 4.77964 10.833 5.00065C10.833 5.22166 10.9208 5.43363 11.0771 5.58991C11.2334 5.74619 11.4453 5.83398 11.6663 5.83398Z" fill="#0D0D0D" fill-opacity="0.65"/>
</g>
<defs>
<clipPath id="clip0_4849_14980">
<rect width="20" height="20" fill="white"/>
</clipPath>
</defs>
</svg>
