<svg width="48" height="48" viewBox="0 0 48 48" fill="none" xmlns="http://www.w3.org/2000/svg">
<g opacity="0.3" clip-path="url(#clip0_3945_22836)">
<path d="M48 24C48 37.24 37.24 48 24 48C10.76 48 0 37.24 0 24C0 10.76 10.76 0 24 0C25.46 0 26.94 0.14 28.36 0.4C29.44 0.6 30.16 1.64 29.96 2.72C29.76 3.8 28.72 4.52 27.64 4.32C26.46 4.1 25.22 4 24 4C12.98 4 4 12.98 4 24C4 35.02 12.98 44 24 44C35.02 44 44 35.02 44 24C44 22.78 43.88 21.56 43.68 20.36C43.48 19.28 44.2 18.24 45.28 18.04C46.38 17.84 47.4 18.56 47.6 19.64C47.86 21.06 48 22.54 48 24ZM25.72 12.12C26.82 12.28 27.82 11.52 27.98 10.42C28.14 9.32 27.38 8.32 26.28 8.16C25.52 8.06 24.76 8 24 8C15.18 8 8 15.18 8 24C8 32.82 15.18 40 24 40C32.82 40 40 32.82 40 24C40 23.24 39.94 22.48 39.84 21.72C39.68 20.62 38.68 19.86 37.58 20.02C36.48 20.18 35.72 21.18 35.88 22.28C35.96 22.84 36 23.42 36 24C36 30.62 30.62 36 24 36C17.38 36 12 30.62 12 24C12 17.38 17.38 12 24 12C24.58 12 25.16 12.04 25.72 12.12ZM21.34 21.02C22.16 20.28 22.24 19.02 21.5 18.2C20.76 17.38 19.5 17.3 18.68 18.04C16.98 19.56 16.02 21.74 16.02 24C16.02 28.42 19.6 32 24.02 32C26.3 32 28.46 31.02 29.98 29.34C30.72 28.52 30.64 27.26 29.82 26.52C29 25.78 27.74 25.86 27 26.68C26.24 27.52 25.16 28.02 24.02 28.02C21.82 28.02 20.02 26.22 20.02 24.02C20.02 22.88 20.5 21.8 21.36 21.04L21.34 21.02ZM24.6 20.58C23.82 21.36 23.82 22.62 24.6 23.4C25 23.8 25.5 23.98 26.02 23.98C26.54 23.98 27.04 23.78 27.44 23.4L36.86 13.98H42.04C42.58 13.98 43.08 13.76 43.46 13.4L47.46 9.4C48.04 8.82 48.2 7.96 47.9 7.22C47.6 6.48 46.86 5.98 46.06 5.98H42.06V2C42.06 1.2 41.58 0.46 40.82 0.16C40.06 -0.16 39.22 0.02 38.64 0.6L34.64 4.6C34.26 4.98 34.06 5.48 34.06 6.02V11.2L24.64 20.62L24.6 20.58Z" fill="#09760A"/>
</g>
<defs>
<clipPath id="clip0_3945_22836">
<rect width="48" height="48" fill="white"/>
</clipPath>
</defs>
</svg>
