<svg width="38" height="38" viewBox="0 0 38 38" fill="none" xmlns="http://www.w3.org/2000/svg">
<g clip-path="url(#clip0_3005_24791)">
<path d="M20.6784 16.6256V8.18219C22.4845 8.48716 24.1889 9.22819 25.6437 10.341C25.9335 10.5399 26.2758 10.6484 26.6272 10.6528C27.757 10.6528 28.6781 9.7437 28.6901 8.61393C28.6925 8.12935 28.5027 7.66359 28.1624 7.31865C26.0579 5.51667 23.4204 4.45491 20.6544 4.29628V1.46577C20.6544 0.657376 19.9996 0.00253796 19.1912 0.00253796C19.1744 0.000162938 19.1575 0.000162938 19.1408 0.000162938C18.3204 -0.0118606 17.644 0.643052 17.632 1.46577V4.20032C12.2349 4.58411 8.56487 7.91834 8.56487 12.3559C8.56487 17.801 13.1944 19.3122 17.632 20.5115V30.1064C15.2908 29.7922 13.084 28.8207 11.2754 27.2999C10.9348 27.0289 10.5125 26.8778 10.076 26.8682C8.97019 26.9449 8.11867 27.8708 8.13299 28.9791C8.13059 29.4637 8.32035 29.9294 8.66069 30.2744C11.1378 32.5052 14.324 33.7882 17.6559 33.8964V36.535C17.6559 36.5518 17.6582 36.5686 17.6582 36.5854C17.6966 37.4057 18.3946 38.039 19.215 37.9982C20.0234 37.9982 20.6782 37.3434 20.6782 36.535V33.8485C27.2267 33.4167 29.8653 29.4349 29.8653 25.2131C29.8654 19.5521 25.116 17.825 20.6784 16.6256ZM17.656 15.858C15.0414 15.0905 13.0025 14.2989 13.0025 12.0681C13.0025 9.83729 14.8496 8.23014 17.656 8.01431V15.858ZM20.6784 30.1543V21.4231C23.389 22.1907 25.4998 23.2221 25.4758 25.7407C25.4758 27.5638 24.2284 29.7226 20.6784 30.1543Z" fill="#09760A"/>
</g>
<defs>
<clipPath id="clip0_3005_24791">
<rect width="38" height="38" fill="white"/>
</clipPath>
</defs>
</svg>
