<svg width="48" height="48" viewBox="0 0 48 48" fill="none" xmlns="http://www.w3.org/2000/svg">
<g opacity="0.3">
<path d="M7.99132 18.3072C7.84783 18.162 7.73452 17.9899 7.65794 17.8006C7.58135 17.6114 7.54301 17.4089 7.54512 17.2048C7.54723 17.0007 7.58975 16.7991 7.67023 16.6115C7.75071 16.4239 7.86755 16.2541 8.01401 16.112C8.16047 15.9698 8.33364 15.858 8.52353 15.7832C8.71342 15.7083 8.91625 15.6718 9.12033 15.6757C9.32441 15.6797 9.52568 15.724 9.71253 15.8062C9.89937 15.8884 10.0681 16.0067 10.2089 16.1545L16.528 22.662C17.0024 23.1411 17.6545 23.4115 18.3453 23.4131C19.033 23.4131 19.6805 23.1457 20.1673 22.6589L34.2735 8.41524C34.4161 8.27071 34.5858 8.15575 34.7729 8.07695C34.96 7.99816 35.1608 7.95708 35.3638 7.95607C35.5668 7.95507 35.7681 7.99416 35.9559 8.07109C36.1438 8.14803 36.3147 8.26131 36.4586 8.40442C36.603 8.5471 36.7178 8.71684 36.7965 8.90393C36.8752 9.09103 36.9162 9.2918 36.9172 9.49476C36.9182 9.69772 36.8791 9.89888 36.8023 10.0867C36.7255 10.2746 36.6124 10.4455 36.4695 10.5896L22.3587 24.8364C21.8311 25.366 21.2039 25.7859 20.5132 26.0718C19.8225 26.3578 19.082 26.5041 18.3345 26.5023C17.588 26.5029 16.8489 26.355 16.1601 26.0671C15.4713 25.7792 14.8468 25.3572 14.3227 24.8256L7.99132 18.3072ZM42.6432 17.6813C42.4996 17.5379 42.3292 17.4242 42.1416 17.3467C41.954 17.2692 41.753 17.2295 41.55 17.2297C41.3471 17.23 41.1461 17.2703 40.9588 17.3483C40.7714 17.4264 40.6013 17.5406 40.4581 17.6844L20.2338 37.9597C19.9455 38.2491 19.6027 38.4783 19.2251 38.6341C18.8475 38.7899 18.4428 38.8692 18.0344 38.8673C17.6259 38.8654 17.2219 38.7825 16.8458 38.6232C16.4697 38.464 16.129 38.2316 15.8434 37.9396L8.6342 30.8046C8.34279 30.5161 7.94869 30.3551 7.5386 30.3571C7.12852 30.3592 6.73603 30.524 6.44749 30.8154C6.15895 31.1068 5.99799 31.5009 6.00002 31.911C6.00205 32.3211 6.1669 32.7136 6.45831 33.0021L13.6582 40.1263C14.2304 40.7061 14.9121 41.1664 15.6636 41.4805C16.4152 41.7946 17.2217 41.9562 18.0362 41.956C18.8505 41.9583 19.6572 41.7993 20.4097 41.4882C21.1622 41.1771 21.8456 40.72 22.4205 40.1433L42.6463 19.8665C42.9356 19.5762 43.0978 19.183 43.0972 18.7732C43.0967 18.3635 42.9334 17.9707 42.6432 17.6813Z" fill="#09760A"/>
</g>
</svg>
