<svg width="20" height="20" viewBox="0 0 20 20" fill="none" xmlns="http://www.w3.org/2000/svg">
<g clip-path="url(#clip0_3024_24747)">
<path d="M13.5276 7.23437L10.8318 10.131C10.3726 10.5919 9.78926 10.8335 9.16759 10.8335C8.54593 10.8335 7.96343 10.5919 7.52426 10.1527L6.29426 8.9227C5.96843 8.59687 5.96843 8.0702 6.29426 7.74437C6.62009 7.41853 7.14676 7.41853 7.47259 7.74437L8.70259 8.97437C8.95093 9.2227 9.38426 9.2227 9.63176 8.97437L12.3076 6.09937C12.6218 5.76187 13.1493 5.74437 13.4851 6.05687C13.8218 6.3702 13.8409 6.8977 13.5276 7.23437ZM19.9384 16.776C19.7501 17.2285 19.3309 17.5094 18.8418 17.5094H17.5401V18.811C17.5401 19.5552 16.9326 20.0002 16.3443 20.0002C16.0301 20.0002 15.7426 19.8794 15.5134 19.6502L11.8751 16.0119C11.8751 16.0119 11.8726 16.0069 11.8701 16.0044C11.7309 16.116 11.5943 16.2302 11.4326 16.3202C10.9976 16.5619 10.5093 16.6827 10.0218 16.6827C9.53426 16.6827 9.04593 16.5619 8.61009 16.3202C8.44593 16.2294 8.30593 16.1135 8.16426 15.9994C8.16093 16.0035 8.15926 16.0085 8.15593 16.0127L4.51759 19.651C4.28926 19.8802 4.00176 20.001 3.68676 20.001C3.09926 20.001 2.49176 19.556 2.49176 18.8119V17.5102H1.19009C0.700928 17.5102 0.280928 17.2302 0.0934278 16.7785C-0.0940722 16.3252 0.00509448 15.8302 0.350928 15.4844L3.30176 12.5344C3.25509 12.1827 3.26593 11.8319 3.34426 11.4877C3.39843 11.2502 3.28426 10.9944 3.06093 10.8502C2.64509 10.5819 2.30843 10.2177 2.05926 9.76937C1.82176 9.3402 1.69676 8.84853 1.69926 8.3452C1.69676 7.84937 1.82093 7.35687 2.05926 6.9277C2.30759 6.47853 2.64509 6.11437 3.06093 5.84687C3.28426 5.7027 3.39843 5.44687 3.34426 5.2102C3.23259 4.71604 3.24926 4.2102 3.39343 3.70604C3.66843 2.74937 4.43259 1.9852 5.38926 1.7102C5.89259 1.56604 6.39843 1.54937 6.89176 1.66104C7.13093 1.71354 7.38509 1.6002 7.52926 1.37687C7.79676 0.961868 8.16093 0.625202 8.61009 0.376035C9.48009 -0.106465 10.5618 -0.106465 11.4326 0.376035C11.8818 0.625202 12.2451 0.961868 12.5126 1.3777C12.6568 1.60104 12.9151 1.71604 13.1501 1.66104C13.6426 1.54854 14.1493 1.56604 14.6534 1.7102C15.6101 1.9852 16.3751 2.74937 16.6501 3.70604C16.7943 4.21104 16.8109 4.7177 16.6993 5.21103C16.6459 5.4477 16.7593 5.70354 16.9826 5.8477C17.3984 6.11604 17.7359 6.47937 17.9843 6.92853C18.2218 7.3577 18.3468 7.84937 18.3443 8.3527C18.3468 8.84853 18.2226 9.34103 17.9843 9.7702C17.7359 10.2185 17.3984 10.5827 16.9834 10.851C16.7593 10.9952 16.6451 11.251 16.6993 11.4885C16.7784 11.836 16.7901 12.1902 16.7409 12.546L19.6809 15.486C20.0268 15.8319 20.1251 16.3269 19.9384 16.7785V16.776ZM6.75426 15.0569C6.30509 15.1369 5.84676 15.116 5.38926 14.986C4.86759 14.8369 4.41259 14.5319 4.05343 14.1385L2.34926 15.8427H3.32593C3.78593 15.8427 4.15926 16.216 4.15926 16.676V17.6519L6.75509 15.056L6.75426 15.0569ZM13.5193 13.4094C13.7351 13.4585 13.9626 13.4494 14.1951 13.3835C14.5976 13.2685 14.9326 12.9335 15.0484 12.531C15.1143 12.2994 15.1234 12.0719 15.0743 11.8552C14.8659 10.9377 15.2701 9.97103 16.0801 9.44853C16.2626 9.3302 16.4134 9.16603 16.5276 8.9602C16.6268 8.78103 16.6793 8.5702 16.6784 8.35103C16.6793 8.1252 16.6268 7.91437 16.5276 7.73437C16.4134 7.5277 16.2634 7.36353 16.0801 7.24603C15.2701 6.72353 14.8668 5.75687 15.0743 4.8402C15.1234 4.62354 15.1151 4.39604 15.0484 4.16354C14.9334 3.76187 14.5976 3.42687 14.1951 3.31104C13.9643 3.24437 13.7368 3.23687 13.5193 3.2852C12.6051 3.4952 11.6368 3.0902 11.1134 2.2802C10.9959 2.0977 10.8318 1.94687 10.6259 1.8327C10.2593 1.62937 9.78509 1.6302 9.41926 1.8327C9.21259 1.9477 9.04843 2.0977 8.93093 2.2802C8.40926 3.08937 7.44343 3.4952 6.52426 3.28604C6.30676 3.23687 6.08093 3.2452 5.84926 3.31187C5.44676 3.4277 5.11093 3.76187 4.99593 4.16437C4.92926 4.39604 4.92093 4.62354 4.97009 4.84104C5.17843 5.75687 4.77426 6.72437 3.96426 7.24687C3.78176 7.36437 3.63176 7.52853 3.51759 7.7352C3.41759 7.9152 3.36509 8.12603 3.36676 8.34437C3.36593 8.5702 3.41843 8.78103 3.51759 8.96103C3.63259 9.1677 3.78259 9.33187 3.96593 9.4502C4.77509 9.97187 5.17926 10.9394 4.97093 11.856C4.92176 12.0719 4.93093 12.3002 4.99759 12.5327C5.11343 12.9344 5.44759 13.2694 5.85009 13.3844C6.08093 13.451 6.30843 13.4594 6.52426 13.4102C6.68509 13.3744 6.84759 13.356 7.00843 13.356C7.76676 13.356 8.50093 13.7477 8.93176 14.4152C9.05009 14.5977 9.21426 14.7477 9.42009 14.8627C9.78593 15.066 10.2593 15.066 10.6268 14.8627C10.8326 14.7485 10.9968 14.5977 11.1143 14.4152C11.6376 13.606 12.6068 13.201 13.5209 13.4094H13.5193ZM17.6834 15.8427L15.9851 14.1444C15.6268 14.5352 15.1734 14.8369 14.6534 14.9852C14.1909 15.1169 13.7284 15.1369 13.2759 15.0544L15.8734 17.6519V16.676C15.8734 16.216 16.2468 15.8427 16.7068 15.8427H17.6834Z" fill="#09760A"/>
</g>
<defs>
<clipPath id="clip0_3024_24747">
<rect width="20" height="20" fill="white"/>
</clipPath>
</defs>
</svg>
