<svg width="20" height="20" viewBox="0 0 20 20" fill="none" xmlns="http://www.w3.org/2000/svg">
<g clip-path="url(#clip0_3752_8743)">
<path d="M9.16648 13.3333L8.33315 11.6667L2.49981 8.75C2.42003 8.71344 2.35242 8.65474 2.30502 8.58088C2.25762 8.50701 2.23242 8.4211 2.23242 8.33333C2.23242 8.24557 2.25762 8.15965 2.30502 8.08579C2.35242 8.01193 2.42003 7.95323 2.49981 7.91667L17.4998 2.5L15.0698 9.23" stroke="white" stroke-width="1.5" stroke-linecap="round" stroke-linejoin="round"/>
<path d="M12.5 15C12.5 15.663 12.7634 16.2989 13.2322 16.7678C13.7011 17.2366 14.337 17.5 15 17.5C15.663 17.5 16.2989 17.2366 16.7678 16.7678C17.2366 16.2989 17.5 15.663 17.5 15C17.5 14.337 17.2366 13.7011 16.7678 13.2322C16.2989 12.7634 15.663 12.5 15 12.5C14.337 12.5 13.7011 12.7634 13.2322 13.2322C12.7634 13.7011 12.5 14.337 12.5 15Z" stroke="white" stroke-width="1.5" stroke-linecap="round" stroke-linejoin="round"/>
<path d="M16.833 16.833L18.333 18.333" stroke="white" stroke-width="1.5" stroke-linecap="round" stroke-linejoin="round"/>
</g>
<defs>
<clipPath id="clip0_3752_8743">
<rect width="20" height="20" fill="white"/>
</clipPath>
</defs>
</svg>
