<svg width="20" height="20" viewBox="0 0 20 20" fill="none" xmlns="http://www.w3.org/2000/svg">
<g clip-path="url(#clip0_1503_29703)">
<path d="M19.5395 8.02588C19.6271 8.02588 19.6981 8.09687 19.6981 8.18443V9.84903C19.6981 10.4721 19.6402 11.0812 19.5292 11.6722C18.6706 16.2623 14.6267 19.7312 9.77958 19.6978C4.34072 19.6603 -0.0120171 15.2658 2.49256e-05 9.82683C0.01199 4.39767 4.41705 0 9.84902 0C12.5103 0 14.9249 1.05577 16.6977 2.77073C16.7617 2.83264 16.7634 2.93467 16.7004 2.99761L14.3454 5.35256C14.2848 5.4132 14.1869 5.41477 14.1247 5.35564C13.0121 4.29652 11.5066 3.6463 9.84902 3.6463C6.42606 3.6463 3.66967 6.3831 3.64644 9.80598C3.62308 13.2513 6.40913 16.0517 9.84902 16.0517C12.64 16.0517 15.0006 14.208 15.7791 11.6722H10.0076C9.92 11.6722 9.84902 11.6012 9.84902 11.5136V8.18439C9.84902 8.09683 9.92 8.02585 10.0076 8.02585H19.5395V8.02588Z" fill="#2196F3"/>
<path d="M19.5395 8.02588H18.3505C18.4381 8.02588 18.5091 8.09686 18.5091 8.18443V9.84903C18.5091 10.4721 18.4512 11.0812 18.3402 11.6722C17.5211 16.0512 13.8029 19.4097 9.25391 19.6803C9.42796 19.6906 9.60316 19.6966 9.7796 19.6978C14.6268 19.7312 18.6706 16.2623 19.5292 11.6722C19.6402 11.0812 19.6981 10.4721 19.6981 9.84903V8.18439C19.6981 8.09686 19.6271 8.02588 19.5395 8.02588Z" fill="#1E88E5"/>
<path d="M4.21579 7.25143L1.22461 5.09018C2.90272 2.05502 6.13643 0 9.84975 0C12.511 0 14.9257 1.05577 16.6984 2.77073C16.7625 2.83264 16.7641 2.93467 16.7011 2.99761L14.3462 5.35257C14.2857 5.41308 14.1877 5.41497 14.1257 5.35595C13.0131 4.29664 11.5075 3.64634 9.84975 3.64634C7.35163 3.64634 5.19831 5.12307 4.21579 7.25143Z" fill="#F44336"/>
<path d="M3.35156 6.62767L4.21508 7.25158C5.11188 5.30893 6.98428 3.90983 9.20377 3.68034C9.22047 3.67853 9.23651 3.67634 9.25352 3.67472C9.05819 3.65618 8.86025 3.64648 8.66004 3.64648C6.40334 3.64648 4.43661 4.83618 3.35156 6.62767Z" fill="#E53935"/>
<path d="M15.5092 2.77073C15.5732 2.83264 15.5748 2.93467 15.5119 2.99765L13.6004 4.90909C13.7836 5.04836 13.9588 5.19733 14.1252 5.35568C14.1873 5.41481 14.2853 5.41324 14.3459 5.3526L16.7009 2.99765C16.7638 2.93467 16.7622 2.83267 16.6982 2.77073C14.9254 1.05577 12.5108 0 9.84948 0C9.64977 0 9.45163 0.00665579 9.25488 0.01839C11.6802 0.162855 13.8693 1.18442 15.5092 2.77073Z" fill="#E53935"/>
<path d="M17.074 16.5423C15.2754 18.4832 12.704 19.698 9.84912 19.698C5.99315 19.698 2.65479 17.482 1.03809 14.2538L4.09186 12.1611C5.00825 14.4413 7.24082 16.0516 9.84912 16.0516C11.486 16.0516 12.9747 15.4175 14.0828 14.3814L17.074 16.5423Z" fill="#4CAF50"/>
<path d="M4.0919 12.1611L3.19141 12.7782C4.23729 14.7266 6.29401 16.0516 8.66012 16.0516C8.86022 16.0516 9.05801 16.0418 9.25325 16.0233C6.90453 15.7993 4.93761 14.2656 4.0919 12.1611Z" fill="#43A047"/>
<path d="M9.84888 19.6981C12.7037 19.6981 15.2752 18.4833 17.0738 16.5425L16.3411 16.0132C14.6523 18.115 12.1189 19.5092 9.25586 19.6802C9.45207 19.6919 9.64974 19.6981 9.84888 19.6981Z" fill="#43A047"/>
<path d="M3.64634 9.84918C3.64634 10.6664 3.80446 11.4468 4.09181 12.1614L1.038 14.2541C0.373763 12.9287 0 11.4326 0 9.84918C0 8.12314 0.443899 6.5009 1.2239 5.09033L4.21508 7.25158C3.85005 8.04146 3.64634 8.92176 3.64634 9.84918Z" fill="#FFC107"/>
<path d="M3.19105 12.7783L4.09154 12.1612C3.80419 11.4466 3.64606 10.6662 3.64606 9.84897C3.64606 8.92154 3.84978 8.04124 4.21481 7.25136L3.35129 6.62744C2.79054 7.55329 2.4651 8.63973 2.45718 9.80595C2.44987 10.8814 2.71637 11.8941 3.19105 12.7783Z" fill="#FFB300"/>
</g>
<defs>
<clipPath id="clip0_1503_29703">
<rect width="20" height="20" fill="white"/>
</clipPath>
</defs>
</svg>
