<svg width="24" height="28" viewBox="0 0 24 28" fill="none" xmlns="http://www.w3.org/2000/svg">
<path d="M20.9417 6.45753L16.8758 2.3917C16.1192 1.63098 15.2192 1.02791 14.2279 0.617374C13.2366 0.206843 12.1738 -0.00298686 11.1008 3.21195e-05H5.83333C4.28682 0.00126757 2.80398 0.616086 1.71032 1.70953C0.61666 2.80297 0.00154479 4.28568 0 5.8322V22.1655C0 25.382 2.61683 27.9989 5.83333 27.9989H17.5C20.7165 27.9989 23.3333 25.382 23.3333 22.1655V12.2314C23.3333 10.0497 22.484 8.00103 20.9417 6.45753ZM19.292 8.1072C19.663 8.4782 19.9768 8.89003 20.2312 9.3322H15.1667C14.5238 9.3322 14 8.80837 14 8.16553V3.10103C14.4422 3.35537 14.8552 3.6692 15.225 4.0402L19.2908 8.10603L19.292 8.1072ZM21 22.1655C21 24.0952 19.4297 25.6655 17.5 25.6655H5.83333C3.90367 25.6655 2.33333 24.0952 2.33333 22.1655V5.8322C2.33333 3.90253 3.90367 2.3322 5.83333 2.3322H11.1008C11.291 2.3322 11.48 2.34153 11.6667 2.35903V8.16553C11.6667 10.0952 13.237 11.6655 15.1667 11.6655H20.9732C20.9907 11.8522 21 12.0412 21 12.2314V22.1655ZM15.9915 16.8934C16.2103 17.1121 16.3332 17.4088 16.3332 17.7182C16.3332 18.0276 16.2103 18.3243 15.9915 18.543C15.7727 18.7618 15.476 18.8847 15.1667 18.8847C14.8573 18.8847 14.5606 18.7618 14.3418 18.543L12.8333 17.0345V22.1655C12.8333 22.475 12.7104 22.7717 12.4916 22.9905C12.2728 23.2093 11.9761 23.3322 11.6667 23.3322C11.3572 23.3322 11.0605 23.2093 10.8417 22.9905C10.6229 22.7717 10.5 22.475 10.5 22.1655V17.0345L8.9915 18.543C8.77274 18.7618 8.47604 18.8847 8.16667 18.8847C7.85729 18.8847 7.56059 18.7618 7.34183 18.543C7.12307 18.3243 7.00018 18.0276 7.00018 17.7182C7.00018 17.4088 7.12307 17.1121 7.34183 16.8934L9.22483 15.0104C9.87326 14.3638 10.7516 14.0008 11.6673 14.0008C12.5829 14.0008 13.4612 14.3638 14.1097 15.0104L15.9927 16.8934H15.9915Z" fill="#09760A"/>
</svg>
