<svg width="28" height="28" viewBox="0 0 28 28" fill="none" xmlns="http://www.w3.org/2000/svg">
<path d="M16.6797 14C16.6797 15.48 15.48 16.6797 14 16.6797C12.52 16.6797 11.3203 15.48 11.3203 14C11.3203 12.52 12.52 11.3203 14 11.3203C15.48 11.3203 16.6797 12.52 16.6797 14Z" fill="#09760A"/>
<path d="M20.2668 9.25855C20.1379 8.90936 19.9324 8.59349 19.6654 8.33416C19.4061 8.06712 19.0902 7.86163 18.741 7.73282C18.4578 7.62284 18.0323 7.49187 17.2484 7.45621C16.4006 7.41755 16.1464 7.40918 13.9999 7.40918C11.8532 7.40918 11.599 7.41733 10.7514 7.45599C9.96757 7.49187 9.54177 7.62279 9.25877 7.73282C8.90953 7.86158 8.59363 8.06708 8.33438 8.33416C8.06734 8.5935 7.86179 8.90936 7.73282 9.25855C7.62284 9.54183 7.49187 9.96757 7.45621 10.7514C7.41755 11.599 7.40918 11.8532 7.40918 13.9999C7.40918 16.1464 7.41755 16.4006 7.45621 17.2484C7.49187 18.0322 7.62284 18.4578 7.73282 18.741C7.86171 19.0902 8.06719 19.4061 8.33416 19.6654C8.59345 19.9325 8.90933 20.1379 9.25855 20.2668C9.54183 20.377 9.96757 20.5079 10.7514 20.5436C11.599 20.5822 11.853 20.5904 13.9997 20.5904C16.1466 20.5904 16.4008 20.5822 17.2482 20.5436C18.032 20.5079 18.4578 20.377 18.741 20.2668C19.0877 20.133 19.4026 19.9282 19.6654 19.6654C19.9282 19.4026 20.133 19.0877 20.2668 18.741C20.3767 18.4578 20.5077 18.0323 20.5436 17.2484C20.5822 16.4006 20.5904 16.1464 20.5904 13.9999C20.5904 11.8532 20.5822 11.599 20.5436 10.7514C20.5079 9.96757 20.377 9.54177 20.2668 9.25855ZM13.9999 18.1278C11.7199 18.1278 9.87165 16.2797 9.87165 13.9997C9.87165 11.7197 11.7199 9.87165 13.9999 9.87165C16.2797 9.87165 18.1279 11.7197 18.1279 13.9997C18.1279 16.2797 16.2797 18.1278 13.9999 18.1278ZM18.2912 10.6731C17.7584 10.6731 17.3265 10.2412 17.3265 9.70846C17.3265 9.17575 17.7584 8.74372 18.2912 8.74372C18.8239 8.74372 19.2559 9.17564 19.2559 9.70841C19.2556 10.2412 18.8239 10.6731 18.2912 10.6731Z" fill="#09760A"/>
<path d="M14 0C6.26921 0 0 6.26921 0 14C0 21.7308 6.26921 28 14 28C21.7308 28 28 21.7308 28 14C28 6.26921 21.7308 0 14 0ZM21.9906 17.3143C21.9517 18.1701 21.8156 18.7544 21.6169 19.2658C21.4104 19.7998 21.0946 20.2848 20.6897 20.6897C20.2848 21.0946 19.7998 21.4104 19.2658 21.6169C18.7546 21.8156 18.1701 21.9515 17.3146 21.9906C16.4573 22.0297 16.1835 22.0391 14.0002 22.0391C11.8168 22.0391 11.5431 22.0297 10.6856 21.9906C9.83008 21.9515 9.24563 21.8156 8.73436 21.6169C8.19788 21.4151 7.71192 21.0986 7.31041 20.6896C6.90149 20.2881 6.5851 19.8022 6.38329 19.2658C6.18461 18.7546 6.04855 18.1701 6.00966 17.3146C5.97012 16.4571 5.96094 16.1832 5.96094 14C5.96094 11.8168 5.97013 11.5429 6.00945 10.6857C6.04827 9.82986 6.18417 9.24563 6.38285 8.7342C6.58473 8.19776 6.90126 7.71185 7.31035 7.31041C7.71182 6.90135 8.19775 6.58487 8.7342 6.38307C9.24563 6.18439 9.82986 6.04855 10.6857 6.00945C11.5429 5.97034 11.8168 5.96094 14 5.96094C16.1832 5.96094 16.4571 5.97034 17.3143 6.00961C18.1701 6.04855 18.7544 6.18439 19.2658 6.38285C19.8023 6.58477 20.2883 6.90129 20.6899 7.31035C21.0988 7.71187 21.4152 8.19779 21.6169 8.7342C21.8158 9.24563 21.9517 9.82986 21.9908 10.6857C22.0299 11.5429 22.0391 11.8168 22.0391 14C22.0391 16.1832 22.0299 16.4571 21.9906 17.3143Z" fill="#09760A"/>
</svg>
