<svg width="61" height="61" viewBox="0 0 61 61" fill="none" xmlns="http://www.w3.org/2000/svg">
<g opacity="0.3" clip-path="url(#clip0_3945_22817)">
<path d="M6.74879 31.1045C7.04386 31.1982 7.35664 31.2221 7.66251 31.1743L12.0802 30.4788C12.6045 30.3964 13.0745 30.1093 13.387 29.6804C13.6995 29.2515 13.8288 28.716 13.7465 28.1918C13.6642 27.6676 13.377 27.1975 12.9482 26.885C12.5193 26.5725 11.9838 26.4432 11.4596 26.5255L7.04188 27.2211C6.59618 27.2907 6.18711 27.5089 5.88107 27.8403C5.57504 28.1717 5.39003 28.5968 5.35608 29.0466C5.32213 29.4964 5.44124 29.9445 5.69407 30.3181C5.94689 30.6917 6.31859 30.9688 6.74879 31.1045ZM15.2174 14.6981L12.0104 11.5813C11.6296 11.2117 11.4114 10.7059 11.4036 10.1753C11.3958 9.6447 11.599 9.13273 11.9687 8.75202C12.3384 8.37131 12.8441 8.15304 13.3747 8.14523C13.9053 8.13741 14.4173 8.3407 14.798 8.71037L18.0051 11.8272C18.3858 12.1969 18.6041 12.7026 18.6119 13.2332C18.6197 13.7638 18.4164 14.2758 18.0467 14.6565C17.6771 15.0372 17.1713 15.2555 16.6407 15.2633C16.1101 15.2711 15.5982 15.0678 15.2174 14.6981ZM8.47446 19.062C8.63499 18.5564 8.98979 18.1354 9.46079 17.8914C9.93179 17.6474 10.4804 17.6006 10.986 17.7611L14.7984 18.9717C15.3039 19.1323 15.725 19.4871 15.969 19.9581C16.2129 20.4291 16.2598 20.9777 16.0993 21.4832C15.9387 21.9888 15.5839 22.4099 15.1129 22.6538C14.6419 22.8978 14.0933 22.9447 13.5877 22.7841L9.77535 21.5735C9.26979 21.413 8.84871 21.0582 8.60475 20.5872C8.36078 20.1162 8.31392 19.5676 8.47446 19.062ZM14.4639 39.8497L25.3595 5.53807C25.52 5.03251 25.8748 4.61143 26.3458 4.36747C26.8168 4.12351 27.3654 4.07664 27.871 4.23718C28.3765 4.39772 28.7976 4.75251 29.0416 5.22351C29.2855 5.69451 29.3324 6.24313 29.1719 6.74869C27.3868 12.3701 31.6743 15.937 36.2816 17.4L49.625 21.6372C51.6472 22.2794 53.3315 23.6986 54.3074 25.5825C55.2833 27.4665 55.4707 29.661 54.8286 31.6833L53.6179 35.4957C52.9758 37.5179 51.5566 39.2022 49.6726 40.178C47.7886 41.1539 45.5941 41.3414 43.5719 40.6992L30.2285 36.462C25.6212 34.999 20.0613 35.4389 18.2763 41.0603C18.1157 41.5658 17.7609 41.9869 17.2899 42.2309C16.8189 42.4749 16.2703 42.5217 15.7647 42.3612C15.2592 42.2006 14.8381 41.8458 14.5941 41.3748C14.3502 40.9038 14.3033 40.3552 14.4639 39.8497ZM34.3819 41.9778L42.3613 44.5116C43.2499 44.7899 44.1679 44.9638 45.0967 45.0298L36.9524 54.157C36.2666 54.9292 35.3716 55.4861 34.3759 55.7602C33.3801 56.0342 32.3262 56.0138 31.3418 55.7013C30.559 55.4516 29.8511 55.0099 29.2827 54.4165C28.7143 53.8232 28.3034 53.097 28.0874 52.3042C27.8715 51.5113 27.8574 50.6771 28.0465 49.8774C28.2355 49.0777 28.6217 48.3381 29.1698 47.7259L34.3819 41.9778Z" fill="#09760A"/>
</g>
<defs>
<clipPath id="clip0_3945_22817">
<rect width="48" height="48" fill="white" transform="matrix(-0.9531 -0.302655 -0.302655 0.9531 60.2764 14.5275)"/>
</clipPath>
</defs>
</svg>
