<svg width="14" height="15" viewBox="0 0 14 15" fill="none" xmlns="http://www.w3.org/2000/svg">
<path d="M13.4423 8.51303L12.2582 4.2527C11.9111 3.00459 11.1568 1.90832 10.1152 1.13813C9.07352 0.367943 7.80432 -0.0319565 6.5093 0.00199669C5.21428 0.0359498 3.96777 0.501807 2.96791 1.32552C1.96804 2.14923 1.27221 3.28353 0.99101 4.5481L0.0742518 8.67071C-0.027012 9.12624 -0.0246708 9.5987 0.0811027 10.0532C0.186876 10.5077 0.393381 10.9327 0.685371 11.2967C0.977361 11.6607 1.34738 11.9545 1.76811 12.1564C2.18884 12.3582 2.64954 12.463 3.11619 12.463H3.81046C3.9535 13.1674 4.33567 13.8007 4.89221 14.2556C5.44876 14.7105 6.14545 14.959 6.86424 14.959C7.58304 14.959 8.27973 14.7105 8.83628 14.2556C9.39282 13.8007 9.77499 13.1674 9.91803 12.463H10.4403C10.9207 12.463 11.3946 12.352 11.8249 12.1386C12.2553 11.9252 12.6305 11.6151 12.9212 11.2327C13.2119 10.8503 13.4103 10.4058 13.5008 9.934C13.5913 9.46222 13.5709 8.9759 13.4423 8.51303ZM6.86424 13.7095C6.47893 13.7079 6.10352 13.5872 5.78938 13.3641C5.47523 13.141 5.23769 12.8263 5.10925 12.463H8.61923C8.4908 12.8263 8.25326 13.141 7.93911 13.3641C7.62497 13.5872 7.24956 13.7079 6.86424 13.7095ZM11.9285 10.4781C11.7549 10.7084 11.5299 10.8951 11.2714 11.0233C11.013 11.1515 10.7282 11.2177 10.4397 11.2166H3.11619C2.83623 11.2165 2.55986 11.1536 2.30747 11.0325C2.05507 10.9113 1.83311 10.735 1.65796 10.5166C1.4828 10.2982 1.35894 10.0433 1.29549 9.7706C1.23205 9.49792 1.23065 9.21448 1.2914 8.94119L2.20754 4.81796C2.42838 3.82467 2.97491 2.93371 3.76026 2.28671C4.54562 1.63971 5.52471 1.27381 6.5419 1.24716C7.55909 1.22051 8.556 1.53465 9.37415 2.13965C10.1923 2.74464 10.7847 3.60576 11.0573 4.58612L12.2414 8.84646C12.3196 9.12402 12.3321 9.41601 12.2778 9.69923C12.2235 9.98245 12.1039 10.2491 11.9285 10.4781Z" fill="#0D0D0D"/>
</svg>
