<svg width="12" height="14" viewBox="0 0 12 14" fill="none" xmlns="http://www.w3.org/2000/svg">
<path d="M2.91699 0.5H5.54785C6.50589 0.500091 7.40486 0.873615 8.08105 1.5498L10.1172 3.58496C10.7935 4.26123 11.167 5.16098 11.167 6.11914V11.083C11.167 12.4169 10.0839 13.5 8.75 13.5H2.91699C1.58313 13.5 0.5 12.4169 0.5 11.083V2.91699C0.5 1.66644 1.45181 0.636455 2.66992 0.512695L2.91699 0.5ZM6.50586 4.08301C6.50586 4.67988 6.99203 5.16683 7.58887 5.16699H10.9883L10.5537 4.41602C10.4406 4.2207 10.3084 4.03781 10.1582 3.86719L10.002 3.7002L7.97168 1.6709C7.75533 1.45455 7.51711 1.26988 7.25684 1.11914L6.50586 0.68457V4.08301ZM6.33301 0.737305L5.89551 0.682617C5.76606 0.666436 5.63517 0.66699 5.54785 0.666992H2.91699C1.67835 0.666992 0.666992 1.67835 0.666992 2.91699V11.083C0.666992 12.3217 1.67835 13.333 2.91699 13.333H8.75C9.98864 13.333 11 12.3217 11 11.083V6.11914C11 6.02556 11.0005 5.90089 10.9844 5.77148L10.9297 5.33301H7.58301C6.8968 5.33283 6.33301 4.76926 6.33301 4.08301V0.737305Z" stroke="white"/>
</svg>
