<svg width="28" height="28" viewBox="0 0 28 28" fill="none" xmlns="http://www.w3.org/2000/svg">
<path opacity="0.5" d="M14.3116 7.03936C13.4383 7.03936 12.5736 7.21136 11.7667 7.54554C10.9599 7.87972 10.2268 8.36954 9.6093 8.98703C8.99178 9.60452 8.50194 10.3376 8.16774 11.1444C7.83355 11.9512 7.66154 12.8159 7.66154 13.6891C7.66154 14.5624 7.83355 15.4271 8.16774 16.2339C8.50194 17.0407 8.99178 17.7737 9.6093 18.3912C10.2268 19.0087 10.9599 19.4985 11.7667 19.8327C12.5736 20.1669 13.4383 20.3389 14.3116 20.3389C16.0753 20.3389 17.7668 19.6383 19.0139 18.3912C20.261 17.1441 20.9617 15.4528 20.9617 13.6891C20.9617 11.9255 20.261 10.2341 19.0139 8.98703C17.7668 7.73996 16.0753 7.03936 14.3116 7.03936ZM5.31445 13.6891C5.31445 11.303 6.26236 9.01468 7.94966 7.32747C9.63695 5.64025 11.9254 4.69238 14.3116 4.69238C16.6978 4.69238 18.9863 5.64025 20.6736 7.32747C22.3608 9.01468 23.3088 11.303 23.3088 13.6891C23.3088 16.0752 22.3608 18.3636 20.6736 20.0508C18.9863 21.738 16.6978 22.6859 14.3116 22.6859C11.9254 22.6859 9.63695 21.738 7.94966 20.0508C6.26236 18.3636 5.31445 16.0752 5.31445 13.6891Z" fill="white"/>
<path d="M2.96743 13.6891C2.9683 11.2596 3.74919 8.89455 5.19514 6.94212C6.6411 4.98969 8.67572 3.55306 10.9995 2.84371C13.3232 2.13436 15.8134 2.18978 18.1033 3.0018C20.3932 3.81382 22.3619 5.33955 23.7195 7.35437C25.0772 9.36918 25.7521 11.7666 25.6449 14.1938C25.5376 16.6209 24.6539 18.9495 23.1239 20.8368C21.5938 22.7241 19.4983 24.0702 17.1457 24.6772C14.7931 25.2841 12.3078 25.1198 10.0556 24.2083C9.91183 24.145 9.75679 24.1113 9.59971 24.109C9.44263 24.1068 9.2867 24.1361 9.14117 24.1953C8.99563 24.2544 8.86345 24.3422 8.75247 24.4534C8.64149 24.5646 8.55396 24.6969 8.49507 24.8425C8.43619 24.9882 8.40714 25.1442 8.40966 25.3012C8.41218 25.4583 8.44621 25.6133 8.50974 25.7569C8.57326 25.9006 8.66499 26.0301 8.77948 26.1376C8.89397 26.2452 9.0289 26.3287 9.17625 26.3831C12.1036 27.5667 15.3502 27.7021 18.3659 26.7664C21.3817 25.8307 23.9813 23.8814 25.7245 21.2486C27.4677 18.6159 28.2472 15.4616 27.931 12.32C27.6149 9.17838 26.2225 6.24261 23.9897 4.00993C21.757 1.77726 18.8211 0.384945 15.6793 0.0688142C12.5376 -0.247317 9.3831 0.532173 6.75024 2.27525C4.11738 4.01833 2.16797 6.61784 1.23221 9.63348C0.296452 12.6491 0.431865 15.8955 1.61551 18.8227C1.66997 18.9701 1.75346 19.105 1.86103 19.2195C1.9686 19.334 2.09806 19.4257 2.24174 19.4892C2.38543 19.5528 2.5404 19.5868 2.69748 19.5893C2.85455 19.5918 3.01054 19.5628 3.15618 19.5039C3.30182 19.445 3.43416 19.3575 3.54535 19.2465C3.65654 19.1355 3.74431 19.0034 3.80346 18.8578C3.86262 18.7123 3.89195 18.5564 3.88972 18.3993C3.88749 18.2422 3.85374 18.0872 3.79048 17.9434C3.2434 16.5919 2.96389 15.1471 2.96743 13.6891Z" fill="white"/>
<path d="M14.3115 16.8187C14.9839 16.8184 15.6384 16.6015 16.178 16.2002C16.7175 15.7989 17.1135 15.2345 17.3071 14.5905C17.5008 13.9466 17.4818 13.2574 17.2531 12.625C17.0244 11.9927 16.5981 11.4509 16.0373 11.0798C15.4765 10.7087 14.8111 10.5281 14.1397 10.5647C13.4682 10.6014 12.8264 10.8533 12.3094 11.2832C11.7923 11.7132 11.4275 12.2982 11.269 12.9517C11.1105 13.6052 11.1667 14.2923 11.4293 14.9114L6.43937 19.901L6.39399 19.948H4.56326C3.94099 19.9485 3.3444 20.1961 2.90466 20.6364L0.343207 23.1977C0.179293 23.3619 0.0676895 23.5709 0.0224934 23.7984C-0.0227026 24.0259 0.000535654 24.2616 0.0892732 24.4759C0.178011 24.6902 0.328268 24.8734 0.521066 25.0024C0.713864 25.1314 0.940556 25.2003 1.17251 25.2005H2.79982V26.8277C2.80003 27.0597 2.86896 27.2864 2.99793 27.4792C3.12689 27.6719 3.3101 27.8222 3.52441 27.9109C3.73872 27.9997 3.97452 28.0229 4.20203 27.9777C4.42954 27.9325 4.63855 27.8209 4.80267 27.657L7.36412 25.0941C7.80402 24.6548 8.05163 24.0588 8.0526 23.4371V21.6065L8.09954 21.5611L13.0879 16.573C13.4634 16.7326 13.8765 16.8202 14.3099 16.8202M6.39242 21.5142L6.48631 21.6065V23.4371C6.48585 23.6444 6.40312 23.8431 6.25629 23.9895L4.36298 25.8827V24.4197C4.36298 24.2123 4.28055 24.0133 4.13383 23.8666C3.98711 23.7198 3.78811 23.6374 3.58062 23.6374H2.11604L4.00935 21.7442C4.08207 21.6708 4.16859 21.6126 4.26393 21.5729C4.35927 21.5331 4.46154 21.5126 4.56483 21.5126L6.39242 21.5142Z" fill="white"/>
</svg>
