<svg width="20" height="20" viewBox="0 0 20 20" fill="none" xmlns="http://www.w3.org/2000/svg">
<g clip-path="url(#clip0_4851_20671)">
<path d="M19.9167 9.53113C19.5893 7.01064 18.3144 4.70941 16.3512 3.09516C14.388 1.48092 11.8837 0.674803 9.34747 0.840667C6.81122 1.00653 4.4333 2.13193 2.69703 3.98811C0.960757 5.84429 -0.00356686 8.29197 6.17117e-05 10.8336C-0.00474195 12.1941 0.270943 13.5409 0.809907 14.79C1.34887 16.0391 2.13954 17.1637 3.13256 18.0936C3.89201 18.7968 4.89269 19.181 5.92756 19.167H14.0667C15.16 19.1695 16.2104 18.7418 16.9909 17.9761C18.1032 16.894 18.947 15.5668 19.455 14.1005C19.963 12.6342 20.1211 11.0694 19.9167 9.53113ZM15.8259 16.7811C15.357 17.2431 14.7249 17.5015 14.0667 17.5003H5.92756C5.31862 17.5128 4.72797 17.2919 4.27673 16.8828C3.44946 16.1079 2.79075 15.1708 2.34169 14.13C1.89264 13.0893 1.66287 11.9671 1.66673 10.8336C1.66755 9.66049 1.91571 8.50072 2.39501 7.42996C2.87431 6.35921 3.57399 5.40155 4.44839 4.61946C5.96768 3.24938 7.94259 2.49394 9.9884 2.50029C10.3153 2.50043 10.6419 2.51879 10.9667 2.55529C12.5297 2.73682 14.0093 3.35743 15.2342 4.34523C16.459 5.33303 17.3789 6.64761 17.8874 8.1367C18.3959 9.62579 18.4721 11.2285 18.1073 12.7591C17.7424 14.2897 16.9514 15.6857 15.8259 16.7853V16.7811ZM6.50589 14.4045C6.66392 14.5592 6.75401 14.7703 6.75636 14.9915C6.7587 15.2126 6.6731 15.4256 6.51839 15.5836C6.36369 15.7417 6.15254 15.8317 5.9314 15.8341C5.71026 15.8364 5.49725 15.7508 5.33923 15.5961C4.39336 14.6696 3.74481 13.4824 3.47624 12.1859C3.20766 10.8894 3.33124 9.54225 3.83122 8.31623C4.33119 7.09021 5.18491 6.04083 6.28356 5.30186C7.38221 4.56289 8.67601 4.16781 10.0001 4.16696C10.3188 4.16687 10.6371 4.18943 10.9526 4.23446C11.0609 4.25008 11.1651 4.2869 11.2592 4.34281C11.3534 4.39872 11.4355 4.47262 11.5011 4.5603C11.5666 4.64799 11.6143 4.74772 11.6413 4.85382C11.6683 4.95991 11.6741 5.07028 11.6584 5.17863C11.644 5.28757 11.6081 5.39254 11.5525 5.48737C11.497 5.58219 11.4231 5.66496 11.3351 5.7308C11.2472 5.79664 11.1469 5.84423 11.0403 5.87076C10.9337 5.89729 10.8228 5.90223 10.7142 5.88529C9.6713 5.73633 8.60797 5.92059 7.67597 6.4118C6.74398 6.903 5.99095 7.67604 5.52436 8.62059C5.05777 9.56514 4.90145 10.6329 5.07771 11.6716C5.25397 12.7103 5.75381 13.6667 6.50589 14.4045ZM16.5992 9.88113C16.6443 10.1966 16.6668 10.5149 16.6667 10.8336C16.6694 11.7217 16.4931 12.6012 16.1484 13.4196C15.8036 14.238 15.2974 14.9785 14.6601 15.597C14.5018 15.7517 14.2886 15.8372 14.0673 15.8347C13.846 15.8322 13.6348 15.7419 13.4801 15.5836C13.3254 15.4254 13.2398 15.2122 13.2423 14.9909C13.2448 14.7696 13.3351 14.5583 13.4934 14.4036C14.0564 13.8548 14.4816 13.1806 14.7342 12.436C14.9868 11.6914 15.0596 10.8976 14.9467 10.1195C14.9151 9.90055 14.9718 9.67804 15.1042 9.5009C15.2367 9.32376 15.4341 9.20648 15.653 9.17488C15.8719 9.14327 16.0944 9.19993 16.2715 9.33237C16.4487 9.46482 16.566 9.66221 16.5976 9.88113H16.5992ZM11.6051 10.407C11.7053 10.7676 11.6834 11.1513 11.5426 11.4981C11.4018 11.8449 11.1501 12.1354 10.8268 12.324C10.5035 12.5127 10.1269 12.589 9.75566 12.541C9.38443 12.4931 9.03955 12.3235 8.77487 12.0588C8.5102 11.7941 8.34062 11.4493 8.29264 11.078C8.24466 10.7068 8.32097 10.3301 8.50965 10.0069C8.69833 9.68359 8.98877 9.4319 9.33559 9.29111C9.68241 9.15031 10.0661 9.12834 10.4267 9.22863L13.5776 6.07779C13.6544 5.9982 13.7464 5.93472 13.8481 5.89104C13.9497 5.84737 14.0591 5.82438 14.1697 5.82342C14.2804 5.82246 14.3901 5.84354 14.4925 5.88544C14.5949 5.92734 14.688 5.98922 14.7662 6.06746C14.8445 6.14571 14.9063 6.23875 14.9482 6.34117C14.9901 6.44358 15.0112 6.55331 15.0103 6.66396C15.0093 6.77461 14.9863 6.88396 14.9426 6.98563C14.899 7.0873 14.8355 7.17925 14.7559 7.25613L11.6051 10.407Z" fill="#0D0D0D" fill-opacity="0.35"/>
<path d="M9.37988 1.33984C11.7892 1.18228 14.1682 1.94803 16.0332 3.48145C17.8983 5.01498 19.1098 7.20124 19.4209 9.5957V9.59668C19.615 11.0576 19.4649 12.5439 18.9824 13.9365C18.4999 15.3292 17.699 16.5904 16.6426 17.6182L16.6406 17.6191C15.954 18.2927 15.0301 18.6691 14.0684 18.667H5.9209C5.07101 18.6786 4.24742 18.3833 3.59961 17.8389L3.47266 17.7266C2.53071 16.844 1.77994 15.777 1.26855 14.5918C0.756888 13.4058 0.495439 12.1266 0.5 10.835V10.833C0.496553 8.41846 1.41308 6.09344 3.0625 4.33008C4.71191 2.56676 6.97054 1.49747 9.37988 1.33984ZM9.98926 2C7.81947 1.99343 5.72465 2.79493 4.11328 4.24805C3.18725 5.07673 2.4462 6.09135 1.93848 7.22559C1.43062 8.36011 1.16804 9.58903 1.16699 10.832C1.16291 12.0342 1.40656 13.2243 1.88281 14.3281C2.35908 15.4319 3.05719 16.4262 3.93457 17.248L3.94043 17.2529C4.48379 17.7455 5.1947 18.0115 5.92773 17.999V18H14.0664V17.999C14.5061 17.9997 14.9343 17.9015 15.3262 17.7207V17.9727L16.1758 17.1426C17.3687 15.977 18.207 14.4973 18.5938 12.875C18.9805 11.2526 18.8993 9.55396 18.3604 7.97559C17.8213 6.39709 16.8462 5.00316 15.5479 3.95605C14.2495 2.909 12.6812 2.25102 11.0244 2.05859H11.0225C10.6794 2.02005 10.3345 2.00017 9.98926 2ZM15.7246 9.66992C15.812 9.65734 15.9009 9.67967 15.9717 9.73242C16.0425 9.78537 16.0898 9.86466 16.1025 9.95215L16.1133 10.0254C16.1483 10.2932 16.167 10.5629 16.167 10.833V10.835C16.1695 11.6558 16.0062 12.4691 15.6875 13.2256C15.3688 13.982 14.9006 14.6667 14.3115 15.2383L14.3105 15.2393C14.2472 15.3012 14.1618 15.3359 14.0732 15.335C13.9847 15.334 13.8999 15.2976 13.8379 15.2344C13.7759 15.171 13.7412 15.0848 13.7422 14.9961C13.7433 14.9077 13.7787 14.8226 13.8418 14.7607L13.8428 14.7617C14.4622 14.1579 14.9301 13.4159 15.208 12.5967C15.4512 11.8797 15.5427 11.1212 15.4785 10.3691L15.4414 10.0479C15.4288 9.96033 15.452 9.87164 15.5049 9.80078C15.5579 9.72984 15.6369 9.68258 15.7246 9.66992ZM10 4.66699C10.2946 4.66691 10.5892 4.68694 10.8809 4.72852V4.72949C10.9242 4.73574 10.9663 4.75013 11.0039 4.77246C11.0415 4.79478 11.0744 4.8244 11.1006 4.85938C11.1268 4.89445 11.1455 4.9351 11.1562 4.97754C11.167 5.01988 11.1693 5.06419 11.1631 5.10742V5.11328C11.1575 5.15601 11.1428 5.19716 11.1211 5.23438C11.0993 5.27167 11.0698 5.30418 11.0352 5.33008C11.0006 5.3559 10.9617 5.3753 10.9199 5.38574C10.878 5.39618 10.8337 5.39826 10.791 5.3916L10.7852 5.39062L10.5693 5.36426C9.49187 5.25354 8.40343 5.46321 7.44238 5.96973C6.41741 6.51006 5.58935 7.36056 5.07617 8.39941C4.56304 9.43828 4.39117 10.6125 4.58496 11.7549C4.77884 12.8974 5.32803 13.9502 6.15527 14.7617H6.15625C6.21948 14.8237 6.2559 14.9086 6.25684 14.9971C6.25769 15.0854 6.22285 15.1702 6.16113 15.2334C6.09919 15.2967 6.01432 15.333 5.92578 15.334C5.83756 15.3348 5.7526 15.3009 5.68945 15.2393C4.81464 14.3823 4.21431 13.2841 3.96582 12.085C3.71739 10.8857 3.83147 9.63895 4.29395 8.50488C4.75641 7.37087 5.54631 6.40033 6.5625 5.7168C7.57864 5.03332 8.77539 4.66785 10 4.66699ZM13.9307 6.43164H13.9316L13.9375 6.4248C13.9681 6.39324 14.0046 6.36799 14.0449 6.35059C14.0855 6.33315 14.1297 6.32366 14.1738 6.32324C14.218 6.32286 14.2618 6.33194 14.3027 6.34863C14.3437 6.36539 14.3818 6.3896 14.4131 6.4209C14.4443 6.45211 14.4686 6.48947 14.4854 6.53027C14.5021 6.5711 14.5111 6.61507 14.5107 6.65918C14.5104 6.70335 14.5008 6.74748 14.4834 6.78809C14.4659 6.82876 14.44 6.86574 14.4082 6.89648L14.4023 6.90234L11.252 10.0537L11.0449 10.2598L11.123 10.541C11.1937 10.7951 11.1782 11.0652 11.0791 11.3096C10.9799 11.554 10.803 11.7596 10.5752 11.8926C10.3473 12.0256 10.081 12.0787 9.81934 12.0449C9.55791 12.011 9.31535 11.8915 9.12891 11.7051C8.94234 11.5185 8.82191 11.2753 8.78809 11.0137C8.75435 10.7521 8.80846 10.4866 8.94141 10.2588C9.0744 10.031 9.279 9.85314 9.52344 9.75391C9.7679 9.65467 10.0388 9.63927 10.293 9.70996L10.5742 9.78809L13.9307 6.43164Z" stroke="#0D0D0D" stroke-opacity="0.35"/>
</g>
<defs>
<clipPath id="clip0_4851_20671">
<rect width="20" height="20" fill="white"/>
</clipPath>
</defs>
</svg>
