<svg width="20" height="20" viewBox="0 0 20 20" fill="none" xmlns="http://www.w3.org/2000/svg">
<g clip-path="url(#clip0_5824_54458)">
<path d="M18.4371 3.49473V0.585938H15.5283" stroke="#00694B" stroke-width="1.17188" stroke-miterlimit="10"/>
<path d="M18.4374 0.585938L16.2919 2.73145C14.2971 4.72622 11.929 6.30856 9.32266 7.38813C6.71636 8.46769 3.92295 9.02333 1.10191 9.02332H0.976641M0 19.4134H20M14.9216 19.414V8.03063C14.9216 7.75448 15.1454 7.53063 15.4216 7.53063H17.9374C18.2135 7.53063 18.4374 7.75448 18.4374 8.03063V19.414M8.24207 19.4134V11.4288C8.24207 11.1526 8.46593 10.9288 8.74207 10.9288H11.2579C11.5341 10.9288 11.7579 11.1526 11.7579 11.4288V19.4134M1.56262 19.4134V14.8274C1.56262 14.5513 1.78647 14.3274 2.06262 14.3274H4.57844C4.85458 14.3274 5.07844 14.5513 5.07844 14.8274V19.4134" stroke="#00694B" stroke-width="1.17188" stroke-miterlimit="10"/>
</g>
<defs>
<clipPath id="clip0_5824_54458">
<rect width="20" height="20" fill="white"/>
</clipPath>
</defs>
</svg>
