<svg width="28" height="28" viewBox="0 0 28 28" fill="none" xmlns="http://www.w3.org/2000/svg">
<g clip-path="url(#clip0_1911_29791)">
<path fill-rule="evenodd" clip-rule="evenodd" d="M13.9197 0.44043C6.44252 0.44043 0.368164 6.51501 0.368164 13.9922C0.368164 21.4693 6.44258 27.5435 13.9197 27.5435C21.3969 27.5435 27.4713 21.4694 27.4713 13.9922C27.4713 6.51495 21.3969 0.44043 13.9197 0.44043ZM22.0321 18.3725C21.9395 18.5975 21.5027 18.9149 19.9676 19.1534C19.8353 19.1795 19.7956 19.3385 19.7162 19.6828C19.6915 19.8077 19.6606 19.9314 19.6236 20.0532C19.5838 20.1721 19.5177 20.2252 19.3986 20.2252H19.3853C19.2688 20.2225 19.1532 20.2047 19.0413 20.1722C18.7355 20.1164 18.4257 20.0855 18.1149 20.0798C17.8932 20.0781 17.6718 20.0958 17.4531 20.1325C16.9899 20.2121 16.6062 20.4899 16.1828 20.7811C15.5872 21.2047 14.9652 21.6413 13.9991 21.6413H13.7874C12.8213 21.6413 12.1993 21.2047 11.6038 20.7811C11.1936 20.4899 10.7965 20.2121 10.3334 20.1325C10.1147 20.0958 9.89334 20.0782 9.67166 20.0798C9.36017 20.0852 9.04993 20.1206 8.74525 20.1856C8.6323 20.2132 8.51714 20.2308 8.4011 20.2383C8.34716 20.2442 8.29293 20.2299 8.24893 20.1981C8.20494 20.1664 8.17429 20.1194 8.16294 20.0664C8.12323 19.934 8.09677 19.8017 8.07024 19.6828C8.00407 19.365 7.95119 19.1796 7.81884 19.1534C6.28366 18.9149 5.84698 18.5975 5.75434 18.3725C5.73935 18.339 5.73039 18.3032 5.72787 18.2666C5.72698 18.2252 5.74129 18.1848 5.76811 18.1531C5.79492 18.1214 5.83238 18.1007 5.87345 18.0947C8.22911 17.6977 9.2878 15.289 9.32751 15.1832H9.3408C9.48632 14.892 9.51279 14.6273 9.42015 14.4288C9.26134 14.0449 8.73196 13.8729 8.38792 13.7671C8.30723 13.7446 8.22772 13.718 8.1497 13.6874C7.44828 13.4097 7.39534 13.1319 7.42181 12.9861C7.47475 12.7349 7.79238 12.5626 8.07024 12.5626C8.13424 12.5617 8.1976 12.5754 8.25552 12.6026C8.57315 12.748 8.85107 12.8273 9.08929 12.8273C9.43338 12.8273 9.57891 12.6818 9.59214 12.6688C9.59214 12.5099 9.57891 12.3379 9.56573 12.1655C9.49955 11.0541 9.40691 9.66457 9.76424 8.87051C10.8229 6.5015 13.0595 6.31644 13.7212 6.31644H14.052C14.7137 6.31644 16.9635 6.5015 18.0222 8.87051C18.3795 9.66457 18.2869 11.0542 18.2207 12.1655V12.2186C18.2075 12.3641 18.1943 12.523 18.1943 12.6687C18.2075 12.6818 18.3398 12.8142 18.6442 12.8273C18.8825 12.8141 19.1471 12.7349 19.4383 12.6026C19.5178 12.5684 19.6032 12.5504 19.6897 12.5495C19.7861 12.5511 19.8809 12.5736 19.9676 12.6157H19.9809C20.2058 12.6949 20.3647 12.8672 20.3647 13.0392C20.3778 13.1981 20.2455 13.4493 19.6368 13.6874C19.5706 13.714 19.4912 13.7405 19.4118 13.7671C19.0544 13.8729 18.5251 14.0449 18.3663 14.4288C18.2737 14.6274 18.3001 14.892 18.4457 15.1832H18.4589C18.4986 15.289 19.5574 17.6977 21.913 18.0947C21.954 18.1007 21.9915 18.1214 22.0183 18.1531C22.0451 18.1848 22.0594 18.2252 22.0585 18.2666C22.056 18.3032 22.0471 18.339 22.0321 18.3725Z" fill="#09760A"/>
</g>
<defs>
<clipPath id="clip0_1911_29791">
<rect width="28" height="28" fill="white"/>
</clipPath>
</defs>
</svg>
