<svg width="20" height="20" viewBox="0 0 20 20" fill="none" xmlns="http://www.w3.org/2000/svg">
<g clip-path="url(#clip0_5824_54437)">
<path d="M8.4375 19.375H1.25C1.08424 19.375 0.925268 19.3092 0.808058 19.1919C0.690848 19.0747 0.625 18.9158 0.625 18.75V3.75C0.625 3.58424 0.690848 3.42527 0.808058 3.30806C0.925268 3.19085 1.08424 3.125 1.25 3.125H4.0625C4.22826 3.125 4.38723 3.19085 4.50444 3.30806C4.62165 3.42527 4.6875 3.58424 4.6875 3.75V4.375H9.0625V3.75C9.0625 3.58424 9.12835 3.42527 9.24556 3.30806C9.36277 3.19085 9.52174 3.125 9.6875 3.125H12.5C12.6658 3.125 12.8247 3.19085 12.9419 3.30806C13.0592 3.42527 13.125 3.58424 13.125 3.75V5.625C13.125 5.79076 13.0592 5.94973 12.9419 6.06694C12.8247 6.18415 12.6658 6.25 12.5 6.25C12.3342 6.25 12.1753 6.18415 12.0581 6.06694C11.9408 5.94973 11.875 5.79076 11.875 5.625V4.375H10.3125V5C10.3125 5.16576 10.2467 5.32473 10.1294 5.44194C10.0122 5.55915 9.85326 5.625 9.6875 5.625H4.0625C3.89674 5.625 3.73777 5.55915 3.62056 5.44194C3.50335 5.32473 3.4375 5.16576 3.4375 5V4.375H1.875V18.125H8.4375C8.60326 18.125 8.76223 18.1908 8.87944 18.3081C8.99665 18.4253 9.0625 18.5842 9.0625 18.75C9.0625 18.9158 8.99665 19.0747 8.87944 19.1919C8.76223 19.3092 8.60326 19.375 8.4375 19.375Z" fill="#00694B"/>
<path d="M9.6875 5.62486H4.0625C3.89674 5.62486 3.73777 5.55901 3.62056 5.4418C3.50335 5.32459 3.4375 5.16562 3.4375 4.99986V2.81236C3.4375 2.6466 3.50335 2.48763 3.62056 2.37042C3.73777 2.25321 3.89674 2.18736 4.0625 2.18736H4.77844C4.91289 1.73572 5.1896 1.33957 5.56737 1.05788C5.94514 0.776193 6.40377 0.624023 6.875 0.624023C7.34623 0.624023 7.80486 0.776193 8.18263 1.05788C8.5604 1.33957 8.83711 1.73572 8.97156 2.18736H9.6875C9.85326 2.18736 10.0122 2.25321 10.1294 2.37042C10.2467 2.48763 10.3125 2.6466 10.3125 2.81236V4.99986C10.3125 5.16562 10.2467 5.32459 10.1294 5.4418C10.0122 5.55901 9.85326 5.62486 9.6875 5.62486ZM4.6875 4.37486H9.0625V3.43736H8.4375C8.27174 3.43736 8.11277 3.37151 7.99556 3.2543C7.87835 3.13709 7.8125 2.97812 7.8125 2.81236C7.8125 2.56372 7.71373 2.32526 7.53791 2.14945C7.3621 1.97363 7.12364 1.87486 6.875 1.87486C6.62636 1.87486 6.3879 1.97363 6.21209 2.14945C6.03627 2.32526 5.9375 2.56372 5.9375 2.81236C5.9375 2.97812 5.87165 3.13709 5.75444 3.2543C5.63723 3.37151 5.47826 3.43736 5.3125 3.43736H4.6875V4.37486ZM8.125 8.74986H5.3125C5.14674 8.74986 4.98777 8.68401 4.87056 8.5668C4.75335 8.44959 4.6875 8.29062 4.6875 8.12486C4.6875 7.9591 4.75335 7.80013 4.87056 7.68292C4.98777 7.56571 5.14674 7.49986 5.3125 7.49986H8.125C8.29076 7.49986 8.44973 7.56571 8.56694 7.68292C8.68415 7.80013 8.75 7.9591 8.75 8.12486C8.75 8.29062 8.68415 8.44959 8.56694 8.5668C8.44973 8.68401 8.29076 8.74986 8.125 8.74986Z" fill="#00694B"/>
<path d="M3.4375 8.75C3.78268 8.75 4.0625 8.47018 4.0625 8.125C4.0625 7.77982 3.78268 7.5 3.4375 7.5C3.09232 7.5 2.8125 7.77982 2.8125 8.125C2.8125 8.47018 3.09232 8.75 3.4375 8.75Z" fill="#00694B"/>
<path d="M6.25 12.5H5.3125C5.14674 12.5 4.98777 12.4342 4.87056 12.3169C4.75335 12.1997 4.6875 12.0408 4.6875 11.875C4.6875 11.7092 4.75335 11.5503 4.87056 11.4331C4.98777 11.3158 5.14674 11.25 5.3125 11.25H6.25C6.41576 11.25 6.57473 11.3158 6.69194 11.4331C6.80915 11.5503 6.875 11.7092 6.875 11.875C6.875 12.0408 6.80915 12.1997 6.69194 12.3169C6.57473 12.4342 6.41576 12.5 6.25 12.5Z" fill="#00694B"/>
<path d="M3.4375 12.5C3.78268 12.5 4.0625 12.2202 4.0625 11.875C4.0625 11.5298 3.78268 11.25 3.4375 11.25C3.09232 11.25 2.8125 11.5298 2.8125 11.875C2.8125 12.2202 3.09232 12.5 3.4375 12.5Z" fill="#00694B"/>
<path d="M7.1875 16.25H5.3125C5.14674 16.25 4.98777 16.1842 4.87056 16.0669C4.75335 15.9497 4.6875 15.7908 4.6875 15.625C4.6875 15.4592 4.75335 15.3003 4.87056 15.1831C4.98777 15.0658 5.14674 15 5.3125 15H7.1875C7.35326 15 7.51223 15.0658 7.62944 15.1831C7.74665 15.3003 7.8125 15.4592 7.8125 15.625C7.8125 15.7908 7.74665 15.9497 7.62944 16.0669C7.51223 16.1842 7.35326 16.25 7.1875 16.25Z" fill="#00694B"/>
<path d="M3.4375 16.25C3.78268 16.25 4.0625 15.9702 4.0625 15.625C4.0625 15.2798 3.78268 15 3.4375 15C3.09232 15 2.8125 15.2798 2.8125 15.625C2.8125 15.9702 3.09232 16.25 3.4375 16.25Z" fill="#00694B"/>
<path d="M14.375 19.375H12.5C12.3555 19.375 12.2155 19.3249 12.1038 19.2333C11.992 19.1417 11.9155 19.0142 11.8872 18.8725L11.6731 17.8016C11.5729 17.7641 11.4744 17.7236 11.3775 17.6803L10.4688 18.2853C10.3485 18.3655 10.2042 18.4015 10.0604 18.3873C9.9166 18.373 9.78217 18.3094 9.68 18.2072L8.35437 16.8816C8.25217 16.7794 8.18853 16.645 8.17429 16.5012C8.16005 16.3573 8.19608 16.213 8.27625 16.0928L8.88125 15.185C8.83812 15.0885 8.79771 14.99 8.76 14.8894L7.68906 14.6753C7.54755 14.6468 7.42027 14.5702 7.32884 14.4585C7.23741 14.3468 7.18747 14.2069 7.1875 14.0625V12.1875C7.18752 12.043 7.23759 11.903 7.32921 11.7913C7.42082 11.6795 7.54832 11.603 7.69 11.5747L8.76094 11.3606C8.79844 11.2604 8.83885 11.1619 8.88219 11.065L8.27719 10.1562C8.19701 10.036 8.16098 9.89172 8.17523 9.74791C8.18947 9.6041 8.25311 9.46967 8.35531 9.3675L9.68094 8.04187C9.78311 7.93967 9.91754 7.87603 10.0613 7.86179C10.2052 7.84755 10.3495 7.88358 10.4697 7.96375L11.3775 8.56875C11.474 8.52562 11.5725 8.48521 11.6731 8.4475L11.8872 7.37656C11.9157 7.23505 11.9923 7.10777 12.104 7.01634C12.2157 6.92491 12.3556 6.87497 12.5 6.875H14.375C14.5195 6.87502 14.6595 6.92509 14.7712 7.01671C14.883 7.10832 14.9595 7.23582 14.9878 7.3775L15.2019 8.44844C15.3021 8.48594 15.4006 8.52635 15.4975 8.56969L16.4062 7.96469C16.5265 7.88451 16.6708 7.84848 16.8146 7.86273C16.9584 7.87697 17.0928 7.94061 17.195 8.04281L18.5206 9.36844C18.6228 9.47061 18.6865 9.60504 18.7007 9.74884C18.715 9.89265 18.6789 10.037 18.5987 10.1572L17.9938 11.065C18.0369 11.1615 18.0773 11.26 18.115 11.3606L19.1859 11.5747C19.3274 11.6032 19.4547 11.6798 19.5462 11.7915C19.6376 11.9032 19.6875 12.0431 19.6875 12.1875V14.0625C19.6875 14.207 19.6374 14.347 19.5458 14.4587C19.4542 14.5705 19.3267 14.647 19.185 14.6753L18.1141 14.8894C18.0766 14.9896 18.0361 15.0881 17.9928 15.185L18.5978 16.0938C18.678 16.214 18.714 16.3583 18.6998 16.5021C18.6855 16.6459 18.6219 16.7803 18.5197 16.8825L17.1941 18.2081C17.0919 18.3103 16.9575 18.374 16.8137 18.3882C16.6698 18.4025 16.5255 18.3664 16.4053 18.2862L15.4975 17.6813C15.401 17.7244 15.3025 17.7648 15.2019 17.8025L14.9878 18.8734C14.9593 19.0149 14.8827 19.1422 14.771 19.2337C14.6593 19.3251 14.5194 19.375 14.375 19.375ZM13.0125 18.125H13.8625L14.0475 17.2009C14.0699 17.089 14.1225 16.9853 14.1996 16.9011C14.2767 16.8169 14.3754 16.7555 14.485 16.7234C14.7477 16.6472 15.0013 16.5424 15.2413 16.4109C15.3414 16.3557 15.4548 16.3291 15.5691 16.3339C15.6834 16.3387 15.7942 16.3747 15.8894 16.4381L16.6706 16.9597L17.2716 16.3587L16.75 15.5775C16.6866 15.4823 16.6505 15.3715 16.6457 15.2572C16.6409 15.143 16.6676 15.0296 16.7228 14.9294C16.8543 14.6895 16.9591 14.4359 17.0353 14.1731C17.0674 14.0635 17.1288 13.9648 17.213 13.8877C17.2972 13.8106 17.4009 13.758 17.5128 13.7356L18.4375 13.55V12.7L17.5134 12.515C17.4015 12.4926 17.2978 12.44 17.2136 12.3629C17.1294 12.2858 17.068 12.1871 17.0359 12.0775C16.9597 11.8148 16.8549 11.5612 16.7234 11.3212C16.6682 11.2211 16.6416 11.1077 16.6464 10.9934C16.6512 10.8791 16.6872 10.7683 16.7506 10.6731L17.2722 9.89187L16.6712 9.29094L15.89 9.8125C15.7948 9.87591 15.684 9.91197 15.5697 9.91676C15.4555 9.92156 15.3421 9.8949 15.2419 9.83969C15.002 9.70822 14.7484 9.60343 14.4856 9.52719C14.376 9.49515 14.2773 9.4337 14.2002 9.34952C14.1231 9.26534 14.0705 9.16165 14.0481 9.04969L13.8625 8.125H13.0125L12.8275 9.04906C12.8051 9.16102 12.7525 9.26472 12.6754 9.3489C12.5983 9.43308 12.4996 9.49452 12.39 9.52656C12.1273 9.6028 11.8737 9.7076 11.6337 9.83906C11.5336 9.89427 11.4202 9.92093 11.3059 9.91614C11.1916 9.91134 11.0808 9.87528 10.9856 9.81188L10.2044 9.29031L9.60344 9.89125L10.125 10.6725C10.1884 10.7677 10.2245 10.8785 10.2293 10.9928C10.2341 11.107 10.2074 11.2204 10.1522 11.3206C10.0207 11.5605 9.91593 11.8141 9.83969 12.0769C9.80765 12.1865 9.7462 12.2852 9.66202 12.3623C9.57784 12.4394 9.47415 12.492 9.36219 12.5144L8.4375 12.7V13.55L9.36156 13.735C9.47352 13.7574 9.57722 13.81 9.6614 13.8871C9.74558 13.9642 9.80702 14.0629 9.83906 14.1725C9.9153 14.4352 10.0201 14.6888 10.1516 14.9288C10.2068 15.0289 10.2334 15.1423 10.2286 15.2566C10.2238 15.3709 10.1878 15.4817 10.1244 15.5769L9.60281 16.3581L10.2038 16.9591L10.985 16.4375C11.0802 16.3741 11.191 16.338 11.3053 16.3332C11.4195 16.3284 11.5329 16.3551 11.6331 16.4103C11.873 16.5418 12.1266 16.6466 12.3894 16.7228C12.499 16.7549 12.5977 16.8163 12.6748 16.9005C12.7519 16.9847 12.8045 17.0884 12.8269 17.2003L13.0125 18.125Z" fill="#00694B"/>
<path d="M13.4375 15.625C12.943 15.625 12.4597 15.4784 12.0486 15.2037C11.6375 14.929 11.317 14.5385 11.1278 14.0817C10.9386 13.6249 10.8891 13.1222 10.9855 12.6373C11.082 12.1523 11.3201 11.7069 11.6697 11.3572C12.0194 11.0076 12.4648 10.7695 12.9498 10.673C13.4347 10.5766 13.9374 10.6261 14.3942 10.8153C14.851 11.0045 15.2415 11.325 15.5162 11.7361C15.7909 12.1472 15.9375 12.6305 15.9375 13.125C15.9368 13.7878 15.6731 14.4233 15.2044 14.8919C14.7358 15.3606 14.1003 15.6243 13.4375 15.625ZM13.4375 11.875C13.1903 11.875 12.9486 11.9483 12.743 12.0857C12.5375 12.223 12.3773 12.4182 12.2827 12.6466C12.188 12.8751 12.1633 13.1264 12.2115 13.3689C12.2598 13.6113 12.3788 13.8341 12.5536 14.0089C12.7284 14.1837 12.9512 14.3028 13.1936 14.351C13.4361 14.3992 13.6874 14.3745 13.9159 14.2799C14.1443 14.1852 14.3395 14.025 14.4768 13.8195C14.6142 13.6139 14.6875 13.3722 14.6875 13.125C14.6875 12.7935 14.5558 12.4755 14.3214 12.2411C14.087 12.0067 13.769 11.875 13.4375 11.875Z" fill="#00694B"/>
</g>
<defs>
<clipPath id="clip0_5824_54437">
<rect width="20" height="20" fill="white"/>
</clipPath>
</defs>
</svg>
