<svg width="60" height="54" viewBox="0 0 60 54" fill="none" xmlns="http://www.w3.org/2000/svg">
<path fill-rule="evenodd" clip-rule="evenodd" d="M53.0194 40.0572C53.1951 40.2331 53.2938 40.4717 53.2936 40.7204C53.2934 40.9691 53.1945 41.2075 53.0185 41.3832C52.8426 41.559 52.604 41.6576 52.3553 41.6575C52.1066 41.6573 51.8682 41.5584 51.6925 41.3824L49.3125 39.0025V46.5354C49.3125 46.784 49.2137 47.0225 49.0379 47.1983C48.8621 47.3741 48.6236 47.4729 48.375 47.4729C48.1264 47.4729 47.8879 47.3741 47.7121 47.1983C47.5363 47.0225 47.4375 46.784 47.4375 46.5354V39.0025L45.0574 41.3821C44.8797 41.5479 44.6446 41.6383 44.4016 41.6341C44.1586 41.63 43.9267 41.5316 43.7548 41.3598C43.5829 41.1879 43.4845 40.956 43.4803 40.713C43.4761 40.47 43.5664 40.2348 43.7323 40.0572L47.7118 36.0765C47.8879 35.9007 48.1265 35.802 48.3753 35.802C48.6241 35.802 48.8627 35.9007 49.0387 36.0765L53.0194 40.0572ZM58.0527 42.8121C58.207 41.5413 58.1094 40.2524 57.7656 39.0193C57.4218 37.7861 56.8384 36.6328 56.0488 35.6251C55.2592 34.6174 54.2788 33.7752 53.1637 33.1464C52.0485 32.5176 50.8204 32.1147 49.5496 31.9606C49.1533 31.9124 48.7546 31.888 48.3554 31.8875C46.4784 31.8914 44.6423 32.4371 43.0679 33.459C41.4934 34.481 40.2474 35.9357 39.4797 37.6486C38.7119 39.3615 38.455 41.2596 38.7397 43.1149C39.0245 44.9702 39.8388 46.7039 41.0849 48.1077C42.3311 49.5114 43.9559 50.5256 45.7644 51.0283C47.5729 51.5311 49.4881 51.501 51.2799 50.9417C53.0717 50.3825 54.6639 49.3178 55.8654 47.8756C57.0668 46.4334 57.8263 44.675 58.0527 42.8116V42.8121ZM7.37484 46.6676H37.8941C36.9479 44.6966 36.577 42.4986 36.8239 40.3262C37.0709 38.1539 37.9256 36.0952 39.2901 34.3869C40.6545 32.6785 42.4732 31.3897 44.5372 30.6686C46.6013 29.9475 48.8268 29.8233 50.9583 30.3103V22.9219L44.7845 16.7469L31.9773 25.9792L35.7954 28.6556C35.8989 28.7252 35.9874 28.8146 36.0559 28.9188C36.1244 29.023 36.1714 29.1397 36.1942 29.2623C36.217 29.3849 36.2152 29.5108 36.1887 29.6326C36.1623 29.7544 36.1118 29.8698 36.0403 29.9719C35.9687 30.0739 35.8775 30.1607 35.772 30.2272C35.6665 30.2936 35.5488 30.3383 35.4259 30.3587C35.3029 30.3791 35.177 30.3747 35.0558 30.3459C34.9345 30.3171 34.8202 30.2643 34.7195 30.1908L15.4773 16.7025L1.875 28.2056V41.1666C1.87655 42.6247 2.45641 44.0227 3.48738 45.0539C4.51834 46.085 5.91623 46.6652 7.37437 46.667L7.37484 46.6676ZM7.37484 1.875H45.4584C46.9166 1.87652 48.3146 2.45644 49.3457 3.4875C50.3768 4.51857 50.9567 5.91656 50.9583 7.37473V20.2698L45.5463 14.8583C45.3889 14.7007 45.1805 14.6043 44.9584 14.5863C44.7364 14.5682 44.5152 14.6298 44.3344 14.7599L30.3516 24.8404L15.9621 14.7527C15.7924 14.634 15.5881 14.5748 15.3812 14.5843C15.1743 14.5938 14.9764 14.6715 14.8182 14.8052L1.875 25.7509V7.37473C1.87649 5.91653 2.45641 4.51849 3.48751 3.48739C4.51861 2.4563 5.91665 1.87637 7.37484 1.87488V1.875ZM57.5242 34.4695C56.2948 32.8964 54.6785 31.669 52.833 30.907V7.37473C52.8309 5.41951 52.0532 3.54498 50.6707 2.16241C49.2882 0.77985 47.4137 0.0021713 45.4584 0H7.37484C5.41958 0.00210927 3.545 0.779761 2.16241 2.16233C0.779822 3.5449 0.00214034 5.41946 0 7.37473V41.167C0.00220166 43.1224 0.779853 44.997 2.16237 46.3797C3.5449 47.7624 5.41941 48.5403 7.37473 48.5428H39.0271C39.0918 48.6307 39.1587 48.7186 39.2263 48.8048C40.1676 50.0063 41.3363 51.0106 42.6656 51.7604C43.995 52.5102 45.4591 52.9908 46.9742 53.1748C48.4894 53.3588 50.0259 53.2425 51.4961 52.8327C52.9663 52.4228 54.3414 51.7274 55.5429 50.7861C56.7443 49.8449 57.7486 48.6762 58.4984 47.3468C59.2482 46.0174 59.7288 44.5533 59.9128 43.0382C60.0968 41.523 59.9805 39.9865 59.5707 38.5163C59.1609 37.0461 58.4654 35.671 57.5242 34.4695ZM29.5596 8.53688C30.4096 8.53685 31.2405 8.78887 31.9472 9.26107C32.6539 9.73327 33.2048 10.4044 33.5301 11.1897C33.8553 11.9749 33.9405 12.839 33.7747 13.6727C33.6089 14.5063 33.1996 15.2721 32.5986 15.8731C31.9976 16.4741 31.2319 16.8834 30.3982 17.0493C29.5646 17.2151 28.7005 17.13 27.9152 16.8048C27.13 16.4795 26.4588 15.9287 25.9865 15.222C25.5143 14.5153 25.2622 13.6845 25.2622 12.8345C25.2638 11.6952 25.7171 10.6031 26.5226 9.79753C27.3282 8.99196 28.4204 8.53869 29.5596 8.53711V8.53688ZM29.5596 19.0065C28.3388 19.0065 27.1455 18.6446 26.1304 17.9664C25.1154 17.2882 24.3243 16.3242 23.8571 15.1964C23.3899 14.0685 23.2677 12.8275 23.5058 11.6302C23.744 10.4329 24.3318 9.33307 25.195 8.46985C26.0582 7.60663 27.158 7.01877 28.3553 6.7806C29.5526 6.54243 30.7936 6.66466 31.9215 7.13182C33.0493 7.59898 34.0133 8.39009 34.6915 9.40512C35.3698 10.4201 35.7318 11.6135 35.7318 12.8343C35.7299 14.4706 35.079 16.0395 33.9219 17.1966C32.7648 18.3537 31.196 19.0046 29.5596 19.0065Z" fill="#0D0D0D" fill-opacity="0.35"/>
</svg>
