<svg width="48" height="48" viewBox="0 0 48 48" fill="none" xmlns="http://www.w3.org/2000/svg">
<g opacity="0.3" clip-path="url(#clip0_3945_22827)">
<path d="M24 32C22.4177 32 20.871 31.5308 19.5554 30.6518C18.2398 29.7727 17.2145 28.5233 16.609 27.0615C16.0035 25.5997 15.845 23.9911 16.1537 22.4393C16.4624 20.8874 17.2243 19.462 18.3431 18.3431C19.462 17.2243 20.8874 16.4624 22.4393 16.1537C23.9911 15.845 25.5997 16.0035 27.0615 16.609C28.5233 17.2145 29.7727 18.2398 30.6518 19.5554C31.5308 20.871 32 22.4178 32 24C32 26.1217 31.1571 28.1566 29.6569 29.6569C28.1566 31.1572 26.1217 32 24 32ZM11.366 32H2C1.46957 32 0.960859 31.7893 0.585786 31.4142C0.210714 31.0391 0 30.5304 0 30C0.0189517 27.1282 1.06345 24.3577 2.94511 22.1882C4.82677 20.0186 7.42174 18.5929 10.262 18.168C10.592 18.1218 10.9284 18.1587 11.2405 18.2755C11.5527 18.3924 11.8306 18.5853 12.0492 18.8369C12.2678 19.0885 12.4201 19.3907 12.4921 19.716C12.5642 20.0414 12.5539 20.3797 12.462 20.7C12.1555 21.7732 12 22.8839 12 24C12.0006 25.7795 12.4011 27.5361 13.172 29.14C13.317 29.4444 13.3827 29.7806 13.3629 30.1172C13.3432 30.4538 13.2386 30.7799 13.059 31.0653C12.8794 31.3507 12.6306 31.586 12.3356 31.7494C12.0407 31.9129 11.7092 31.9991 11.372 32H11.366ZM34 48H14C13.4696 48 12.9609 47.7893 12.5858 47.4142C12.2107 47.0391 12 46.5304 12 46C12 42.8174 13.2643 39.7652 15.5147 37.5147C17.7652 35.2643 20.8174 34 24 34C27.1826 34 30.2348 35.2643 32.4853 37.5147C34.7357 39.7652 36 42.8174 36 46C36 46.5304 35.7893 47.0391 35.4142 47.4142C35.0391 47.7893 34.5304 48 34 48ZM36 16C34.4178 16 32.871 15.5308 31.5554 14.6518C30.2398 13.7727 29.2145 12.5233 28.609 11.0615C28.0035 9.59966 27.845 7.99113 28.1537 6.43928C28.4624 4.88743 29.2243 3.46197 30.3431 2.34315C31.462 1.22433 32.8874 0.462403 34.4393 0.153721C35.9911 -0.15496 37.5997 0.00346625 39.0615 0.608967C40.5233 1.21447 41.7727 2.23985 42.6518 3.55544C43.5308 4.87103 44 6.41775 44 8C44 10.1217 43.1571 12.1566 41.6569 13.6569C40.1566 15.1571 38.1217 16 36 16ZM12 16C10.4177 16 8.87103 15.5308 7.55544 14.6518C6.23984 13.7727 5.21447 12.5233 4.60896 11.0615C4.00346 9.59966 3.84504 7.99113 4.15372 6.43928C4.4624 4.88743 5.22433 3.46197 6.34315 2.34315C7.46197 1.22433 8.88743 0.462403 10.4393 0.153721C11.9911 -0.15496 13.5997 0.00346625 15.0615 0.608967C16.5233 1.21447 17.7727 2.23985 18.6518 3.55544C19.5308 4.87103 20 6.41775 20 8C20 10.1217 19.1571 12.1566 17.6569 13.6569C16.1566 15.1571 14.1217 16 12 16ZM46 32H36.634C36.2968 31.9991 35.9653 31.9129 35.6704 31.7494C35.3754 31.586 35.1266 31.3507 34.947 31.0653C34.7674 30.7799 34.6628 30.4538 34.6431 30.1172C34.6233 29.7806 34.689 29.4444 34.834 29.14C35.6028 27.5357 36.0013 25.7791 36 24C35.9967 22.8834 35.8379 21.7727 35.528 20.7C35.4356 20.3787 35.4252 20.0394 35.4977 19.7131C35.5703 19.3868 35.7235 19.0839 35.9433 18.832C36.1631 18.5802 36.4426 18.3874 36.7561 18.2714C37.0696 18.1554 37.4072 18.1199 37.738 18.168C40.5783 18.5929 43.1732 20.0186 45.0549 22.1882C46.9366 24.3577 47.981 27.1282 48 30C48 30.5304 47.7893 31.0391 47.4142 31.4142C47.0391 31.7893 46.5304 32 46 32Z" fill="#09760A"/>
</g>
<defs>
<clipPath id="clip0_3945_22827">
<rect width="48" height="48" fill="white"/>
</clipPath>
</defs>
</svg>
