<svg width="28" height="28" viewBox="0 0 28 28" fill="none" xmlns="http://www.w3.org/2000/svg">
<path opacity="0.5" d="M5.25033 19.2499C3.50033 20.7199 2.91699 25.0832 2.91699 25.0832C2.91699 25.0832 7.28033 24.4999 8.75033 22.7499C9.57866 21.7699 9.56699 20.2649 8.64533 19.3549C8.19185 18.9221 7.5945 18.672 6.96792 18.6526C6.34134 18.6332 5.72968 18.8459 5.25033 19.2499Z" fill="white" stroke="white" stroke-width="1.5" stroke-linecap="round" stroke-linejoin="round"/>
<path d="M14 17.5L10.5 14C11.1208 12.3893 11.9026 10.8454 12.8333 9.39163C14.1927 7.21811 16.0856 5.42852 18.3318 4.19307C20.5781 2.95762 23.1031 2.3174 25.6667 2.3333C25.6667 5.50663 24.7567 11.0833 18.6667 15.1666C17.193 16.0985 15.6297 16.8802 14 17.5Z" fill="white" stroke="white" stroke-width="1.5" stroke-linecap="round" stroke-linejoin="round"/>
<g opacity="0.5">
<path d="M10.5003 14.0001H4.66699C4.66699 14.0001 5.30866 10.4651 7.00033 9.33344C8.89033 8.07344 12.8337 9.33344 12.8337 9.33344" fill="white"/>
<path d="M10.5003 14.0001H4.66699C4.66699 14.0001 5.30866 10.4651 7.00033 9.33344C8.89033 8.07344 12.8337 9.33344 12.8337 9.33344" stroke="white" stroke-width="1.5" stroke-linecap="round" stroke-linejoin="round"/>
</g>
<path opacity="0.5" d="M14 17.4998V23.3332C14 23.3332 17.535 22.6915 18.6667 20.9998C19.9267 19.1098 18.6667 15.1665 18.6667 15.1665" stroke="white" stroke-width="1.5" stroke-linecap="round" stroke-linejoin="round"/>
</svg>
