<svg width="28" height="28" viewBox="0 0 28 28" fill="none" xmlns="http://www.w3.org/2000/svg">
<g clip-path="url(#clip0_1911_29787)">
<path d="M14 0C6.26828 0 0 6.26828 0 14C0 21.7317 6.26828 28 14 28C21.7317 28 28 21.7317 28 14C28 6.26828 21.7317 0 14 0Z" fill="#09760A"/>
<path d="M15.5313 12.7332L21.5245 5.7666H20.1043L14.9004 11.8157L10.7441 5.7666H5.9502L12.2354 14.9138L5.9502 22.2194H7.37048L12.866 15.8314L17.2554 22.2194H22.0492L15.5313 12.7332ZM7.88222 6.83578H10.0637L20.105 21.1989H17.9235L7.88222 6.83578Z" fill="white"/>
</g>
<defs>
<clipPath id="clip0_1911_29787">
<rect width="28" height="28" fill="white"/>
</clipPath>
</defs>
</svg>
