<svg width="140" height="60" viewBox="0 0 140 60" fill="none" xmlns="http://www.w3.org/2000/svg">
<g clip-path="url(#clip0_3260_5585)">
<path d="M44.8745 0H14.9582C6.697 0 0 6.71573 0 15V45C0 53.2843 6.697 60 14.9582 60H44.8745C53.1357 60 59.8327 53.2843 59.8327 45V15C59.8327 6.71573 53.1357 0 44.8745 0Z" fill="#09760A"/>
<path d="M35.8869 36.8809C36.6457 35.3726 37.3615 33.9528 38.1023 32.4808C38.3107 32.7057 38.5508 32.967 38.7932 33.2259C41.3145 35.9336 45.571 35.2567 47.1159 31.9038C48.5317 28.8281 46.6673 25.1867 43.3487 24.5438C40.2838 23.9509 37.4046 26.5042 37.3615 29.9025C37.3185 33.3736 35.8235 36.0881 32.9918 37.9872C30.022 39.9794 26.8484 40.2156 23.5479 38.6119V32.9056C23.7472 33.0464 23.8741 33.101 23.9534 33.1964C25.573 35.1364 28.1554 35.1909 29.5985 34.5412C31.7119 33.5894 32.7653 31.8561 32.8197 29.5686C32.9012 26.0135 34.4122 23.2513 37.3548 21.309C42.3203 18.0334 49.1773 20.2573 51.4245 25.8273C53.6649 31.3814 50.8536 37.4965 45.1247 39.248C41.7494 40.2793 38.7026 39.3729 36.05 37.0922C35.948 37.0059 35.8846 36.8741 35.8869 36.8764V36.8809Z" fill="white"/>
<path d="M34.424 22.3814C33.5563 24.0373 32.8292 25.423 32.0885 26.836C31.9956 26.7497 31.8642 26.6474 31.76 26.5248C30.1108 24.6007 28.1763 24.0124 26.0129 24.7801C24.024 25.4866 22.6127 27.5629 22.5992 29.8845C22.5811 33.1374 22.6127 36.3903 22.5969 39.641C22.5811 42.928 20.8209 45.5677 17.756 46.7239C12.641 48.6548 7.3833 44.7204 7.64829 39.4616C7.83859 35.6884 10.4414 32.8467 14.2063 32.2697C15.2551 32.1083 16.2564 31.8539 16.9903 30.759C16.9903 32.4809 17.1172 34.0211 16.945 35.5294C16.8295 36.5448 15.7694 36.7198 14.895 36.8629C13.5629 37.0809 12.6727 37.7783 12.3125 39.1004C11.8934 40.6405 12.9423 42.217 14.6095 42.551C16.1386 42.8576 17.8353 41.7014 17.9033 40.1567C18.0029 37.8987 17.9304 35.6339 17.9825 33.3714C18.0278 31.4542 17.9282 29.5005 18.277 27.6333C18.9498 24.0192 21.1992 21.5636 24.6561 20.3346C27.9906 19.1465 31.051 19.8485 33.8237 21.9861C34.0479 22.1587 34.2948 22.3018 34.4217 22.3859L34.424 22.3814Z" fill="white"/>
<path d="M20.2633 12.777C21.7788 12.7634 23.0247 14.0014 23.0202 15.5188C23.0157 16.959 21.7539 18.2674 20.3449 18.2924C18.8362 18.3197 17.5925 17.1021 17.5631 15.5688C17.5314 14.0468 18.7478 12.7906 20.2633 12.777Z" fill="white"/>
<path d="M125.029 40.7848V19.2461H129.185V40.7848H125.029ZM128.085 40.7848V37.1082H139.97V40.7848H128.085ZM128.085 31.5627V28.0087H138.9V31.5627H128.085ZM128.085 22.9227V19.2461H139.817V22.9227H128.085Z" fill="#121212"/>
<path d="M108.959 31.7771V28.5295H113.94C114.958 28.5295 115.742 28.2742 116.292 27.7635C116.863 27.2324 117.147 26.5074 117.147 25.5882C117.147 24.7508 116.863 24.0563 116.292 23.5048C115.742 22.9329 114.958 22.6469 113.94 22.6469H108.959V19.2461H114.306C115.692 19.2461 116.903 19.5218 117.942 20.0733C119.001 20.6044 119.816 21.3397 120.386 22.2793C120.977 23.2189 121.272 24.3014 121.272 25.5269C121.272 26.7933 120.977 27.8963 120.386 28.8358C119.816 29.755 119.001 30.4801 117.942 31.0112C116.883 31.5218 115.651 31.7771 114.245 31.7771H108.959ZM105.904 40.7848V19.2461H110.06V40.7848H105.904ZM117.637 40.7848L110.548 31.4708L114.367 30.2758L122.678 40.7848H117.637Z" fill="#121212"/>
<path d="M82.7139 40.7848L91.3603 19.2461H94.7512L103.367 40.7848H98.9374L92.2765 23.1065H93.8042L87.0523 40.7848H82.7139ZM87.2966 36.7712V33.2784H98.8458V36.7712H87.2966Z" fill="#121212"/>
<path d="M73.8539 41.0911C72.2857 41.0911 70.8292 40.8153 69.4846 40.2638C68.1405 39.6919 66.9593 38.9055 65.9404 37.9046C64.9423 36.8834 64.1683 35.6987 63.6184 34.3506C63.0888 33.0025 62.8242 31.5523 62.8242 30C62.8242 28.4477 63.0888 26.9974 63.6184 25.6493C64.1683 24.3012 64.9423 23.1268 65.9404 22.1259C66.9593 21.1251 68.1304 20.3387 69.4543 19.7668C70.7984 19.1948 72.2649 18.9089 73.8539 18.9089C75.5648 18.9089 77.0723 19.1948 78.3754 19.7668C79.679 20.3183 80.8299 21.0843 81.828 22.0646L79.0174 24.8834C78.4265 24.2298 77.7036 23.7191 76.8482 23.3514C75.9927 22.9838 74.9946 22.8 73.8539 22.8C72.8558 22.8 71.9391 22.9736 71.1039 23.3208C70.2895 23.6477 69.5762 24.1378 68.9656 24.7914C68.3545 25.4246 67.886 26.1906 67.5597 27.0893C67.234 27.9677 67.0711 28.9378 67.0711 30C67.0711 31.0825 67.234 32.063 67.5597 32.9412C67.886 33.8196 68.3545 34.5855 68.9656 35.2391C69.5762 35.8723 70.2895 36.3625 71.1039 36.7098C71.9391 37.057 72.8558 37.2306 73.8539 37.2306C75.0553 37.2306 76.0843 37.0468 76.9397 36.6791C77.8154 36.3114 78.5489 35.7906 79.1393 35.1166L81.9505 37.9353C80.9524 38.9361 79.7914 39.7123 78.4675 40.2638C77.1431 40.8153 75.6057 41.0911 73.8539 41.0911Z" fill="#121212"/>
</g>
<defs>
<clipPath id="clip0_3260_5585">
<rect width="140" height="60" fill="white"/>
</clipPath>
</defs>
</svg>
