<svg width="140" height="60" viewBox="0 0 140 60" fill="none" xmlns="http://www.w3.org/2000/svg">
<g clip-path="url(#clip0_3449_16725)">
<path d="M44.8745 0H14.9582C6.697 0 0 6.71573 0 15V45C0 53.2843 6.697 60 14.9582 60H44.8745C53.1357 60 59.8327 53.2843 59.8327 45V15C59.8327 6.71573 53.1357 0 44.8745 0Z" fill="#09760A"/>
<path d="M35.8869 36.8809C36.6457 35.3726 37.3615 33.9528 38.1023 32.4808C38.3107 32.7057 38.5508 32.967 38.7932 33.2259C41.3145 35.9336 45.571 35.2567 47.1159 31.9038C48.5317 28.8281 46.6673 25.1867 43.3487 24.5438C40.2838 23.9509 37.4046 26.5042 37.3615 29.9025C37.3185 33.3736 35.8235 36.0881 32.9918 37.9872C30.022 39.9794 26.8484 40.2156 23.5479 38.6119V32.9056C23.7472 33.0464 23.8741 33.101 23.9534 33.1964C25.573 35.1364 28.1554 35.1909 29.5985 34.5412C31.7119 33.5894 32.7653 31.8561 32.8197 29.5686C32.9012 26.0135 34.4122 23.2513 37.3548 21.309C42.3203 18.0334 49.1773 20.2573 51.4245 25.8273C53.6649 31.3814 50.8536 37.4965 45.1247 39.248C41.7494 40.2793 38.7026 39.3729 36.05 37.0922C35.948 37.0059 35.8846 36.8741 35.8869 36.8764V36.8809Z" fill="white"/>
<path d="M34.424 22.3816C33.5563 24.0376 32.8292 25.4232 32.0885 26.8362C31.9956 26.7499 31.8642 26.6477 31.76 26.525C30.1108 24.601 28.1763 24.0126 26.0129 24.7804C24.024 25.4869 22.6127 27.5631 22.5992 29.8847C22.5811 33.1377 22.6127 36.3906 22.5969 39.6413C22.5811 42.9283 20.8209 45.5679 17.756 46.7241C12.641 48.655 7.3833 44.7206 7.64829 39.4618C7.83859 35.6887 10.4414 32.8469 14.2063 32.2699C15.2551 32.1086 16.2564 31.8542 16.9903 30.7593C16.9903 32.4811 17.1172 34.0213 16.945 35.5297C16.8295 36.5451 15.7694 36.72 14.895 36.8631C13.5629 37.0812 12.6727 37.7785 12.3125 39.1006C11.8934 40.6408 12.9423 42.2173 14.6095 42.5512C16.1386 42.8579 17.8353 41.7016 17.9033 40.1569C18.0029 37.899 17.9304 35.6342 17.9825 33.3716C18.0278 31.4544 17.9282 29.5008 18.277 27.6335C18.9498 24.0194 21.1992 21.5638 24.6561 20.3349C27.9906 19.1468 31.051 19.8487 33.8237 21.9863C34.0479 22.1589 34.2948 22.3021 34.4217 22.3861L34.424 22.3816Z" fill="white"/>
<path d="M20.2633 12.7775C21.7788 12.7638 23.0247 14.0018 23.0202 15.5193C23.0157 16.9595 21.7539 18.2679 20.3449 18.2929C18.8362 18.3202 17.5925 17.1026 17.5631 15.5693C17.5314 14.0473 18.7478 12.7911 20.2633 12.7775Z" fill="white"/>
<path d="M125.029 40.7848V19.2461H129.185V40.7848H125.029ZM128.085 40.7848V37.1082H139.97V40.7848H128.085ZM128.085 31.5627V28.0087H138.9V31.5627H128.085ZM128.085 22.9227V19.2461H139.817V22.9227H128.085Z" fill="white"/>
<path d="M108.959 31.7771V28.5295H113.94C114.958 28.5295 115.742 28.2742 116.292 27.7635C116.863 27.2324 117.147 26.5074 117.147 25.5882C117.147 24.7508 116.863 24.0563 116.292 23.5048C115.742 22.9329 114.958 22.6469 113.94 22.6469H108.959V19.2461H114.306C115.692 19.2461 116.903 19.5218 117.942 20.0733C119.001 20.6044 119.816 21.3397 120.386 22.2793C120.977 23.2189 121.272 24.3014 121.272 25.5269C121.272 26.7933 120.977 27.8963 120.386 28.8358C119.816 29.755 119.001 30.4801 117.942 31.0112C116.883 31.5218 115.651 31.7771 114.245 31.7771H108.959ZM105.904 40.7848V19.2461H110.06V40.7848H105.904ZM117.637 40.7848L110.548 31.4708L114.367 30.2758L122.678 40.7848H117.637Z" fill="white"/>
<path d="M82.7139 40.7848L91.3603 19.2461H94.7512L103.367 40.7848H98.9374L92.2765 23.1065H93.8042L87.0523 40.7848H82.7139ZM87.2966 36.7712V33.2784H98.8458V36.7712H87.2966Z" fill="white"/>
<path d="M73.8539 41.0913C72.2857 41.0913 70.8292 40.8155 69.4846 40.2641C68.1405 39.6921 66.9593 38.9057 65.9404 37.9049C64.9423 36.8836 64.1683 35.6989 63.6184 34.3509C63.0888 33.0028 62.8242 31.5526 62.8242 30.0002C62.8242 28.4479 63.0888 26.9976 63.6184 25.6496C64.1683 24.3015 64.9423 23.127 65.9404 22.1262C66.9593 21.1253 68.1304 20.3389 69.4543 19.767C70.7984 19.1951 72.2649 18.9092 73.8539 18.9092C75.5648 18.9092 77.0723 19.1951 78.3754 19.767C79.679 20.3185 80.8299 21.0845 81.828 22.0649L79.0174 24.8836C78.4265 24.23 77.7036 23.7194 76.8482 23.3517C75.9927 22.9841 74.9946 22.8002 73.8539 22.8002C72.8558 22.8002 71.9391 22.9739 71.1039 23.321C70.2895 23.6479 69.5762 24.1381 68.9656 24.7917C68.3545 25.4249 67.886 26.1909 67.5597 27.0896C67.234 27.9679 67.0711 28.9381 67.0711 30.0002C67.0711 31.0828 67.234 32.0632 67.5597 32.9415C67.886 33.8198 68.3545 34.5857 68.9656 35.2394C69.5762 35.8726 70.2895 36.3628 71.1039 36.71C71.9391 37.0573 72.8558 37.2308 73.8539 37.2308C75.0553 37.2308 76.0843 37.047 76.9397 36.6794C77.8154 36.3117 78.5489 35.7909 79.1393 35.1168L81.9505 37.9355C80.9524 38.9364 79.7914 39.7126 78.4675 40.2641C77.1431 40.8155 75.6057 41.0913 73.8539 41.0913Z" fill="white"/>
</g>
<defs>
<clipPath id="clip0_3449_16725">
<rect width="140" height="60" fill="white"/>
</clipPath>
</defs>
</svg>
